<ttFont>
    <TTGlyph name="A" xMin="40" yMin="-7" xMax="577" yMax="671">
      <contour>
        <pt x="143" y="270" on="1"/>
        <pt x="93" y="269" on="1"/>
        <pt x="83" y="269" on="0"/>
        <pt x="83" y="283" on="0"/>
        <pt x="100" y="300" on="0"/>
        <pt x="110" y="300" on="1"/>
        <pt x="160" y="300" on="1"/>
        <pt x="261" y="464" on="0"/>
        <pt x="406" y="624" on="1"/>
        <pt x="400" y="632" on="0"/>
        <pt x="400" y="651" on="0"/>
        <pt x="422" y="671" on="0"/>
        <pt x="467" y="671" on="0"/>
        <pt x="467" y="650" on="1"/>
        <pt x="467" y="643" on="0"/>
        <pt x="464" y="636" on="1"/>
        <pt x="482" y="590" on="0"/>
        <pt x="532" y="381" on="0"/>
        <pt x="543" y="301" on="1"/>
        <pt x="576" y="300" on="0"/>
        <pt x="576" y="290" on="1"/>
        <pt x="546" y="274" on="1"/>
        <pt x="546" y="269" on="0"/>
        <pt x="553" y="220" on="1"/>
        <pt x="577" y="67" on="0"/>
        <pt x="577" y="23" on="1"/>
        <pt x="577" y="13" on="0"/>
        <pt x="548" y="-4" on="0"/>
        <pt x="523" y="-4" on="0"/>
        <pt x="523" y="4" on="1"/>
        <pt x="523" y="16" on="1"/>
        <pt x="523" y="54" on="0"/>
        <pt x="507" y="243" on="0"/>
        <pt x="503" y="273" on="1"/>
        <pt x="197" y="270" on="0"/>
        <pt x="183" y="270" on="1"/>
        <pt x="94" y="107" on="0"/>
        <pt x="79" y="4" on="1"/>
        <pt x="78" y="-7" on="0"/>
        <pt x="42" y="-7" on="0"/>
        <pt x="40" y="-2" on="0"/>
        <pt x="40" y="0" on="1"/>
        <pt x="42" y="16" on="1"/>
        <pt x="62" y="128" on="0"/>
      </contour>
      <contour>
        <pt x="500" y="300" on="1"/>
        <pt x="490" y="380" on="0"/>
        <pt x="443" y="562" on="0"/>
        <pt x="429" y="605" on="1"/>
        <pt x="368" y="540" on="0"/>
        <pt x="235" y="367" on="0"/>
        <pt x="197" y="298" on="1"/>
      </contour>
    </TTGlyph>
    <TTGlyph name="AE" xMin="18" yMin="-7" xMax="957" yMax="683">
      <contour>
        <pt x="557" y="31" on="1"/>
        <pt x="833" y="30" on="1"/>
        <pt x="897" y="30" on="0"/>
        <pt x="948" y="46" on="1"/>
        <pt x="949" y="46" on="1"/>
        <pt x="953" y="46" on="0"/>
        <pt x="953" y="24" on="0"/>
        <pt x="937" y="0" on="0"/>
        <pt x="923" y="0" on="1"/>
        <pt x="518" y="-1" on="1"/>
        <pt x="501" y="-1" on="0"/>
        <pt x="501" y="11" on="1"/>
        <pt x="504" y="37" on="1"/>
        <pt x="521" y="207" on="0"/>
        <pt x="531" y="273" on="1"/>
        <pt x="531" y="273" on="0"/>
        <pt x="234" y="270" on="1"/>
        <pt x="100" y="107" on="0"/>
        <pt x="57" y="4" on="1"/>
        <pt x="54" y="-7" on="0"/>
        <pt x="18" y="-7" on="0"/>
        <pt x="18" y="-4" on="1"/>
        <pt x="18" y="1" on="0"/>
        <pt x="25" y="16" on="1"/>
        <pt x="74" y="127" on="0"/>
        <pt x="194" y="270" on="1"/>
        <pt x="144" y="269" on="1"/>
        <pt x="136" y="269" on="0"/>
        <pt x="136" y="274" on="1"/>
        <pt x="136" y="281" on="0"/>
        <pt x="158" y="300" on="0"/>
        <pt x="169" y="300" on="1"/>
        <pt x="219" y="300" on="1"/>
        <pt x="413" y="516" on="0"/>
        <pt x="544" y="625" on="1"/>
        <pt x="531" y="625" on="1"/>
        <pt x="509" y="625" on="0"/>
        <pt x="509" y="633" on="1"/>
        <pt x="509" y="644" on="0"/>
        <pt x="537" y="646" on="1"/>
        <pt x="543" y="647" on="0"/>
        <pt x="570" y="649" on="0"/>
        <pt x="587" y="651" on="0"/>
        <pt x="616" y="683" on="0"/>
        <pt x="656" y="683" on="0"/>
        <pt x="656" y="668" on="1"/>
        <pt x="647" y="650" on="1"/>
        <pt x="664" y="650" on="1"/>
        <pt x="771" y="649" on="1"/>
        <pt x="942" y="650" on="1"/>
        <pt x="957" y="650" on="0"/>
        <pt x="957" y="635" on="1"/>
        <pt x="957" y="624" on="0"/>
        <pt x="936" y="591" on="0"/>
        <pt x="922" y="591" on="0"/>
        <pt x="903" y="616" on="0"/>
        <pt x="875" y="619" on="0"/>
        <pt x="807" y="619" on="1"/>
        <pt x="760" y="618" on="1"/>
        <pt x="755" y="618" on="0"/>
        <pt x="637" y="620" on="1"/>
        <pt x="630" y="600" on="0"/>
        <pt x="586" y="346" on="0"/>
        <pt x="582" y="302" on="1"/>
        <pt x="782" y="302" on="0"/>
        <pt x="851" y="305" on="1"/>
        <pt x="857" y="305" on="0"/>
        <pt x="857" y="292" on="0"/>
        <pt x="837" y="274" on="0"/>
        <pt x="819" y="271" on="1"/>
        <pt x="577" y="271" on="1"/>
        <pt x="572" y="252" on="0"/>
        <pt x="556" y="84" on="0"/>
        <pt x="556" y="34" on="0"/>
      </contour>
      <contour>
        <pt x="593" y="626" on="1"/>
        <pt x="545" y="599" on="0"/>
        <pt x="322" y="379" on="0"/>
        <pt x="258" y="300" on="1"/>
        <pt x="534" y="300" on="1"/>
        <pt x="561" y="501" on="0"/>
      </contour>
    </TTGlyph>
    <TTGlyph name="Aacute" xMin="40" yMin="-7" xMax="577" yMax="835">
      <contour>
        <pt x="143" y="270" on="1"/>
        <pt x="93" y="269" on="1"/>
        <pt x="83" y="269" on="0"/>
        <pt x="83" y="283" on="0"/>
        <pt x="100" y="300" on="0"/>
        <pt x="110" y="300" on="1"/>
        <pt x="160" y="300" on="1"/>
        <pt x="254" y="452" on="0"/>
        <pt x="406" y="615" on="1"/>
        <pt x="400" y="623" on="0"/>
        <pt x="400" y="642" on="0"/>
        <pt x="422" y="661" on="0"/>
        <pt x="466" y="661" on="0"/>
        <pt x="466" y="641" on="1"/>
        <pt x="466" y="634" on="0"/>
        <pt x="463" y="627" on="1"/>
        <pt x="481" y="581" on="0"/>
        <pt x="533" y="380" on="0"/>
        <pt x="543" y="301" on="1"/>
        <pt x="576" y="300" on="0"/>
        <pt x="576" y="290" on="1"/>
        <pt x="546" y="274" on="1"/>
        <pt x="546" y="269" on="0"/>
        <pt x="553" y="220" on="1"/>
        <pt x="577" y="67" on="0"/>
        <pt x="577" y="23" on="1"/>
        <pt x="577" y="13" on="0"/>
        <pt x="548" y="-4" on="0"/>
        <pt x="523" y="-4" on="0"/>
        <pt x="523" y="4" on="1"/>
        <pt x="523" y="16" on="1"/>
        <pt x="523" y="54" on="0"/>
        <pt x="507" y="243" on="0"/>
        <pt x="503" y="273" on="1"/>
        <pt x="197" y="270" on="0"/>
        <pt x="183" y="270" on="1"/>
        <pt x="94" y="107" on="0"/>
        <pt x="79" y="4" on="1"/>
        <pt x="78" y="-7" on="0"/>
        <pt x="42" y="-7" on="0"/>
        <pt x="40" y="-2" on="0"/>
        <pt x="40" y="0" on="1"/>
        <pt x="42" y="16" on="1"/>
        <pt x="62" y="128" on="0"/>
      </contour>
      <contour>
        <pt x="500" y="300" on="1"/>
        <pt x="481" y="446" on="0"/>
        <pt x="429" y="597" on="1"/>
        <pt x="366" y="532" on="0"/>
        <pt x="234" y="366" on="0"/>
        <pt x="197" y="298" on="1"/>
      </contour>
      <contour>
        <pt x="556" y="818" on="0"/>
        <pt x="556" y="798" on="0"/>
        <pt x="538" y="787" on="0"/>
        <pt x="385" y="711" on="0"/>
        <pt x="378" y="711" on="0"/>
        <pt x="378" y="714" on="1"/>
        <pt x="378" y="723" on="0"/>
        <pt x="469" y="795" on="0"/>
        <pt x="525" y="832" on="1"/>
        <pt x="530" y="835" on="0"/>
        <pt x="544" y="835" on="0"/>
      </contour>
    </TTGlyph>
    <TTGlyph name="Acircumflex" xMin="40" yMin="-7" xMax="577" yMax="823">
      <contour>
        <pt x="143" y="270" on="1"/>
        <pt x="93" y="269" on="1"/>
        <pt x="83" y="269" on="0"/>
        <pt x="83" y="283" on="0"/>
        <pt x="100" y="300" on="0"/>
        <pt x="110" y="300" on="1"/>
        <pt x="160" y="300" on="1"/>
        <pt x="254" y="452" on="0"/>
        <pt x="406" y="615" on="1"/>
        <pt x="400" y="623" on="0"/>
        <pt x="400" y="642" on="0"/>
        <pt x="422" y="661" on="0"/>
        <pt x="466" y="661" on="0"/>
        <pt x="466" y="641" on="1"/>
        <pt x="466" y="634" on="0"/>
        <pt x="463" y="627" on="1"/>
        <pt x="481" y="581" on="0"/>
        <pt x="533" y="380" on="0"/>
        <pt x="543" y="301" on="1"/>
        <pt x="576" y="300" on="0"/>
        <pt x="576" y="290" on="1"/>
        <pt x="546" y="274" on="1"/>
        <pt x="546" y="269" on="0"/>
        <pt x="553" y="220" on="1"/>
        <pt x="577" y="67" on="0"/>
        <pt x="577" y="23" on="1"/>
        <pt x="577" y="13" on="0"/>
        <pt x="548" y="-4" on="0"/>
        <pt x="523" y="-4" on="0"/>
        <pt x="523" y="4" on="1"/>
        <pt x="523" y="16" on="1"/>
        <pt x="523" y="54" on="0"/>
        <pt x="507" y="243" on="0"/>
        <pt x="503" y="273" on="1"/>
        <pt x="197" y="270" on="0"/>
        <pt x="183" y="270" on="1"/>
        <pt x="94" y="107" on="0"/>
        <pt x="79" y="4" on="1"/>
        <pt x="78" y="-7" on="0"/>
        <pt x="42" y="-7" on="0"/>
        <pt x="40" y="-2" on="0"/>
        <pt x="40" y="0" on="1"/>
        <pt x="42" y="16" on="1"/>
        <pt x="62" y="128" on="0"/>
      </contour>
      <contour>
        <pt x="500" y="300" on="1"/>
        <pt x="481" y="446" on="0"/>
        <pt x="429" y="597" on="1"/>
        <pt x="366" y="532" on="0"/>
        <pt x="234" y="366" on="0"/>
        <pt x="197" y="298" on="1"/>
      </contour>
      <contour>
        <pt x="476" y="821" on="0"/>
        <pt x="534" y="730" on="0"/>
        <pt x="544" y="711" on="0"/>
        <pt x="544" y="698" on="0"/>
        <pt x="535" y="698" on="0"/>
        <pt x="468" y="771" on="0"/>
        <pt x="458" y="786" on="1"/>
        <pt x="441" y="771" on="0"/>
        <pt x="347" y="698" on="0"/>
        <pt x="342" y="698" on="0"/>
        <pt x="342" y="705" on="0"/>
        <pt x="356" y="722" on="0"/>
        <pt x="462" y="821" on="0"/>
        <pt x="471" y="823" on="1"/>
      </contour>
    </TTGlyph>
    <TTGlyph name="Adieresis" xMin="40" yMin="-7" xMax="577" yMax="833">
      <contour>
        <pt x="143" y="270" on="1"/>
        <pt x="93" y="269" on="1"/>
        <pt x="83" y="269" on="0"/>
        <pt x="83" y="283" on="0"/>
        <pt x="100" y="300" on="0"/>
        <pt x="110" y="300" on="1"/>
        <pt x="160" y="300" on="1"/>
        <pt x="254" y="452" on="0"/>
        <pt x="406" y="615" on="1"/>
        <pt x="400" y="623" on="0"/>
        <pt x="400" y="642" on="0"/>
        <pt x="422" y="661" on="0"/>
        <pt x="466" y="661" on="0"/>
        <pt x="466" y="641" on="1"/>
        <pt x="466" y="634" on="0"/>
        <pt x="463" y="627" on="1"/>
        <pt x="481" y="581" on="0"/>
        <pt x="533" y="380" on="0"/>
        <pt x="543" y="301" on="1"/>
        <pt x="576" y="300" on="0"/>
        <pt x="576" y="290" on="1"/>
        <pt x="546" y="274" on="1"/>
        <pt x="546" y="269" on="0"/>
        <pt x="553" y="220" on="1"/>
        <pt x="577" y="67" on="0"/>
        <pt x="577" y="23" on="1"/>
        <pt x="577" y="13" on="0"/>
        <pt x="548" y="-4" on="0"/>
        <pt x="523" y="-4" on="0"/>
        <pt x="523" y="4" on="1"/>
        <pt x="523" y="16" on="1"/>
        <pt x="523" y="54" on="0"/>
        <pt x="507" y="243" on="0"/>
        <pt x="503" y="273" on="1"/>
        <pt x="197" y="270" on="0"/>
        <pt x="183" y="270" on="1"/>
        <pt x="94" y="107" on="0"/>
        <pt x="79" y="4" on="1"/>
        <pt x="78" y="-7" on="0"/>
        <pt x="42" y="-7" on="0"/>
        <pt x="40" y="-2" on="0"/>
        <pt x="40" y="0" on="1"/>
        <pt x="42" y="16" on="1"/>
        <pt x="62" y="128" on="0"/>
      </contour>
      <contour>
        <pt x="500" y="300" on="1"/>
        <pt x="481" y="446" on="0"/>
        <pt x="429" y="597" on="1"/>
        <pt x="366" y="532" on="0"/>
        <pt x="234" y="366" on="0"/>
        <pt x="197" y="298" on="1"/>
      </contour>
      <contour>
        <pt x="545" y="830" on="1"/>
        <pt x="545" y="820" on="0"/>
        <pt x="533" y="776" on="0"/>
        <pt x="533" y="775" on="1"/>
        <pt x="533" y="761" on="0"/>
        <pt x="506" y="754" on="1"/>
        <pt x="488" y="754" on="0"/>
        <pt x="488" y="799" on="0"/>
        <pt x="522" y="833" on="0"/>
        <pt x="539" y="833" on="1"/>
        <pt x="544" y="833" on="0"/>
      </contour>
      <contour>
        <pt x="417" y="830" on="1"/>
        <pt x="417" y="820" on="0"/>
        <pt x="405" y="776" on="0"/>
        <pt x="405" y="775" on="1"/>
        <pt x="405" y="761" on="0"/>
        <pt x="378" y="754" on="1"/>
        <pt x="361" y="754" on="0"/>
        <pt x="361" y="799" on="0"/>
        <pt x="395" y="833" on="0"/>
        <pt x="412" y="833" on="1"/>
        <pt x="416" y="833" on="0"/>
      </contour>
    </TTGlyph>
    <TTGlyph name="Agrave" xMin="40" yMin="-7" xMax="577" yMax="836">
      <contour>
        <pt x="143" y="270" on="1"/>
        <pt x="93" y="269" on="1"/>
        <pt x="83" y="269" on="0"/>
        <pt x="83" y="283" on="0"/>
        <pt x="100" y="300" on="0"/>
        <pt x="110" y="300" on="1"/>
        <pt x="160" y="300" on="1"/>
        <pt x="254" y="452" on="0"/>
        <pt x="406" y="615" on="1"/>
        <pt x="400" y="623" on="0"/>
        <pt x="400" y="642" on="0"/>
        <pt x="422" y="661" on="0"/>
        <pt x="466" y="661" on="0"/>
        <pt x="466" y="641" on="1"/>
        <pt x="466" y="634" on="0"/>
        <pt x="463" y="627" on="1"/>
        <pt x="481" y="581" on="0"/>
        <pt x="533" y="380" on="0"/>
        <pt x="543" y="301" on="1"/>
        <pt x="576" y="300" on="0"/>
        <pt x="576" y="290" on="1"/>
        <pt x="546" y="274" on="1"/>
        <pt x="546" y="269" on="0"/>
        <pt x="553" y="220" on="1"/>
        <pt x="577" y="67" on="0"/>
        <pt x="577" y="23" on="1"/>
        <pt x="577" y="13" on="0"/>
        <pt x="548" y="-4" on="0"/>
        <pt x="523" y="-4" on="0"/>
        <pt x="523" y="4" on="1"/>
        <pt x="523" y="16" on="1"/>
        <pt x="523" y="54" on="0"/>
        <pt x="507" y="243" on="0"/>
        <pt x="503" y="273" on="1"/>
        <pt x="197" y="270" on="0"/>
        <pt x="183" y="270" on="1"/>
        <pt x="94" y="107" on="0"/>
        <pt x="79" y="4" on="1"/>
        <pt x="78" y="-7" on="0"/>
        <pt x="42" y="-7" on="0"/>
        <pt x="40" y="-2" on="0"/>
        <pt x="40" y="0" on="1"/>
        <pt x="42" y="16" on="1"/>
        <pt x="62" y="128" on="0"/>
      </contour>
      <contour>
        <pt x="500" y="300" on="1"/>
        <pt x="481" y="446" on="0"/>
        <pt x="429" y="597" on="1"/>
        <pt x="366" y="532" on="0"/>
        <pt x="234" y="366" on="0"/>
        <pt x="197" y="298" on="1"/>
      </contour>
      <contour>
        <pt x="513" y="712" on="0"/>
        <pt x="507" y="712" on="0"/>
        <pt x="354" y="788" on="0"/>
        <pt x="336" y="798" on="0"/>
        <pt x="336" y="819" on="0"/>
        <pt x="348" y="836" on="0"/>
        <pt x="361" y="836" on="0"/>
        <pt x="367" y="833" on="1"/>
        <pt x="422" y="796" on="0"/>
        <pt x="513" y="724" on="0"/>
        <pt x="513" y="715" on="1"/>
      </contour>
    </TTGlyph>
    <TTGlyph name="Aring" xMin="40" yMin="-7" xMax="577" yMax="792">
      <contour>
        <pt x="143" y="270" on="1"/>
        <pt x="93" y="269" on="1"/>
        <pt x="83" y="269" on="0"/>
        <pt x="83" y="283" on="0"/>
        <pt x="100" y="300" on="0"/>
        <pt x="110" y="300" on="1"/>
        <pt x="160" y="300" on="1"/>
        <pt x="254" y="452" on="0"/>
        <pt x="406" y="615" on="1"/>
        <pt x="400" y="621" on="0"/>
        <pt x="400" y="644" on="0"/>
        <pt x="412" y="652" on="1"/>
        <pt x="389" y="660" on="0"/>
        <pt x="389" y="725" on="0"/>
        <pt x="448" y="792" on="0"/>
        <pt x="479" y="792" on="1"/>
        <pt x="498" y="792" on="0"/>
        <pt x="522" y="763" on="0"/>
        <pt x="522" y="715" on="0"/>
        <pt x="486" y="666" on="0"/>
        <pt x="460" y="655" on="1"/>
        <pt x="465" y="648" on="0"/>
        <pt x="465" y="635" on="0"/>
        <pt x="463" y="627" on="1"/>
        <pt x="481" y="581" on="0"/>
        <pt x="533" y="380" on="0"/>
        <pt x="543" y="301" on="1"/>
        <pt x="576" y="300" on="0"/>
        <pt x="576" y="290" on="1"/>
        <pt x="546" y="274" on="1"/>
        <pt x="546" y="269" on="0"/>
        <pt x="553" y="220" on="1"/>
        <pt x="577" y="67" on="0"/>
        <pt x="577" y="23" on="1"/>
        <pt x="577" y="13" on="0"/>
        <pt x="548" y="-4" on="0"/>
        <pt x="523" y="-4" on="0"/>
        <pt x="523" y="4" on="1"/>
        <pt x="523" y="16" on="1"/>
        <pt x="523" y="54" on="0"/>
        <pt x="507" y="243" on="0"/>
        <pt x="503" y="273" on="1"/>
        <pt x="197" y="270" on="0"/>
        <pt x="183" y="270" on="1"/>
        <pt x="94" y="107" on="0"/>
        <pt x="79" y="4" on="1"/>
        <pt x="78" y="-7" on="0"/>
        <pt x="42" y="-7" on="0"/>
        <pt x="40" y="-2" on="0"/>
        <pt x="40" y="0" on="1"/>
        <pt x="42" y="16" on="1"/>
        <pt x="62" y="128" on="0"/>
      </contour>
      <contour>
        <pt x="500" y="300" on="1"/>
        <pt x="481" y="446" on="0"/>
        <pt x="429" y="597" on="1"/>
        <pt x="366" y="532" on="0"/>
        <pt x="234" y="366" on="0"/>
        <pt x="197" y="298" on="1"/>
      </contour>
      <contour>
        <pt x="466" y="668" on="0"/>
        <pt x="502" y="714" on="0"/>
        <pt x="502" y="777" on="0"/>
        <pt x="476" y="777" on="1"/>
        <pt x="457" y="777" on="0"/>
        <pt x="412" y="727" on="0"/>
        <pt x="412" y="668" on="0"/>
        <pt x="441" y="668" on="1"/>
      </contour>
    </TTGlyph>
    <TTGlyph name="Atilde" xMin="40" yMin="-7" xMax="577" yMax="794">
      <contour>
        <pt x="143" y="270" on="1"/>
        <pt x="93" y="269" on="1"/>
        <pt x="83" y="269" on="0"/>
        <pt x="83" y="283" on="0"/>
        <pt x="100" y="300" on="0"/>
        <pt x="110" y="300" on="1"/>
        <pt x="160" y="300" on="1"/>
        <pt x="254" y="452" on="0"/>
        <pt x="406" y="615" on="1"/>
        <pt x="400" y="623" on="0"/>
        <pt x="400" y="642" on="0"/>
        <pt x="422" y="661" on="0"/>
        <pt x="466" y="661" on="0"/>
        <pt x="466" y="641" on="1"/>
        <pt x="466" y="634" on="0"/>
        <pt x="463" y="627" on="1"/>
        <pt x="481" y="581" on="0"/>
        <pt x="533" y="380" on="0"/>
        <pt x="543" y="301" on="1"/>
        <pt x="576" y="300" on="0"/>
        <pt x="576" y="290" on="1"/>
        <pt x="546" y="274" on="1"/>
        <pt x="546" y="269" on="0"/>
        <pt x="553" y="220" on="1"/>
        <pt x="577" y="67" on="0"/>
        <pt x="577" y="23" on="1"/>
        <pt x="577" y="13" on="0"/>
        <pt x="548" y="-4" on="0"/>
        <pt x="523" y="-4" on="0"/>
        <pt x="523" y="4" on="1"/>
        <pt x="523" y="16" on="1"/>
        <pt x="523" y="54" on="0"/>
        <pt x="507" y="243" on="0"/>
        <pt x="503" y="273" on="1"/>
        <pt x="197" y="270" on="0"/>
        <pt x="183" y="270" on="1"/>
        <pt x="94" y="107" on="0"/>
        <pt x="79" y="4" on="1"/>
        <pt x="78" y="-7" on="0"/>
        <pt x="42" y="-7" on="0"/>
        <pt x="40" y="-2" on="0"/>
        <pt x="40" y="0" on="1"/>
        <pt x="42" y="16" on="1"/>
        <pt x="62" y="128" on="0"/>
      </contour>
      <contour>
        <pt x="500" y="300" on="1"/>
        <pt x="481" y="446" on="0"/>
        <pt x="429" y="597" on="1"/>
        <pt x="366" y="532" on="0"/>
        <pt x="234" y="366" on="0"/>
        <pt x="197" y="298" on="1"/>
      </contour>
      <contour>
        <pt x="560" y="790" on="1"/>
        <pt x="560" y="771" on="0"/>
        <pt x="504" y="740" on="0"/>
        <pt x="475" y="740" on="0"/>
        <pt x="411" y="767" on="0"/>
        <pt x="377" y="767" on="0"/>
        <pt x="344" y="741" on="0"/>
        <pt x="338" y="741" on="0"/>
        <pt x="338" y="750" on="0"/>
        <pt x="371" y="779" on="0"/>
        <pt x="397" y="794" on="0"/>
        <pt x="434" y="794" on="0"/>
        <pt x="496" y="773" on="0"/>
        <pt x="536" y="773" on="0"/>
        <pt x="554" y="794" on="1"/>
        <pt x="560" y="794" on="0"/>
      </contour>
    </TTGlyph>
    <TTGlyph name="B" xMin="82" yMin="-16" xMax="595" yMax="692">
      <contour>
        <pt x="523" y="300" on="0"/>
        <pt x="595" y="243" on="0"/>
        <pt x="595" y="146" on="0"/>
        <pt x="527" y="64" on="0"/>
        <pt x="473" y="40" on="1"/>
        <pt x="362" y="-11" on="0"/>
        <pt x="236" y="-11" on="1"/>
        <pt x="188" y="-11" on="0"/>
        <pt x="154" y="-4" on="1"/>
        <pt x="149" y="-16" on="0"/>
        <pt x="120" y="-16" on="0"/>
        <pt x="85" y="13" on="0"/>
        <pt x="85" y="32" on="0"/>
        <pt x="96" y="32" on="1"/>
        <pt x="97" y="32" on="0"/>
        <pt x="109" y="29" on="1"/>
        <pt x="101" y="66" on="0"/>
        <pt x="101" y="248" on="0"/>
        <pt x="135" y="535" on="0"/>
        <pt x="157" y="625" on="1"/>
        <pt x="104" y="625" on="1"/>
        <pt x="82" y="626" on="0"/>
        <pt x="82" y="639" on="0"/>
        <pt x="108" y="650" on="0"/>
        <pt x="124" y="650" on="1"/>
        <pt x="163" y="650" on="1"/>
        <pt x="170" y="692" on="0"/>
        <pt x="224" y="692" on="1"/>
        <pt x="239" y="692" on="0"/>
        <pt x="239" y="674" on="0"/>
        <pt x="219" y="648" on="0"/>
        <pt x="219" y="647" on="1"/>
        <pt x="497" y="621" on="0"/>
        <pt x="497" y="486" on="1"/>
        <pt x="497" y="432" on="0"/>
        <pt x="394" y="340" on="0"/>
        <pt x="334" y="315" on="1"/>
        <pt x="362" y="317" on="0"/>
        <pt x="436" y="317" on="0"/>
      </contour>
      <contour>
        <pt x="549" y="187" on="1"/>
        <pt x="548" y="219" on="0"/>
        <pt x="504" y="265" on="0"/>
        <pt x="468" y="276" on="1"/>
        <pt x="401" y="296" on="0"/>
        <pt x="267" y="296" on="0"/>
        <pt x="147" y="278" on="1"/>
        <pt x="144" y="252" on="0"/>
        <pt x="144" y="84" on="0"/>
        <pt x="150" y="22" on="1"/>
        <pt x="188" y="14" on="0"/>
        <pt x="314" y="14" on="0"/>
        <pt x="448" y="45" on="0"/>
        <pt x="549" y="126" on="0"/>
      </contour>
      <contour>
        <pt x="152" y="310" on="1"/>
        <pt x="172" y="309" on="1"/>
        <pt x="227" y="309" on="0"/>
        <pt x="324" y="338" on="1"/>
        <pt x="377" y="354" on="0"/>
        <pt x="453" y="427" on="0"/>
        <pt x="453" y="478" on="1"/>
        <pt x="453" y="484" on="0"/>
        <pt x="451" y="500" on="1"/>
        <pt x="442" y="530" on="0"/>
        <pt x="384" y="577" on="0"/>
        <pt x="346" y="590" on="1"/>
        <pt x="277" y="615" on="0"/>
        <pt x="212" y="623" on="1"/>
        <pt x="211" y="623" on="1"/>
        <pt x="198" y="584" on="0"/>
        <pt x="152" y="353" on="0"/>
        <pt x="149" y="310" on="1"/>
      </contour>
    </TTGlyph>
    <TTGlyph name="C" xMin="59" yMin="-16" xMax="651" yMax="658">
      <contour>
        <pt x="639" y="162" on="1"/>
        <pt x="644" y="167" on="0"/>
        <pt x="646" y="167" on="1"/>
        <pt x="651" y="167" on="0"/>
        <pt x="651" y="152" on="1"/>
        <pt x="651" y="101" on="0"/>
        <pt x="543" y="20" on="0"/>
        <pt x="407" y="-16" on="0"/>
        <pt x="348" y="-16" on="1"/>
        <pt x="208" y="-16" on="0"/>
        <pt x="59" y="140" on="0"/>
        <pt x="59" y="274" on="1"/>
        <pt x="59" y="435" on="0"/>
        <pt x="263" y="658" on="0"/>
        <pt x="615" y="658" on="0"/>
        <pt x="615" y="536" on="1"/>
        <pt x="615" y="506" on="0"/>
        <pt x="592" y="474" on="0"/>
        <pt x="575" y="474" on="1"/>
        <pt x="554" y="474" on="0"/>
        <pt x="554" y="493" on="1"/>
        <pt x="554" y="505" on="0"/>
        <pt x="574" y="545" on="0"/>
        <pt x="574" y="553" on="1"/>
        <pt x="574" y="588" on="0"/>
        <pt x="491" y="633" on="0"/>
        <pt x="442" y="633" on="1"/>
        <pt x="293" y="633" on="0"/>
        <pt x="108" y="416" on="0"/>
        <pt x="108" y="271" on="1"/>
        <pt x="108" y="160" on="0"/>
        <pt x="227" y="7" on="0"/>
        <pt x="339" y="7" on="1"/>
        <pt x="530" y="7" on="0"/>
      </contour>
    </TTGlyph>
    <TTGlyph name="Ccedilla" xMin="59" yMin="-250" xMax="651" yMax="658">
      <contour>
        <pt x="370" y="-162" on="1"/>
        <pt x="370" y="-204" on="0"/>
        <pt x="275" y="-250" on="0"/>
        <pt x="224" y="-250" on="1"/>
        <pt x="215" y="-250" on="0"/>
        <pt x="215" y="-240" on="1"/>
        <pt x="215" y="-227" on="0"/>
        <pt x="272" y="-226" on="1"/>
        <pt x="293" y="-225" on="0"/>
        <pt x="329" y="-199" on="0"/>
        <pt x="329" y="-171" on="1"/>
        <pt x="329" y="-159" on="0"/>
        <pt x="278" y="-94" on="0"/>
        <pt x="278" y="-76" on="1"/>
        <pt x="278" y="-35" on="0"/>
        <pt x="303" y="-13" on="1"/>
        <pt x="184" y="-1" on="0"/>
        <pt x="59" y="151" on="0"/>
        <pt x="59" y="274" on="1"/>
        <pt x="59" y="435" on="0"/>
        <pt x="263" y="658" on="0"/>
        <pt x="615" y="658" on="0"/>
        <pt x="615" y="536" on="1"/>
        <pt x="615" y="506" on="0"/>
        <pt x="592" y="474" on="0"/>
        <pt x="575" y="474" on="1"/>
        <pt x="554" y="474" on="0"/>
        <pt x="554" y="493" on="1"/>
        <pt x="554" y="505" on="0"/>
        <pt x="574" y="545" on="0"/>
        <pt x="574" y="553" on="1"/>
        <pt x="574" y="588" on="0"/>
        <pt x="491" y="633" on="0"/>
        <pt x="442" y="633" on="1"/>
        <pt x="293" y="633" on="0"/>
        <pt x="108" y="416" on="0"/>
        <pt x="108" y="271" on="1"/>
        <pt x="108" y="160" on="0"/>
        <pt x="227" y="7" on="0"/>
        <pt x="339" y="7" on="1"/>
        <pt x="397" y="7" on="0"/>
        <pt x="500" y="40" on="0"/>
        <pt x="567" y="87" on="0"/>
        <pt x="616" y="134" on="0"/>
        <pt x="643" y="167" on="0"/>
        <pt x="651" y="167" on="0"/>
        <pt x="651" y="152" on="1"/>
        <pt x="651" y="101" on="0"/>
        <pt x="543" y="20" on="0"/>
        <pt x="407" y="-16" on="0"/>
        <pt x="348" y="-16" on="1"/>
        <pt x="333" y="-16" on="1"/>
        <pt x="313" y="-33" on="0"/>
        <pt x="313" y="-61" on="1"/>
        <pt x="313" y="-72" on="0"/>
        <pt x="370" y="-137" on="0"/>
      </contour>
    </TTGlyph>
    <TTGlyph name="D" xMin="92" yMin="-9" xMax="725" yMax="692">
      <contour>
        <pt x="151" y="611" on="1"/>
        <pt x="99" y="605" on="1"/>
        <pt x="92" y="605" on="0"/>
        <pt x="92" y="626" on="0"/>
        <pt x="112" y="648" on="0"/>
        <pt x="128" y="648" on="1"/>
        <pt x="167" y="648" on="1"/>
        <pt x="175" y="692" on="0"/>
        <pt x="219" y="692" on="1"/>
        <pt x="233" y="692" on="0"/>
        <pt x="233" y="681" on="1"/>
        <pt x="226" y="665" on="0"/>
        <pt x="221" y="651" on="1"/>
        <pt x="247" y="651" on="1"/>
        <pt x="424" y="651" on="0"/>
        <pt x="568" y="581" on="1"/>
        <pt x="639" y="546" on="0"/>
        <pt x="725" y="423" on="0"/>
        <pt x="725" y="344" on="1"/>
        <pt x="725" y="288" on="0"/>
        <pt x="673" y="185" on="0"/>
        <pt x="586" y="110" on="0"/>
        <pt x="477" y="49" on="0"/>
        <pt x="418" y="30" on="1"/>
        <pt x="297" y="-9" on="0"/>
        <pt x="204" y="-9" on="1"/>
        <pt x="153" y="-9" on="0"/>
        <pt x="93" y="15" on="0"/>
        <pt x="93" y="33" on="1"/>
        <pt x="93" y="41" on="0"/>
        <pt x="100" y="41" on="1"/>
        <pt x="103" y="41" on="0"/>
        <pt x="106" y="40" on="1"/>
        <pt x="99" y="75" on="0"/>
        <pt x="99" y="242" on="0"/>
        <pt x="136" y="522" on="0"/>
        <pt x="159" y="611" on="1"/>
      </contour>
      <contour>
        <pt x="144" y="105" on="1"/>
        <pt x="146" y="57" on="0"/>
        <pt x="181" y="18" on="0"/>
        <pt x="234" y="18" on="1"/>
        <pt x="326" y="18" on="0"/>
        <pt x="561" y="128" on="0"/>
        <pt x="614" y="197" on="1"/>
        <pt x="688" y="292" on="0"/>
        <pt x="688" y="377" on="1"/>
        <pt x="688" y="430" on="0"/>
        <pt x="636" y="512" on="0"/>
        <pt x="546" y="561" on="0"/>
        <pt x="452" y="594" on="0"/>
        <pt x="397" y="601" on="1"/>
        <pt x="303" y="613" on="0"/>
        <pt x="246" y="613" on="1"/>
        <pt x="211" y="613" on="1"/>
        <pt x="143" y="383" on="0"/>
        <pt x="143" y="157" on="1"/>
        <pt x="143" y="122" on="0"/>
      </contour>
    </TTGlyph>
    <TTGlyph name="Delta" xMin="25" yMin="-2" xMax="428" yMax="535">
      <contour>
        <pt x="428" y="-2" on="1"/>
        <pt x="334" y="0" on="0"/>
        <pt x="89" y="0" on="0"/>
        <pt x="25" y="-2" on="1"/>
        <pt x="83" y="103" on="0"/>
        <pt x="165" y="236" on="1"/>
        <pt x="302" y="459" on="1"/>
        <pt x="303" y="461" on="0"/>
        <pt x="314" y="480" on="0"/>
        <pt x="325" y="500" on="0"/>
        <pt x="332" y="511" on="1"/>
        <pt x="346" y="535" on="0"/>
        <pt x="353" y="535" on="1"/>
        <pt x="357" y="535" on="0"/>
        <pt x="357" y="528" on="1"/>
        <pt x="364" y="414" on="0"/>
        <pt x="405" y="98" on="0"/>
      </contour>
      <contour>
        <pt x="230" y="30" on="1"/>
        <pt x="384" y="33" on="1"/>
        <pt x="378" y="98" on="0"/>
        <pt x="333" y="475" on="0"/>
        <pt x="326" y="475" on="0"/>
        <pt x="324" y="470" on="1"/>
        <pt x="87" y="88" on="0"/>
        <pt x="70" y="37" on="1"/>
        <pt x="70" y="30" on="0"/>
      </contour>
    </TTGlyph>
    <TTGlyph name="E" xMin="55" yMin="-1" xMax="534" yMax="692">
      <contour>
        <pt x="348" y="648" on="1"/>
        <pt x="519" y="649" on="1"/>
        <pt x="534" y="649" on="0"/>
        <pt x="534" y="634" on="1"/>
        <pt x="534" y="623" on="0"/>
        <pt x="513" y="590" on="0"/>
        <pt x="499" y="590" on="0"/>
        <pt x="480" y="615" on="0"/>
        <pt x="452" y="618" on="0"/>
        <pt x="384" y="618" on="1"/>
        <pt x="337" y="617" on="1"/>
        <pt x="332" y="617" on="0"/>
        <pt x="214" y="619" on="1"/>
        <pt x="180" y="503" on="0"/>
        <pt x="160" y="345" on="1"/>
        <pt x="386" y="345" on="0"/>
        <pt x="446" y="348" on="1"/>
        <pt x="452" y="348" on="0"/>
        <pt x="452" y="335" on="0"/>
        <pt x="432" y="317" on="0"/>
        <pt x="414" y="314" on="1"/>
        <pt x="156" y="314" on="1"/>
        <pt x="141" y="158" on="0"/>
        <pt x="141" y="52" on="0"/>
        <pt x="145" y="31" on="1"/>
        <pt x="405" y="30" on="1"/>
        <pt x="469" y="30" on="0"/>
        <pt x="520" y="46" on="1"/>
        <pt x="521" y="46" on="1"/>
        <pt x="525" y="46" on="0"/>
        <pt x="525" y="24" on="0"/>
        <pt x="509" y="0" on="0"/>
        <pt x="495" y="0" on="1"/>
        <pt x="356" y="-1" on="1"/>
        <pt x="55" y="-1" on="0"/>
        <pt x="55" y="5" on="1"/>
        <pt x="55" y="13" on="0"/>
        <pt x="79" y="37" on="0"/>
        <pt x="90" y="39" on="1"/>
        <pt x="89" y="44" on="0"/>
        <pt x="89" y="114" on="0"/>
        <pt x="111" y="314" on="1"/>
        <pt x="98" y="314" on="1"/>
        <pt x="88" y="314" on="0"/>
        <pt x="88" y="328" on="0"/>
        <pt x="104" y="344" on="0"/>
        <pt x="114" y="345" on="1"/>
        <pt x="137" y="535" on="0"/>
        <pt x="161" y="624" on="1"/>
        <pt x="108" y="624" on="1"/>
        <pt x="86" y="625" on="0"/>
        <pt x="86" y="632" on="1"/>
        <pt x="86" y="637" on="0"/>
        <pt x="112" y="648" on="0"/>
        <pt x="128" y="648" on="1"/>
        <pt x="167" y="648" on="1"/>
        <pt x="175" y="692" on="0"/>
        <pt x="224" y="692" on="1"/>
        <pt x="239" y="692" on="0"/>
        <pt x="239" y="682" on="1"/>
        <pt x="239" y="676" on="0"/>
        <pt x="225" y="652" on="0"/>
        <pt x="224" y="649" on="1"/>
        <pt x="283" y="648" on="1"/>
      </contour>
    </TTGlyph>
    <TTGlyph name="Eacute" xMin="55" yMin="-1" xMax="530" yMax="843">
      <contour>
        <pt x="344" y="634" on="1"/>
        <pt x="515" y="635" on="1"/>
        <pt x="530" y="635" on="0"/>
        <pt x="530" y="620" on="1"/>
        <pt x="530" y="609" on="0"/>
        <pt x="509" y="576" on="0"/>
        <pt x="495" y="576" on="0"/>
        <pt x="476" y="601" on="0"/>
        <pt x="448" y="604" on="0"/>
        <pt x="380" y="604" on="1"/>
        <pt x="333" y="603" on="1"/>
        <pt x="328" y="603" on="0"/>
        <pt x="210" y="605" on="1"/>
        <pt x="176" y="489" on="0"/>
        <pt x="156" y="331" on="1"/>
        <pt x="382" y="331" on="0"/>
        <pt x="442" y="334" on="1"/>
        <pt x="448" y="334" on="0"/>
        <pt x="448" y="321" on="0"/>
        <pt x="428" y="303" on="0"/>
        <pt x="410" y="300" on="1"/>
        <pt x="152" y="300" on="1"/>
        <pt x="140" y="185" on="0"/>
        <pt x="140" y="63" on="0"/>
        <pt x="145" y="31" on="1"/>
        <pt x="405" y="30" on="1"/>
        <pt x="469" y="30" on="0"/>
        <pt x="520" y="46" on="1"/>
        <pt x="521" y="46" on="1"/>
        <pt x="525" y="46" on="0"/>
        <pt x="525" y="24" on="0"/>
        <pt x="509" y="0" on="0"/>
        <pt x="495" y="0" on="1"/>
        <pt x="356" y="-1" on="1"/>
        <pt x="55" y="-1" on="0"/>
        <pt x="55" y="5" on="1"/>
        <pt x="55" y="13" on="0"/>
        <pt x="79" y="37" on="0"/>
        <pt x="90" y="39" on="1"/>
        <pt x="89" y="46" on="0"/>
        <pt x="89" y="145" on="0"/>
        <pt x="107" y="300" on="1"/>
        <pt x="94" y="300" on="1"/>
        <pt x="84" y="300" on="0"/>
        <pt x="84" y="314" on="0"/>
        <pt x="100" y="330" on="0"/>
        <pt x="110" y="331" on="1"/>
        <pt x="133" y="521" on="0"/>
        <pt x="157" y="610" on="1"/>
        <pt x="104" y="610" on="1"/>
        <pt x="82" y="611" on="0"/>
        <pt x="82" y="618" on="1"/>
        <pt x="82" y="623" on="0"/>
        <pt x="108" y="634" on="0"/>
        <pt x="124" y="634" on="1"/>
        <pt x="163" y="634" on="1"/>
        <pt x="169" y="667" on="0"/>
        <pt x="197" y="692" on="0"/>
        <pt x="239" y="692" on="0"/>
        <pt x="239" y="673" on="0"/>
        <pt x="220" y="635" on="1"/>
        <pt x="279" y="634" on="1"/>
      </contour>
      <contour>
        <pt x="454" y="826" on="0"/>
        <pt x="454" y="806" on="0"/>
        <pt x="436" y="795" on="0"/>
        <pt x="283" y="719" on="0"/>
        <pt x="276" y="719" on="0"/>
        <pt x="276" y="722" on="1"/>
        <pt x="276" y="731" on="0"/>
        <pt x="367" y="803" on="0"/>
        <pt x="423" y="840" on="1"/>
        <pt x="428" y="843" on="0"/>
        <pt x="442" y="843" on="0"/>
      </contour>
    </TTGlyph>
    <TTGlyph name="Ecircumflex" xMin="55" yMin="-1" xMax="530" yMax="823">
      <contour>
        <pt x="344" y="634" on="1"/>
        <pt x="515" y="635" on="1"/>
        <pt x="530" y="635" on="0"/>
        <pt x="530" y="620" on="1"/>
        <pt x="530" y="609" on="0"/>
        <pt x="509" y="576" on="0"/>
        <pt x="495" y="576" on="0"/>
        <pt x="476" y="601" on="0"/>
        <pt x="448" y="604" on="0"/>
        <pt x="380" y="604" on="1"/>
        <pt x="333" y="603" on="1"/>
        <pt x="328" y="603" on="0"/>
        <pt x="210" y="605" on="1"/>
        <pt x="176" y="489" on="0"/>
        <pt x="156" y="331" on="1"/>
        <pt x="382" y="331" on="0"/>
        <pt x="442" y="334" on="1"/>
        <pt x="448" y="334" on="0"/>
        <pt x="448" y="321" on="0"/>
        <pt x="428" y="303" on="0"/>
        <pt x="410" y="300" on="1"/>
        <pt x="152" y="300" on="1"/>
        <pt x="140" y="185" on="0"/>
        <pt x="140" y="63" on="0"/>
        <pt x="145" y="31" on="1"/>
        <pt x="405" y="30" on="1"/>
        <pt x="469" y="30" on="0"/>
        <pt x="520" y="46" on="1"/>
        <pt x="521" y="46" on="1"/>
        <pt x="525" y="46" on="0"/>
        <pt x="525" y="24" on="0"/>
        <pt x="509" y="0" on="0"/>
        <pt x="495" y="0" on="1"/>
        <pt x="356" y="-1" on="1"/>
        <pt x="55" y="-1" on="0"/>
        <pt x="55" y="5" on="1"/>
        <pt x="55" y="13" on="0"/>
        <pt x="79" y="37" on="0"/>
        <pt x="90" y="39" on="1"/>
        <pt x="89" y="46" on="0"/>
        <pt x="89" y="145" on="0"/>
        <pt x="107" y="300" on="1"/>
        <pt x="94" y="300" on="1"/>
        <pt x="84" y="300" on="0"/>
        <pt x="84" y="314" on="0"/>
        <pt x="100" y="330" on="0"/>
        <pt x="110" y="331" on="1"/>
        <pt x="133" y="521" on="0"/>
        <pt x="157" y="610" on="1"/>
        <pt x="104" y="610" on="1"/>
        <pt x="82" y="611" on="0"/>
        <pt x="82" y="618" on="1"/>
        <pt x="82" y="623" on="0"/>
        <pt x="108" y="634" on="0"/>
        <pt x="124" y="634" on="1"/>
        <pt x="163" y="634" on="1"/>
        <pt x="169" y="667" on="0"/>
        <pt x="197" y="692" on="0"/>
        <pt x="239" y="692" on="0"/>
        <pt x="239" y="673" on="0"/>
        <pt x="220" y="635" on="1"/>
        <pt x="279" y="634" on="1"/>
      </contour>
      <contour>
        <pt x="374" y="821" on="0"/>
        <pt x="432" y="730" on="0"/>
        <pt x="442" y="711" on="0"/>
        <pt x="442" y="698" on="0"/>
        <pt x="433" y="698" on="0"/>
        <pt x="366" y="771" on="0"/>
        <pt x="356" y="786" on="1"/>
        <pt x="339" y="771" on="0"/>
        <pt x="245" y="698" on="0"/>
        <pt x="240" y="698" on="0"/>
        <pt x="240" y="705" on="0"/>
        <pt x="254" y="722" on="0"/>
        <pt x="360" y="821" on="0"/>
        <pt x="369" y="823" on="1"/>
      </contour>
    </TTGlyph>
    <TTGlyph name="Edieresis" xMin="55" yMin="-1" xMax="530" yMax="833">
      <contour>
        <pt x="344" y="634" on="1"/>
        <pt x="515" y="635" on="1"/>
        <pt x="530" y="635" on="0"/>
        <pt x="530" y="620" on="1"/>
        <pt x="530" y="609" on="0"/>
        <pt x="509" y="576" on="0"/>
        <pt x="495" y="576" on="0"/>
        <pt x="476" y="601" on="0"/>
        <pt x="448" y="604" on="0"/>
        <pt x="380" y="604" on="1"/>
        <pt x="333" y="603" on="1"/>
        <pt x="328" y="603" on="0"/>
        <pt x="210" y="605" on="1"/>
        <pt x="176" y="489" on="0"/>
        <pt x="156" y="331" on="1"/>
        <pt x="382" y="331" on="0"/>
        <pt x="442" y="334" on="1"/>
        <pt x="448" y="334" on="0"/>
        <pt x="448" y="321" on="0"/>
        <pt x="428" y="303" on="0"/>
        <pt x="410" y="300" on="1"/>
        <pt x="152" y="300" on="1"/>
        <pt x="140" y="185" on="0"/>
        <pt x="140" y="63" on="0"/>
        <pt x="145" y="31" on="1"/>
        <pt x="405" y="30" on="1"/>
        <pt x="469" y="30" on="0"/>
        <pt x="520" y="46" on="1"/>
        <pt x="521" y="46" on="1"/>
        <pt x="525" y="46" on="0"/>
        <pt x="525" y="24" on="0"/>
        <pt x="509" y="0" on="0"/>
        <pt x="495" y="0" on="1"/>
        <pt x="356" y="-1" on="1"/>
        <pt x="55" y="-1" on="0"/>
        <pt x="55" y="5" on="1"/>
        <pt x="55" y="13" on="0"/>
        <pt x="79" y="37" on="0"/>
        <pt x="90" y="39" on="1"/>
        <pt x="89" y="46" on="0"/>
        <pt x="89" y="145" on="0"/>
        <pt x="107" y="300" on="1"/>
        <pt x="94" y="300" on="1"/>
        <pt x="84" y="300" on="0"/>
        <pt x="84" y="314" on="0"/>
        <pt x="100" y="330" on="0"/>
        <pt x="110" y="331" on="1"/>
        <pt x="133" y="521" on="0"/>
        <pt x="157" y="610" on="1"/>
        <pt x="104" y="610" on="1"/>
        <pt x="82" y="611" on="0"/>
        <pt x="82" y="618" on="1"/>
        <pt x="82" y="623" on="0"/>
        <pt x="108" y="634" on="0"/>
        <pt x="124" y="634" on="1"/>
        <pt x="163" y="634" on="1"/>
        <pt x="169" y="667" on="0"/>
        <pt x="197" y="692" on="0"/>
        <pt x="239" y="692" on="0"/>
        <pt x="239" y="673" on="0"/>
        <pt x="220" y="635" on="1"/>
        <pt x="279" y="634" on="1"/>
      </contour>
      <contour>
        <pt x="462" y="830" on="1"/>
        <pt x="462" y="820" on="0"/>
        <pt x="450" y="776" on="0"/>
        <pt x="450" y="775" on="1"/>
        <pt x="450" y="761" on="0"/>
        <pt x="423" y="754" on="1"/>
        <pt x="405" y="754" on="0"/>
        <pt x="405" y="799" on="0"/>
        <pt x="439" y="833" on="0"/>
        <pt x="456" y="833" on="1"/>
        <pt x="460" y="833" on="0"/>
      </contour>
      <contour>
        <pt x="334" y="830" on="1"/>
        <pt x="334" y="820" on="0"/>
        <pt x="322" y="776" on="0"/>
        <pt x="322" y="775" on="1"/>
        <pt x="322" y="761" on="0"/>
        <pt x="295" y="754" on="1"/>
        <pt x="278" y="754" on="0"/>
        <pt x="278" y="799" on="0"/>
        <pt x="312" y="833" on="0"/>
        <pt x="329" y="833" on="1"/>
        <pt x="332" y="833" on="0"/>
      </contour>
    </TTGlyph>
    <TTGlyph name="Egrave" xMin="55" yMin="-1" xMax="530" yMax="850">
      <contour>
        <pt x="344" y="634" on="1"/>
        <pt x="515" y="635" on="1"/>
        <pt x="530" y="635" on="0"/>
        <pt x="530" y="620" on="1"/>
        <pt x="530" y="609" on="0"/>
        <pt x="509" y="576" on="0"/>
        <pt x="495" y="576" on="0"/>
        <pt x="476" y="601" on="0"/>
        <pt x="448" y="604" on="0"/>
        <pt x="380" y="604" on="1"/>
        <pt x="333" y="603" on="1"/>
        <pt x="328" y="603" on="0"/>
        <pt x="210" y="605" on="1"/>
        <pt x="176" y="489" on="0"/>
        <pt x="156" y="331" on="1"/>
        <pt x="382" y="331" on="0"/>
        <pt x="442" y="334" on="1"/>
        <pt x="448" y="334" on="0"/>
        <pt x="448" y="321" on="0"/>
        <pt x="428" y="303" on="0"/>
        <pt x="410" y="300" on="1"/>
        <pt x="152" y="300" on="1"/>
        <pt x="140" y="185" on="0"/>
        <pt x="140" y="63" on="0"/>
        <pt x="145" y="31" on="1"/>
        <pt x="405" y="30" on="1"/>
        <pt x="469" y="30" on="0"/>
        <pt x="520" y="46" on="1"/>
        <pt x="521" y="46" on="1"/>
        <pt x="525" y="46" on="0"/>
        <pt x="525" y="24" on="0"/>
        <pt x="509" y="0" on="0"/>
        <pt x="495" y="0" on="1"/>
        <pt x="356" y="-1" on="1"/>
        <pt x="55" y="-1" on="0"/>
        <pt x="55" y="5" on="1"/>
        <pt x="55" y="13" on="0"/>
        <pt x="79" y="37" on="0"/>
        <pt x="90" y="39" on="1"/>
        <pt x="89" y="46" on="0"/>
        <pt x="89" y="145" on="0"/>
        <pt x="107" y="300" on="1"/>
        <pt x="94" y="300" on="1"/>
        <pt x="84" y="300" on="0"/>
        <pt x="84" y="314" on="0"/>
        <pt x="100" y="330" on="0"/>
        <pt x="110" y="331" on="1"/>
        <pt x="133" y="521" on="0"/>
        <pt x="157" y="610" on="1"/>
        <pt x="104" y="610" on="1"/>
        <pt x="82" y="611" on="0"/>
        <pt x="82" y="618" on="1"/>
        <pt x="82" y="623" on="0"/>
        <pt x="108" y="634" on="0"/>
        <pt x="124" y="634" on="1"/>
        <pt x="163" y="634" on="1"/>
        <pt x="169" y="667" on="0"/>
        <pt x="197" y="692" on="0"/>
        <pt x="239" y="692" on="0"/>
        <pt x="239" y="673" on="0"/>
        <pt x="220" y="635" on="1"/>
        <pt x="279" y="634" on="1"/>
      </contour>
      <contour>
        <pt x="428" y="726" on="0"/>
        <pt x="422" y="726" on="0"/>
        <pt x="269" y="802" on="0"/>
        <pt x="251" y="812" on="0"/>
        <pt x="251" y="833" on="0"/>
        <pt x="263" y="850" on="0"/>
        <pt x="276" y="850" on="0"/>
        <pt x="282" y="847" on="1"/>
        <pt x="337" y="810" on="0"/>
        <pt x="428" y="738" on="0"/>
        <pt x="428" y="729" on="1"/>
      </contour>
    </TTGlyph>
    <TTGlyph name="Eth" xMin="12" yMin="-9" xMax="725" yMax="692">
      <contour>
        <pt x="148" y="603" on="1"/>
        <pt x="96" y="597" on="1"/>
        <pt x="89" y="597" on="0"/>
        <pt x="89" y="618" on="0"/>
        <pt x="109" y="640" on="0"/>
        <pt x="125" y="640" on="1"/>
        <pt x="164" y="640" on="1"/>
        <pt x="169" y="667" on="0"/>
        <pt x="193" y="692" on="0"/>
        <pt x="233" y="692" on="0"/>
        <pt x="233" y="681" on="1"/>
        <pt x="225" y="663" on="0"/>
        <pt x="218" y="643" on="1"/>
        <pt x="232" y="644" on="0"/>
        <pt x="324" y="644" on="0"/>
        <pt x="449" y="623" on="0"/>
        <pt x="572" y="576" on="0"/>
        <pt x="667" y="508" on="0"/>
        <pt x="725" y="406" on="0"/>
        <pt x="725" y="288" on="0"/>
        <pt x="673" y="185" on="0"/>
        <pt x="586" y="110" on="0"/>
        <pt x="477" y="49" on="0"/>
        <pt x="418" y="30" on="1"/>
        <pt x="297" y="-9" on="0"/>
        <pt x="204" y="-9" on="1"/>
        <pt x="153" y="-9" on="0"/>
        <pt x="93" y="15" on="0"/>
        <pt x="93" y="33" on="1"/>
        <pt x="93" y="41" on="0"/>
        <pt x="100" y="41" on="1"/>
        <pt x="103" y="41" on="0"/>
        <pt x="106" y="40" on="1"/>
        <pt x="98" y="76" on="0"/>
        <pt x="98" y="183" on="0"/>
        <pt x="101" y="228" on="1"/>
        <pt x="82" y="227" on="0"/>
        <pt x="58" y="227" on="1"/>
        <pt x="12" y="227" on="0"/>
        <pt x="12" y="247" on="1"/>
        <pt x="12" y="264" on="0"/>
        <pt x="55" y="264" on="1"/>
        <pt x="75" y="264" on="0"/>
        <pt x="103" y="262" on="1"/>
        <pt x="119" y="458" on="0"/>
        <pt x="156" y="603" on="1"/>
      </contour>
      <contour>
        <pt x="144" y="231" on="1"/>
        <pt x="142" y="187" on="0"/>
        <pt x="142" y="145" on="0"/>
        <pt x="146" y="57" on="0"/>
        <pt x="181" y="18" on="0"/>
        <pt x="234" y="18" on="1"/>
        <pt x="326" y="18" on="0"/>
        <pt x="561" y="128" on="0"/>
        <pt x="614" y="197" on="1"/>
        <pt x="688" y="292" on="0"/>
        <pt x="688" y="377" on="1"/>
        <pt x="688" y="435" on="0"/>
        <pt x="610" y="525" on="0"/>
        <pt x="546" y="552" on="1"/>
        <pt x="417" y="606" on="0"/>
        <pt x="247" y="606" on="1"/>
        <pt x="222" y="606" on="0"/>
        <pt x="208" y="605" on="1"/>
        <pt x="158" y="434" on="0"/>
        <pt x="146" y="262" on="1"/>
        <pt x="263" y="262" on="0"/>
        <pt x="263" y="256" on="1"/>
        <pt x="263" y="243" on="0"/>
      </contour>
    </TTGlyph>
    <TTGlyph name="Euro" xMin="12" yMin="-16" xMax="648" yMax="658">
      <contour>
        <pt x="178" y="245" on="1"/>
        <pt x="328" y="242" on="1"/>
        <pt x="402" y="242" on="0"/>
        <pt x="423" y="230" on="1"/>
        <pt x="428" y="227" on="0"/>
        <pt x="428" y="225" on="1"/>
        <pt x="428" y="216" on="0"/>
        <pt x="391" y="216" on="1"/>
        <pt x="180" y="216" on="1"/>
        <pt x="191" y="122" on="0"/>
        <pt x="300" y="7" on="0"/>
        <pt x="396" y="7" on="1"/>
        <pt x="446" y="7" on="0"/>
        <pt x="534" y="35" on="0"/>
        <pt x="563" y="57" on="1"/>
        <pt x="615" y="96" on="0"/>
        <pt x="638" y="132" on="1"/>
        <pt x="640" y="137" on="0"/>
        <pt x="647" y="137" on="0"/>
        <pt x="647" y="127" on="1"/>
        <pt x="647" y="88" on="0"/>
        <pt x="593" y="29" on="0"/>
        <pt x="552" y="14" on="1"/>
        <pt x="473" y="-16" on="0"/>
        <pt x="401" y="-16" on="1"/>
        <pt x="283" y="-16" on="0"/>
        <pt x="145" y="106" on="0"/>
        <pt x="131" y="216" on="1"/>
        <pt x="24" y="216" on="1"/>
        <pt x="12" y="216" on="0"/>
        <pt x="12" y="227" on="1"/>
        <pt x="12" y="233" on="0"/>
        <pt x="20" y="245" on="0"/>
        <pt x="25" y="245" on="1"/>
        <pt x="40" y="245" on="1"/>
        <pt x="105" y="246" on="1"/>
        <pt x="128" y="246" on="1"/>
        <pt x="128" y="272" on="1"/>
        <pt x="128" y="325" on="0"/>
        <pt x="138" y="372" on="1"/>
        <pt x="66" y="372" on="1"/>
        <pt x="54" y="372" on="0"/>
        <pt x="54" y="383" on="1"/>
        <pt x="54" y="389" on="0"/>
        <pt x="62" y="401" on="0"/>
        <pt x="67" y="401" on="1"/>
        <pt x="82" y="401" on="1"/>
        <pt x="82" y="401" on="0"/>
        <pt x="146" y="402" on="1"/>
        <pt x="178" y="516" on="0"/>
        <pt x="345" y="658" on="0"/>
        <pt x="465" y="658" on="1"/>
        <pt x="648" y="658" on="0"/>
        <pt x="648" y="578" on="1"/>
        <pt x="648" y="553" on="0"/>
        <pt x="644" y="553" on="1"/>
        <pt x="642" y="555" on="1"/>
        <pt x="632" y="571" on="0"/>
        <pt x="599" y="601" on="0"/>
        <pt x="518" y="633" on="0"/>
        <pt x="467" y="633" on="1"/>
        <pt x="369" y="633" on="0"/>
        <pt x="227" y="504" on="0"/>
        <pt x="197" y="402" on="1"/>
        <pt x="409" y="399" on="0"/>
        <pt x="469" y="389" on="0"/>
        <pt x="470" y="381" on="1"/>
        <pt x="470" y="372" on="0"/>
        <pt x="433" y="372" on="1"/>
        <pt x="189" y="372" on="1"/>
        <pt x="178" y="321" on="0"/>
        <pt x="178" y="261" on="1"/>
      </contour>
    </TTGlyph>
    <TTGlyph name="F" xMin="80" yMin="-8" xMax="535" yMax="692">
      <contour>
        <pt x="385" y="619" on="1"/>
        <pt x="338" y="618" on="1"/>
        <pt x="333" y="618" on="0"/>
        <pt x="215" y="620" on="1"/>
        <pt x="183" y="521" on="0"/>
        <pt x="158" y="346" on="1"/>
        <pt x="386" y="346" on="0"/>
        <pt x="447" y="349" on="1"/>
        <pt x="453" y="349" on="0"/>
        <pt x="453" y="336" on="0"/>
        <pt x="433" y="318" on="0"/>
        <pt x="415" y="315" on="1"/>
        <pt x="154" y="315" on="1"/>
        <pt x="129" y="113" on="0"/>
        <pt x="129" y="64" on="1"/>
        <pt x="137" y="63" on="0"/>
        <pt x="137" y="43" on="1"/>
        <pt x="137" y="-8" on="0"/>
        <pt x="104" y="-8" on="1"/>
        <pt x="80" y="-8" on="0"/>
        <pt x="80" y="14" on="1"/>
        <pt x="82" y="33" on="0"/>
        <pt x="111" y="315" on="1"/>
        <pt x="99" y="315" on="1"/>
        <pt x="89" y="315" on="0"/>
        <pt x="89" y="329" on="0"/>
        <pt x="105" y="345" on="0"/>
        <pt x="115" y="346" on="1"/>
        <pt x="134" y="507" on="0"/>
        <pt x="162" y="625" on="1"/>
        <pt x="109" y="625" on="1"/>
        <pt x="87" y="626" on="0"/>
        <pt x="87" y="633" on="1"/>
        <pt x="87" y="638" on="0"/>
        <pt x="113" y="649" on="0"/>
        <pt x="129" y="649" on="1"/>
        <pt x="168" y="649" on="1"/>
        <pt x="176" y="692" on="0"/>
        <pt x="224" y="692" on="1"/>
        <pt x="239" y="692" on="0"/>
        <pt x="239" y="682" on="1"/>
        <pt x="239" y="678" on="0"/>
        <pt x="225" y="650" on="1"/>
        <pt x="242" y="650" on="1"/>
        <pt x="349" y="649" on="1"/>
        <pt x="520" y="650" on="1"/>
        <pt x="535" y="650" on="0"/>
        <pt x="535" y="635" on="1"/>
        <pt x="535" y="624" on="0"/>
        <pt x="514" y="591" on="0"/>
        <pt x="500" y="591" on="0"/>
        <pt x="481" y="616" on="0"/>
        <pt x="453" y="619" on="0"/>
      </contour>
    </TTGlyph>
    <TTGlyph name="G" xMin="59" yMin="-20" xMax="743" yMax="658">
      <contour>
        <pt x="654" y="61" on="1"/>
        <pt x="657" y="22" on="1"/>
        <pt x="657" y="4" on="0"/>
        <pt x="637" y="-20" on="0"/>
        <pt x="625" y="-20" on="1"/>
        <pt x="606" y="-20" on="0"/>
        <pt x="606" y="31" on="0"/>
        <pt x="618" y="97" on="1"/>
        <pt x="577" y="39" on="0"/>
        <pt x="428" y="-16" on="0"/>
        <pt x="348" y="-16" on="1"/>
        <pt x="209" y="-16" on="0"/>
        <pt x="59" y="139" on="0"/>
        <pt x="59" y="273" on="1"/>
        <pt x="59" y="435" on="0"/>
        <pt x="282" y="658" on="0"/>
        <pt x="670" y="658" on="0"/>
        <pt x="670" y="536" on="1"/>
        <pt x="670" y="506" on="0"/>
        <pt x="645" y="474" on="0"/>
        <pt x="607" y="474" on="0"/>
        <pt x="607" y="485" on="1"/>
        <pt x="607" y="491" on="0"/>
        <pt x="627" y="536" on="0"/>
        <pt x="627" y="547" on="1"/>
        <pt x="627" y="589" on="0"/>
        <pt x="542" y="633" on="0"/>
        <pt x="393" y="633" on="0"/>
        <pt x="250" y="572" on="0"/>
        <pt x="158" y="471" on="0"/>
        <pt x="108" y="341" on="0"/>
        <pt x="108" y="271" on="1"/>
        <pt x="108" y="160" on="0"/>
        <pt x="227" y="7" on="0"/>
        <pt x="339" y="7" on="1"/>
        <pt x="400" y="7" on="0"/>
        <pt x="505" y="39" on="0"/>
        <pt x="540" y="65" on="1"/>
        <pt x="608" y="115" on="0"/>
        <pt x="632" y="166" on="1"/>
        <pt x="637" y="189" on="0"/>
        <pt x="646" y="248" on="1"/>
        <pt x="415" y="248" on="1"/>
        <pt x="405" y="248" on="0"/>
        <pt x="405" y="262" on="0"/>
        <pt x="422" y="279" on="0"/>
        <pt x="432" y="279" on="1"/>
        <pt x="662" y="279" on="0"/>
        <pt x="737" y="282" on="1"/>
        <pt x="743" y="282" on="0"/>
        <pt x="743" y="269" on="0"/>
        <pt x="723" y="251" on="0"/>
        <pt x="705" y="248" on="1"/>
        <pt x="685" y="248" on="1"/>
        <pt x="679" y="230" on="1"/>
        <pt x="663" y="183" on="0"/>
        <pt x="660" y="158" on="1"/>
        <pt x="654" y="111" on="0"/>
      </contour>
    </TTGlyph>
    <TTGlyph name="H" xMin="80" yMin="-8" xMax="625" yMax="657">
      <contour>
        <pt x="546" y="333" on="1"/>
        <pt x="569" y="334" on="1"/>
        <pt x="575" y="334" on="0"/>
        <pt x="575" y="321" on="0"/>
        <pt x="558" y="304" on="0"/>
        <pt x="542" y="301" on="1"/>
        <pt x="522" y="142" on="0"/>
        <pt x="522" y="47" on="1"/>
        <pt x="522" y="47" on="0"/>
        <pt x="529" y="21" on="1"/>
        <pt x="529" y="8" on="0"/>
        <pt x="510" y="-8" on="0"/>
        <pt x="498" y="-8" on="1"/>
        <pt x="474" y="-8" on="0"/>
        <pt x="474" y="14" on="1"/>
        <pt x="490" y="189" on="0"/>
        <pt x="502" y="300" on="1"/>
        <pt x="143" y="300" on="1"/>
        <pt x="121" y="153" on="0"/>
        <pt x="121" y="56" on="1"/>
        <pt x="121" y="45" on="0"/>
        <pt x="128" y="24" on="0"/>
        <pt x="128" y="7" on="0"/>
        <pt x="111" y="-8" on="0"/>
        <pt x="101" y="-8" on="1"/>
        <pt x="80" y="-8" on="0"/>
        <pt x="80" y="12" on="1"/>
        <pt x="80" y="100" on="0"/>
        <pt x="104" y="300" on="1"/>
        <pt x="94" y="300" on="1"/>
        <pt x="84" y="300" on="0"/>
        <pt x="84" y="314" on="0"/>
        <pt x="98" y="330" on="0"/>
        <pt x="107" y="331" on="1"/>
        <pt x="121" y="444" on="0"/>
        <pt x="143" y="551" on="0"/>
        <pt x="150" y="588" on="0"/>
        <pt x="154" y="602" on="0"/>
        <pt x="165" y="632" on="0"/>
        <pt x="178" y="645" on="0"/>
        <pt x="201" y="657" on="0"/>
        <pt x="231" y="657" on="0"/>
        <pt x="231" y="647" on="1"/>
        <pt x="231" y="645" on="1"/>
        <pt x="181" y="531" on="0"/>
        <pt x="147" y="331" on="1"/>
        <pt x="294" y="331" on="0"/>
        <pt x="506" y="333" on="1"/>
        <pt x="520" y="451" on="0"/>
        <pt x="535" y="539" on="1"/>
        <pt x="535" y="569" on="1"/>
        <pt x="535" y="606" on="0"/>
        <pt x="572" y="657" on="0"/>
        <pt x="610" y="657" on="1"/>
        <pt x="625" y="657" on="0"/>
        <pt x="625" y="647" on="1"/>
        <pt x="625" y="645" on="1"/>
        <pt x="573" y="527" on="0"/>
      </contour>
    </TTGlyph>
    <TTGlyph name="I" xMin="46" yMin="-8" xMax="467" yMax="671">
      <contour>
        <pt x="253" y="598" on="1"/>
        <pt x="255" y="618" on="1"/>
        <pt x="139" y="618" on="1"/>
        <pt x="129" y="618" on="0"/>
        <pt x="129" y="632" on="0"/>
        <pt x="146" y="649" on="0"/>
        <pt x="156" y="649" on="1"/>
        <pt x="265" y="649" on="1"/>
        <pt x="274" y="671" on="0"/>
        <pt x="323" y="671" on="1"/>
        <pt x="338" y="671" on="0"/>
        <pt x="338" y="661" on="1"/>
        <pt x="338" y="659" on="1"/>
        <pt x="332" y="650" on="1"/>
        <pt x="419" y="650" on="0"/>
        <pt x="461" y="652" on="1"/>
        <pt x="467" y="652" on="0"/>
        <pt x="467" y="639" on="0"/>
        <pt x="447" y="621" on="0"/>
        <pt x="429" y="618" on="1"/>
        <pt x="320" y="618" on="1"/>
        <pt x="320" y="616" on="1"/>
        <pt x="282" y="509" on="0"/>
        <pt x="231" y="129" on="0"/>
        <pt x="231" y="47" on="1"/>
        <pt x="231" y="36" on="0"/>
        <pt x="234" y="31" on="1"/>
        <pt x="354" y="33" on="0"/>
        <pt x="378" y="34" on="1"/>
        <pt x="384" y="34" on="0"/>
        <pt x="384" y="21" on="0"/>
        <pt x="364" y="3" on="0"/>
        <pt x="346" y="0" on="1"/>
        <pt x="228" y="0" on="1"/>
        <pt x="218" y="-8" on="0"/>
        <pt x="193" y="-8" on="0"/>
        <pt x="187" y="0" on="1"/>
        <pt x="56" y="0" on="1"/>
        <pt x="46" y="0" on="0"/>
        <pt x="46" y="14" on="0"/>
        <pt x="63" y="31" on="0"/>
        <pt x="73" y="31" on="1"/>
        <pt x="184" y="31" on="1"/>
        <pt x="217" y="382" on="0"/>
        <pt x="253" y="568" on="1"/>
      </contour>
    </TTGlyph>
    <TTGlyph name="Iacute" xMin="46" yMin="-8" xMax="466" yMax="850">
      <contour>
        <pt x="252" y="604" on="1"/>
        <pt x="254" y="624" on="1"/>
        <pt x="138" y="624" on="1"/>
        <pt x="128" y="624" on="0"/>
        <pt x="128" y="638" on="0"/>
        <pt x="145" y="655" on="0"/>
        <pt x="155" y="655" on="1"/>
        <pt x="264" y="655" on="1"/>
        <pt x="281" y="692" on="0"/>
        <pt x="327" y="692" on="1"/>
        <pt x="342" y="692" on="0"/>
        <pt x="342" y="682" on="1"/>
        <pt x="342" y="680" on="1"/>
        <pt x="331" y="656" on="1"/>
        <pt x="418" y="656" on="0"/>
        <pt x="460" y="658" on="1"/>
        <pt x="466" y="658" on="0"/>
        <pt x="466" y="645" on="0"/>
        <pt x="446" y="627" on="0"/>
        <pt x="428" y="624" on="1"/>
        <pt x="319" y="624" on="1"/>
        <pt x="319" y="622" on="1"/>
        <pt x="281" y="516" on="0"/>
        <pt x="231" y="130" on="0"/>
        <pt x="231" y="47" on="1"/>
        <pt x="231" y="36" on="0"/>
        <pt x="234" y="31" on="1"/>
        <pt x="354" y="33" on="0"/>
        <pt x="378" y="34" on="1"/>
        <pt x="384" y="34" on="0"/>
        <pt x="384" y="21" on="0"/>
        <pt x="364" y="3" on="0"/>
        <pt x="346" y="0" on="1"/>
        <pt x="228" y="0" on="1"/>
        <pt x="218" y="-8" on="0"/>
        <pt x="193" y="-8" on="0"/>
        <pt x="187" y="0" on="1"/>
        <pt x="56" y="0" on="1"/>
        <pt x="46" y="0" on="0"/>
        <pt x="46" y="14" on="0"/>
        <pt x="63" y="31" on="0"/>
        <pt x="73" y="31" on="1"/>
        <pt x="184" y="31" on="1"/>
        <pt x="219" y="404" on="0"/>
        <pt x="252" y="574" on="1"/>
      </contour>
      <contour>
        <pt x="419" y="833" on="0"/>
        <pt x="419" y="813" on="0"/>
        <pt x="401" y="802" on="0"/>
        <pt x="248" y="726" on="0"/>
        <pt x="241" y="726" on="0"/>
        <pt x="241" y="729" on="1"/>
        <pt x="241" y="738" on="0"/>
        <pt x="286" y="774" on="1"/>
        <pt x="383" y="850" on="0"/>
        <pt x="398" y="850" on="1"/>
        <pt x="407" y="850" on="0"/>
      </contour>
    </TTGlyph>
    <TTGlyph name="Icircumflex" xMin="46" yMin="-8" xMax="466" yMax="823">
      <contour>
        <pt x="252" y="604" on="1"/>
        <pt x="254" y="624" on="1"/>
        <pt x="138" y="624" on="1"/>
        <pt x="128" y="624" on="0"/>
        <pt x="128" y="638" on="0"/>
        <pt x="145" y="655" on="0"/>
        <pt x="155" y="655" on="1"/>
        <pt x="264" y="655" on="1"/>
        <pt x="281" y="692" on="0"/>
        <pt x="327" y="692" on="1"/>
        <pt x="342" y="692" on="0"/>
        <pt x="342" y="682" on="1"/>
        <pt x="342" y="680" on="1"/>
        <pt x="331" y="656" on="1"/>
        <pt x="418" y="656" on="0"/>
        <pt x="460" y="658" on="1"/>
        <pt x="466" y="658" on="0"/>
        <pt x="466" y="645" on="0"/>
        <pt x="446" y="627" on="0"/>
        <pt x="428" y="624" on="1"/>
        <pt x="319" y="624" on="1"/>
        <pt x="319" y="622" on="1"/>
        <pt x="281" y="516" on="0"/>
        <pt x="231" y="130" on="0"/>
        <pt x="231" y="47" on="1"/>
        <pt x="231" y="36" on="0"/>
        <pt x="234" y="31" on="1"/>
        <pt x="354" y="33" on="0"/>
        <pt x="378" y="34" on="1"/>
        <pt x="384" y="34" on="0"/>
        <pt x="384" y="21" on="0"/>
        <pt x="364" y="3" on="0"/>
        <pt x="346" y="0" on="1"/>
        <pt x="228" y="0" on="1"/>
        <pt x="218" y="-8" on="0"/>
        <pt x="193" y="-8" on="0"/>
        <pt x="187" y="0" on="1"/>
        <pt x="56" y="0" on="1"/>
        <pt x="46" y="0" on="0"/>
        <pt x="46" y="14" on="0"/>
        <pt x="63" y="31" on="0"/>
        <pt x="73" y="31" on="1"/>
        <pt x="184" y="31" on="1"/>
        <pt x="219" y="404" on="0"/>
        <pt x="252" y="574" on="1"/>
      </contour>
      <contour>
        <pt x="338" y="821" on="0"/>
        <pt x="396" y="730" on="0"/>
        <pt x="406" y="711" on="0"/>
        <pt x="406" y="698" on="0"/>
        <pt x="397" y="698" on="0"/>
        <pt x="330" y="771" on="0"/>
        <pt x="320" y="786" on="1"/>
        <pt x="303" y="771" on="0"/>
        <pt x="209" y="698" on="0"/>
        <pt x="204" y="698" on="0"/>
        <pt x="204" y="705" on="0"/>
        <pt x="218" y="722" on="0"/>
        <pt x="324" y="821" on="0"/>
        <pt x="333" y="823" on="1"/>
      </contour>
    </TTGlyph>
    <TTGlyph name="Idieresis" xMin="46" yMin="-8" xMax="466" yMax="833">
      <contour>
        <pt x="252" y="604" on="1"/>
        <pt x="254" y="624" on="1"/>
        <pt x="138" y="624" on="1"/>
        <pt x="128" y="624" on="0"/>
        <pt x="128" y="638" on="0"/>
        <pt x="145" y="655" on="0"/>
        <pt x="155" y="655" on="1"/>
        <pt x="264" y="655" on="1"/>
        <pt x="281" y="692" on="0"/>
        <pt x="327" y="692" on="1"/>
        <pt x="342" y="692" on="0"/>
        <pt x="342" y="682" on="1"/>
        <pt x="342" y="680" on="1"/>
        <pt x="331" y="656" on="1"/>
        <pt x="418" y="656" on="0"/>
        <pt x="460" y="658" on="1"/>
        <pt x="466" y="658" on="0"/>
        <pt x="466" y="645" on="0"/>
        <pt x="446" y="627" on="0"/>
        <pt x="428" y="624" on="1"/>
        <pt x="319" y="624" on="1"/>
        <pt x="319" y="622" on="1"/>
        <pt x="281" y="516" on="0"/>
        <pt x="231" y="130" on="0"/>
        <pt x="231" y="47" on="1"/>
        <pt x="231" y="36" on="0"/>
        <pt x="234" y="31" on="1"/>
        <pt x="354" y="33" on="0"/>
        <pt x="378" y="34" on="1"/>
        <pt x="384" y="34" on="0"/>
        <pt x="384" y="21" on="0"/>
        <pt x="364" y="3" on="0"/>
        <pt x="346" y="0" on="1"/>
        <pt x="228" y="0" on="1"/>
        <pt x="218" y="-8" on="0"/>
        <pt x="193" y="-8" on="0"/>
        <pt x="187" y="0" on="1"/>
        <pt x="56" y="0" on="1"/>
        <pt x="46" y="0" on="0"/>
        <pt x="46" y="14" on="0"/>
        <pt x="63" y="31" on="0"/>
        <pt x="73" y="31" on="1"/>
        <pt x="184" y="31" on="1"/>
        <pt x="219" y="404" on="0"/>
        <pt x="252" y="574" on="1"/>
      </contour>
      <contour>
        <pt x="417" y="830" on="1"/>
        <pt x="417" y="820" on="0"/>
        <pt x="405" y="776" on="0"/>
        <pt x="405" y="775" on="1"/>
        <pt x="405" y="761" on="0"/>
        <pt x="378" y="754" on="1"/>
        <pt x="360" y="754" on="0"/>
        <pt x="360" y="799" on="0"/>
        <pt x="394" y="833" on="0"/>
        <pt x="411" y="833" on="1"/>
        <pt x="416" y="833" on="0"/>
      </contour>
      <contour>
        <pt x="289" y="830" on="1"/>
        <pt x="289" y="820" on="0"/>
        <pt x="277" y="776" on="0"/>
        <pt x="277" y="775" on="1"/>
        <pt x="277" y="761" on="0"/>
        <pt x="250" y="754" on="1"/>
        <pt x="233" y="754" on="0"/>
        <pt x="233" y="799" on="0"/>
        <pt x="267" y="833" on="0"/>
        <pt x="284" y="833" on="1"/>
        <pt x="288" y="833" on="0"/>
      </contour>
    </TTGlyph>
    <TTGlyph name="Igrave" xMin="46" yMin="-8" xMax="466" yMax="850">
      <contour>
        <pt x="252" y="604" on="1"/>
        <pt x="254" y="624" on="1"/>
        <pt x="138" y="624" on="1"/>
        <pt x="128" y="624" on="0"/>
        <pt x="128" y="638" on="0"/>
        <pt x="145" y="655" on="0"/>
        <pt x="155" y="655" on="1"/>
        <pt x="264" y="655" on="1"/>
        <pt x="281" y="692" on="0"/>
        <pt x="327" y="692" on="1"/>
        <pt x="342" y="692" on="0"/>
        <pt x="342" y="682" on="1"/>
        <pt x="342" y="680" on="1"/>
        <pt x="331" y="656" on="1"/>
        <pt x="418" y="656" on="0"/>
        <pt x="460" y="658" on="1"/>
        <pt x="466" y="658" on="0"/>
        <pt x="466" y="645" on="0"/>
        <pt x="446" y="627" on="0"/>
        <pt x="428" y="624" on="1"/>
        <pt x="319" y="624" on="1"/>
        <pt x="319" y="622" on="1"/>
        <pt x="281" y="516" on="0"/>
        <pt x="231" y="130" on="0"/>
        <pt x="231" y="47" on="1"/>
        <pt x="231" y="36" on="0"/>
        <pt x="234" y="31" on="1"/>
        <pt x="354" y="33" on="0"/>
        <pt x="378" y="34" on="1"/>
        <pt x="384" y="34" on="0"/>
        <pt x="384" y="21" on="0"/>
        <pt x="364" y="3" on="0"/>
        <pt x="346" y="0" on="1"/>
        <pt x="228" y="0" on="1"/>
        <pt x="218" y="-8" on="0"/>
        <pt x="193" y="-8" on="0"/>
        <pt x="187" y="0" on="1"/>
        <pt x="56" y="0" on="1"/>
        <pt x="46" y="0" on="0"/>
        <pt x="46" y="14" on="0"/>
        <pt x="63" y="31" on="0"/>
        <pt x="73" y="31" on="1"/>
        <pt x="184" y="31" on="1"/>
        <pt x="219" y="404" on="0"/>
        <pt x="252" y="574" on="1"/>
      </contour>
      <contour>
        <pt x="391" y="726" on="0"/>
        <pt x="385" y="726" on="0"/>
        <pt x="232" y="802" on="0"/>
        <pt x="214" y="812" on="0"/>
        <pt x="214" y="833" on="0"/>
        <pt x="226" y="850" on="0"/>
        <pt x="239" y="850" on="0"/>
        <pt x="245" y="847" on="1"/>
        <pt x="300" y="810" on="0"/>
        <pt x="391" y="738" on="0"/>
        <pt x="391" y="729" on="1"/>
      </contour>
    </TTGlyph>
    <TTGlyph name="J" xMin="39" yMin="-33" xMax="501" yMax="677">
      <contour>
        <pt x="253" y="108" on="1"/>
        <pt x="297" y="366" on="0"/>
        <pt x="315" y="561" on="1"/>
        <pt x="313" y="562" on="0"/>
        <pt x="313" y="580" on="0"/>
        <pt x="319" y="618" on="1"/>
        <pt x="199" y="618" on="1"/>
        <pt x="189" y="618" on="0"/>
        <pt x="189" y="632" on="0"/>
        <pt x="206" y="649" on="0"/>
        <pt x="216" y="649" on="1"/>
        <pt x="330" y="649" on="1"/>
        <pt x="345" y="677" on="0"/>
        <pt x="379" y="677" on="1"/>
        <pt x="394" y="677" on="0"/>
        <pt x="394" y="667" on="1"/>
        <pt x="394" y="665" on="1"/>
        <pt x="387" y="650" on="1"/>
        <pt x="457" y="650" on="0"/>
        <pt x="495" y="652" on="1"/>
        <pt x="501" y="652" on="0"/>
        <pt x="501" y="639" on="0"/>
        <pt x="481" y="621" on="0"/>
        <pt x="463" y="618" on="1"/>
        <pt x="374" y="618" on="1"/>
        <pt x="371" y="607" on="1"/>
        <pt x="336" y="457" on="0"/>
        <pt x="322" y="290" on="1"/>
        <pt x="310" y="161" on="0"/>
        <pt x="296" y="99" on="0"/>
        <pt x="283" y="43" on="0"/>
        <pt x="266" y="12" on="0"/>
        <pt x="256" y="-4" on="1"/>
        <pt x="236" y="-33" on="0"/>
        <pt x="202" y="-33" on="1"/>
        <pt x="151" y="-33" on="0"/>
        <pt x="39" y="102" on="0"/>
        <pt x="39" y="148" on="1"/>
        <pt x="39" y="167" on="0"/>
        <pt x="48" y="167" on="1"/>
        <pt x="51" y="167" on="0"/>
        <pt x="74" y="116" on="0"/>
        <pt x="105" y="56" on="0"/>
        <pt x="158" y="5" on="0"/>
        <pt x="217" y="5" on="0"/>
        <pt x="245" y="62" on="0"/>
      </contour>
    </TTGlyph>
    <TTGlyph name="K" xMin="73" yMin="-26" xMax="659" yMax="687">
      <contour>
        <pt x="564" y="110" on="1"/>
        <pt x="561" y="155" on="1"/>
        <pt x="561" y="171" on="0"/>
        <pt x="570" y="171" on="1"/>
        <pt x="590" y="171" on="0"/>
        <pt x="590" y="43" on="0"/>
        <pt x="531" y="-26" on="0"/>
        <pt x="497" y="-26" on="1"/>
        <pt x="445" y="-26" on="0"/>
        <pt x="258" y="132" on="0"/>
        <pt x="164" y="240" on="1"/>
        <pt x="159" y="244" on="0"/>
        <pt x="147" y="256" on="1"/>
        <pt x="132" y="129" on="0"/>
        <pt x="132" y="47" on="1"/>
        <pt x="139" y="21" on="1"/>
        <pt x="139" y="8" on="0"/>
        <pt x="120" y="-8" on="0"/>
        <pt x="108" y="-8" on="1"/>
        <pt x="84" y="-8" on="0"/>
        <pt x="84" y="14" on="1"/>
        <pt x="105" y="241" on="0"/>
        <pt x="111" y="293" on="1"/>
        <pt x="73" y="335" on="0"/>
        <pt x="73" y="351" on="0"/>
        <pt x="80" y="351" on="1"/>
        <pt x="87" y="344" on="0"/>
        <pt x="109" y="344" on="1"/>
        <pt x="117" y="344" on="1"/>
        <pt x="130" y="453" on="0"/>
        <pt x="145" y="539" on="1"/>
        <pt x="145" y="569" on="1"/>
        <pt x="145" y="606" on="0"/>
        <pt x="182" y="657" on="0"/>
        <pt x="220" y="657" on="1"/>
        <pt x="235" y="657" on="0"/>
        <pt x="235" y="647" on="1"/>
        <pt x="235" y="645" on="1"/>
        <pt x="184" y="529" on="0"/>
        <pt x="159" y="349" on="1"/>
        <pt x="166" y="351" on="0"/>
        <pt x="201" y="358" on="0"/>
        <pt x="208" y="361" on="1"/>
        <pt x="283" y="390" on="0"/>
        <pt x="429" y="487" on="0"/>
        <pt x="512" y="564" on="0"/>
        <pt x="593" y="648" on="0"/>
        <pt x="597" y="651" on="1"/>
        <pt x="595" y="653" on="0"/>
        <pt x="595" y="656" on="1"/>
        <pt x="595" y="666" on="0"/>
        <pt x="630" y="687" on="0"/>
        <pt x="659" y="687" on="0"/>
        <pt x="659" y="676" on="1"/>
        <pt x="659" y="647" on="0"/>
        <pt x="480" y="490" on="0"/>
        <pt x="255" y="342" on="0"/>
        <pt x="196" y="325" on="1"/>
        <pt x="168" y="317" on="0"/>
        <pt x="168" y="303" on="1"/>
        <pt x="168" y="294" on="0"/>
        <pt x="180" y="282" on="1"/>
        <pt x="240" y="219" on="0"/>
        <pt x="295" y="162" on="0"/>
        <pt x="350" y="110" on="1"/>
        <pt x="457" y="10" on="0"/>
        <pt x="516" y="6" on="1"/>
        <pt x="564" y="6" on="0"/>
      </contour>
    </TTGlyph>
    <TTGlyph name="L" xMin="56" yMin="-8" xMax="525" yMax="657">
      <contour>
        <pt x="379" y="-1" on="1"/>
        <pt x="133" y="0" on="1"/>
        <pt x="123" y="-8" on="0"/>
        <pt x="98" y="-8" on="0"/>
        <pt x="92" y="0" on="1"/>
        <pt x="63" y="0" on="1"/>
        <pt x="56" y="0" on="0"/>
        <pt x="56" y="5" on="1"/>
        <pt x="56" y="12" on="0"/>
        <pt x="79" y="35" on="0"/>
        <pt x="90" y="39" on="1"/>
        <pt x="120" y="370" on="0"/>
        <pt x="149" y="539" on="1"/>
        <pt x="149" y="569" on="1"/>
        <pt x="149" y="606" on="0"/>
        <pt x="186" y="657" on="0"/>
        <pt x="224" y="657" on="1"/>
        <pt x="239" y="657" on="0"/>
        <pt x="239" y="639" on="0"/>
        <pt x="228" y="614" on="1"/>
        <pt x="183" y="515" on="0"/>
        <pt x="136" y="134" on="0"/>
        <pt x="136" y="47" on="1"/>
        <pt x="136" y="40" on="0"/>
        <pt x="139" y="31" on="1"/>
        <pt x="405" y="30" on="1"/>
        <pt x="469" y="30" on="0"/>
        <pt x="520" y="46" on="1"/>
        <pt x="521" y="46" on="1"/>
        <pt x="525" y="46" on="0"/>
        <pt x="525" y="21" on="0"/>
        <pt x="516" y="12" on="1"/>
        <pt x="501" y="-3" on="0"/>
        <pt x="444" y="-3" on="1"/>
      </contour>
    </TTGlyph>
    <TTGlyph name="Lslash" xMin="12" yMin="-8" xMax="525" yMax="657">
      <contour>
        <pt x="379" y="-1" on="1"/>
        <pt x="133" y="0" on="1"/>
        <pt x="123" y="-8" on="0"/>
        <pt x="98" y="-8" on="0"/>
        <pt x="92" y="0" on="1"/>
        <pt x="63" y="0" on="1"/>
        <pt x="56" y="0" on="0"/>
        <pt x="56" y="5" on="1"/>
        <pt x="56" y="12" on="0"/>
        <pt x="79" y="35" on="0"/>
        <pt x="90" y="39" on="1"/>
        <pt x="98" y="129" on="0"/>
        <pt x="103" y="177" on="1"/>
        <pt x="48" y="159" on="1"/>
        <pt x="39" y="156" on="0"/>
        <pt x="32" y="156" on="1"/>
        <pt x="12" y="156" on="0"/>
        <pt x="12" y="168" on="1"/>
        <pt x="12" y="191" on="0"/>
        <pt x="106" y="212" on="1"/>
        <pt x="127" y="412" on="0"/>
        <pt x="149" y="539" on="1"/>
        <pt x="149" y="569" on="1"/>
        <pt x="149" y="606" on="0"/>
        <pt x="186" y="657" on="0"/>
        <pt x="224" y="657" on="1"/>
        <pt x="239" y="657" on="0"/>
        <pt x="239" y="639" on="0"/>
        <pt x="228" y="614" on="1"/>
        <pt x="175" y="497" on="0"/>
        <pt x="147" y="224" on="1"/>
        <pt x="161" y="228" on="0"/>
        <pt x="199" y="240" on="0"/>
        <pt x="230" y="249" on="0"/>
        <pt x="258" y="257" on="0"/>
        <pt x="263" y="257" on="0"/>
        <pt x="263" y="255" on="1"/>
        <pt x="263" y="247" on="0"/>
        <pt x="193" y="211" on="0"/>
        <pt x="144" y="193" on="1"/>
        <pt x="136" y="106" on="0"/>
        <pt x="136" y="40" on="0"/>
        <pt x="139" y="31" on="1"/>
        <pt x="405" y="30" on="1"/>
        <pt x="469" y="30" on="0"/>
        <pt x="520" y="46" on="1"/>
        <pt x="521" y="46" on="1"/>
        <pt x="525" y="46" on="0"/>
        <pt x="525" y="21" on="0"/>
        <pt x="516" y="12" on="1"/>
        <pt x="501" y="-3" on="0"/>
        <pt x="444" y="-3" on="1"/>
      </contour>
    </TTGlyph>
    <TTGlyph name="M" xMin="55" yMin="-8" xMax="711" yMax="657">
      <contour>
        <pt x="629" y="544" on="1"/>
        <pt x="626" y="575" on="1"/>
        <pt x="626" y="657" on="0"/>
        <pt x="695" y="657" on="1"/>
        <pt x="711" y="657" on="0"/>
        <pt x="711" y="646" on="1"/>
        <pt x="711" y="638" on="0"/>
        <pt x="702" y="615" on="1"/>
        <pt x="652" y="478" on="0"/>
        <pt x="652" y="157" on="1"/>
        <pt x="652" y="68" on="0"/>
        <pt x="656" y="36" on="0"/>
        <pt x="663" y="24" on="0"/>
        <pt x="663" y="20" on="1"/>
        <pt x="663" y="-8" on="0"/>
        <pt x="635" y="-8" on="1"/>
        <pt x="610" y="-8" on="0"/>
        <pt x="610" y="11" on="1"/>
        <pt x="612" y="285" on="0"/>
        <pt x="621" y="444" on="1"/>
        <pt x="547" y="288" on="0"/>
        <pt x="396" y="139" on="0"/>
        <pt x="343" y="139" on="1"/>
        <pt x="306" y="139" on="0"/>
        <pt x="245" y="200" on="0"/>
        <pt x="225" y="250" on="1"/>
        <pt x="187" y="345" on="0"/>
        <pt x="173" y="467" on="1"/>
        <pt x="140" y="362" on="0"/>
        <pt x="93" y="123" on="0"/>
        <pt x="88" y="56" on="1"/>
        <pt x="92" y="23" on="1"/>
        <pt x="92" y="9" on="0"/>
        <pt x="76" y="-8" on="0"/>
        <pt x="69" y="-8" on="1"/>
        <pt x="55" y="-8" on="0"/>
        <pt x="55" y="9" on="1"/>
        <pt x="55" y="14" on="1"/>
        <pt x="97" y="325" on="0"/>
        <pt x="160" y="549" on="1"/>
        <pt x="160" y="552" on="0"/>
        <pt x="163" y="558" on="1"/>
        <pt x="156" y="564" on="0"/>
        <pt x="156" y="621" on="0"/>
        <pt x="183" y="654" on="0"/>
        <pt x="207" y="654" on="0"/>
        <pt x="210" y="653" on="1"/>
        <pt x="224" y="657" on="0"/>
        <pt x="244" y="657" on="0"/>
        <pt x="244" y="641" on="0"/>
        <pt x="217" y="590" on="0"/>
        <pt x="216" y="587" on="1"/>
        <pt x="204" y="557" on="1"/>
        <pt x="210" y="421" on="0"/>
        <pt x="244" y="313" on="1"/>
        <pt x="261" y="256" on="0"/>
        <pt x="319" y="187" on="0"/>
        <pt x="356" y="187" on="1"/>
        <pt x="406" y="187" on="0"/>
        <pt x="557" y="348" on="0"/>
        <pt x="626" y="509" on="1"/>
        <pt x="629" y="539" on="1"/>
      </contour>
    </TTGlyph>
    <TTGlyph name="N" xMin="86" yMin="-9" xMax="651" yMax="656">
      <contour>
        <pt x="127" y="87" on="1"/>
        <pt x="128" y="39" on="1"/>
        <pt x="128" y="0" on="0"/>
        <pt x="114" y="0" on="1"/>
        <pt x="104" y="0" on="0"/>
        <pt x="86" y="24" on="0"/>
        <pt x="86" y="38" on="1"/>
        <pt x="92" y="168" on="0"/>
        <pt x="159" y="551" on="1"/>
        <pt x="158" y="557" on="0"/>
        <pt x="158" y="569" on="1"/>
        <pt x="158" y="656" on="0"/>
        <pt x="218" y="656" on="1"/>
        <pt x="241" y="656" on="0"/>
        <pt x="241" y="647" on="1"/>
        <pt x="241" y="636" on="0"/>
        <pt x="215" y="581" on="0"/>
        <pt x="215" y="576" on="1"/>
        <pt x="215" y="531" on="0"/>
        <pt x="312" y="411" on="0"/>
        <pt x="481" y="245" on="0"/>
        <pt x="520" y="197" on="1"/>
        <pt x="529" y="185" on="1"/>
        <pt x="545" y="332" on="1"/>
        <pt x="555" y="428" on="0"/>
        <pt x="574" y="538" on="1"/>
        <pt x="574" y="568" on="1"/>
        <pt x="574" y="609" on="0"/>
        <pt x="598" y="656" on="0"/>
        <pt x="636" y="656" on="1"/>
        <pt x="651" y="656" on="0"/>
        <pt x="651" y="646" on="1"/>
        <pt x="651" y="644" on="1"/>
        <pt x="576" y="472" on="0"/>
        <pt x="553" y="139" on="1"/>
        <pt x="564" y="109" on="0"/>
        <pt x="564" y="46" on="0"/>
        <pt x="554" y="20" on="1"/>
        <pt x="554" y="14" on="1"/>
        <pt x="549" y="-9" on="0"/>
        <pt x="513" y="-9" on="0"/>
        <pt x="513" y="13" on="1"/>
        <pt x="520" y="95" on="1"/>
        <pt x="507" y="136" on="0"/>
        <pt x="462" y="198" on="0"/>
        <pt x="277" y="389" on="0"/>
        <pt x="249" y="420" on="1"/>
        <pt x="197" y="479" on="0"/>
        <pt x="195" y="547" on="1"/>
        <pt x="166" y="450" on="0"/>
        <pt x="127" y="164" on="0"/>
      </contour>
    </TTGlyph>
    <TTGlyph name="Ntilde" xMin="66" yMin="-8" xMax="663" yMax="803">
      <contour>
        <pt x="652" y="614" on="1"/>
        <pt x="614" y="530" on="0"/>
        <pt x="560" y="246" on="0"/>
        <pt x="550" y="140" on="1"/>
        <pt x="562" y="99" on="1"/>
        <pt x="564" y="91" on="0"/>
        <pt x="567" y="60" on="1"/>
        <pt x="567" y="33" on="0"/>
        <pt x="546" y="-8" on="0"/>
        <pt x="516" y="-8" on="0"/>
        <pt x="516" y="32" on="0"/>
        <pt x="523" y="114" on="1"/>
        <pt x="460" y="268" on="0"/>
        <pt x="327" y="509" on="0"/>
        <pt x="237" y="601" on="1"/>
        <pt x="204" y="501" on="0"/>
        <pt x="143" y="194" on="0"/>
        <pt x="143" y="78" on="1"/>
        <pt x="143" y="33" on="0"/>
        <pt x="147" y="0" on="1"/>
        <pt x="146" y="-8" on="0"/>
        <pt x="137" y="-8" on="1"/>
        <pt x="99" y="-8" on="0"/>
        <pt x="99" y="40" on="1"/>
        <pt x="99" y="72" on="0"/>
        <pt x="105" y="114" on="1"/>
        <pt x="127" y="308" on="0"/>
        <pt x="215" y="621" on="1"/>
        <pt x="190" y="637" on="0"/>
        <pt x="172" y="637" on="1"/>
        <pt x="135" y="637" on="0"/>
        <pt x="92" y="516" on="0"/>
        <pt x="79" y="394" on="0"/>
        <pt x="78" y="394" on="1"/>
        <pt x="66" y="394" on="0"/>
        <pt x="66" y="433" on="1"/>
        <pt x="66" y="541" on="0"/>
        <pt x="125" y="668" on="0"/>
        <pt x="181" y="668" on="1"/>
        <pt x="198" y="668" on="0"/>
        <pt x="226" y="654" on="1"/>
        <pt x="230" y="661" on="0"/>
        <pt x="244" y="661" on="0"/>
        <pt x="254" y="649" on="0"/>
        <pt x="254" y="640" on="1"/>
        <pt x="254" y="635" on="1"/>
        <pt x="324" y="578" on="0"/>
        <pt x="480" y="313" on="0"/>
        <pt x="530" y="190" on="1"/>
        <pt x="550" y="373" on="0"/>
        <pt x="587" y="549" on="1"/>
        <pt x="587" y="550" on="0"/>
        <pt x="595" y="594" on="0"/>
        <pt x="601" y="611" on="0"/>
        <pt x="608" y="627" on="1"/>
        <pt x="620" y="657" on="0"/>
        <pt x="648" y="657" on="1"/>
        <pt x="663" y="657" on="0"/>
        <pt x="663" y="639" on="0"/>
      </contour>
      <contour>
        <pt x="542" y="799" on="1"/>
        <pt x="542" y="780" on="0"/>
        <pt x="486" y="749" on="0"/>
        <pt x="457" y="749" on="0"/>
        <pt x="393" y="776" on="0"/>
        <pt x="359" y="776" on="0"/>
        <pt x="326" y="750" on="0"/>
        <pt x="320" y="750" on="0"/>
        <pt x="320" y="759" on="0"/>
        <pt x="353" y="788" on="0"/>
        <pt x="379" y="803" on="0"/>
        <pt x="416" y="803" on="0"/>
        <pt x="478" y="782" on="0"/>
        <pt x="518" y="782" on="0"/>
        <pt x="536" y="803" on="1"/>
        <pt x="542" y="803" on="0"/>
      </contour>
    </TTGlyph>
    <TTGlyph name="O" xMin="62" yMin="-18" xMax="749" yMax="705">
      <contour>
        <pt x="195" y="549" on="1"/>
        <pt x="129" y="516" on="0"/>
        <pt x="126" y="516" on="1"/>
        <pt x="117" y="516" on="0"/>
        <pt x="117" y="535" on="0"/>
        <pt x="198" y="575" on="0"/>
        <pt x="233" y="588" on="1"/>
        <pt x="285" y="639" on="0"/>
        <pt x="417" y="705" on="0"/>
        <pt x="554" y="705" on="0"/>
        <pt x="554" y="667" on="1"/>
        <pt x="554" y="645" on="0"/>
        <pt x="531" y="614" on="1"/>
        <pt x="749" y="582" on="0"/>
        <pt x="749" y="371" on="1"/>
        <pt x="749" y="283" on="0"/>
        <pt x="679" y="133" on="0"/>
        <pt x="565" y="36" on="0"/>
        <pt x="423" y="-18" on="0"/>
        <pt x="348" y="-18" on="1"/>
        <pt x="208" y="-18" on="0"/>
        <pt x="62" y="132" on="0"/>
        <pt x="62" y="248" on="1"/>
        <pt x="62" y="329" on="0"/>
        <pt x="129" y="488" on="0"/>
      </contour>
      <contour>
        <pt x="514" y="617" on="1"/>
        <pt x="523" y="638" on="0"/>
        <pt x="523" y="651" on="1"/>
        <pt x="523" y="675" on="0"/>
        <pt x="437" y="675" on="0"/>
        <pt x="323" y="633" on="0"/>
        <pt x="285" y="603" on="1"/>
        <pt x="344" y="621" on="0"/>
        <pt x="479" y="621" on="0"/>
      </contour>
      <contour>
        <pt x="253" y="569" on="1"/>
        <pt x="180" y="514" on="0"/>
        <pt x="110" y="351" on="0"/>
        <pt x="110" y="262" on="1"/>
        <pt x="110" y="152" on="0"/>
        <pt x="234" y="6" on="0"/>
        <pt x="355" y="6" on="1"/>
        <pt x="415" y="6" on="0"/>
        <pt x="536" y="56" on="0"/>
        <pt x="638" y="145" on="0"/>
        <pt x="703" y="286" on="0"/>
        <pt x="703" y="456" on="0"/>
        <pt x="601" y="584" on="0"/>
        <pt x="521" y="594" on="1"/>
        <pt x="506" y="576" on="0"/>
        <pt x="491" y="576" on="0"/>
        <pt x="491" y="580" on="1"/>
        <pt x="491" y="588" on="0"/>
        <pt x="500" y="596" on="1"/>
        <pt x="486" y="597" on="0"/>
        <pt x="459" y="597" on="1"/>
        <pt x="356" y="597" on="0"/>
      </contour>
    </TTGlyph>
    <TTGlyph name="OE" xMin="62" yMin="-18" xMax="1069" yMax="705">
      <contour>
        <pt x="883" y="634" on="1"/>
        <pt x="1054" y="635" on="1"/>
        <pt x="1069" y="635" on="0"/>
        <pt x="1069" y="620" on="1"/>
        <pt x="1069" y="609" on="0"/>
        <pt x="1048" y="576" on="0"/>
        <pt x="1034" y="576" on="0"/>
        <pt x="1015" y="601" on="0"/>
        <pt x="987" y="604" on="0"/>
        <pt x="919" y="604" on="1"/>
        <pt x="872" y="603" on="1"/>
        <pt x="867" y="603" on="0"/>
        <pt x="749" y="605" on="1"/>
        <pt x="715" y="489" on="0"/>
        <pt x="695" y="331" on="1"/>
        <pt x="921" y="331" on="0"/>
        <pt x="981" y="334" on="1"/>
        <pt x="987" y="334" on="0"/>
        <pt x="987" y="321" on="0"/>
        <pt x="967" y="303" on="0"/>
        <pt x="949" y="300" on="1"/>
        <pt x="691" y="300" on="1"/>
        <pt x="679" y="185" on="0"/>
        <pt x="679" y="63" on="0"/>
        <pt x="684" y="31" on="1"/>
        <pt x="944" y="30" on="1"/>
        <pt x="1008" y="30" on="0"/>
        <pt x="1059" y="46" on="1"/>
        <pt x="1060" y="46" on="1"/>
        <pt x="1064" y="46" on="0"/>
        <pt x="1064" y="24" on="0"/>
        <pt x="1048" y="0" on="0"/>
        <pt x="1034" y="0" on="1"/>
        <pt x="895" y="-1" on="1"/>
        <pt x="595" y="-1" on="0"/>
        <pt x="595" y="4" on="1"/>
        <pt x="595" y="11" on="0"/>
        <pt x="623" y="34" on="0"/>
        <pt x="635" y="36" on="1"/>
        <pt x="634" y="51" on="1"/>
        <pt x="634" y="63" on="0"/>
        <pt x="636" y="97" on="1"/>
        <pt x="579" y="42" on="0"/>
        <pt x="427" y="-18" on="0"/>
        <pt x="348" y="-18" on="1"/>
        <pt x="208" y="-18" on="0"/>
        <pt x="62" y="132" on="0"/>
        <pt x="62" y="248" on="1"/>
        <pt x="62" y="329" on="0"/>
        <pt x="129" y="488" on="0"/>
        <pt x="195" y="549" on="1"/>
        <pt x="129" y="516" on="0"/>
        <pt x="126" y="516" on="1"/>
        <pt x="117" y="516" on="0"/>
        <pt x="117" y="535" on="0"/>
        <pt x="198" y="575" on="0"/>
        <pt x="233" y="588" on="1"/>
        <pt x="285" y="639" on="0"/>
        <pt x="417" y="705" on="0"/>
        <pt x="554" y="705" on="0"/>
        <pt x="554" y="667" on="1"/>
        <pt x="554" y="645" on="0"/>
        <pt x="531" y="614" on="1"/>
        <pt x="623" y="601" on="0"/>
        <pt x="682" y="537" on="1"/>
        <pt x="688" y="579" on="0"/>
        <pt x="696" y="610" on="1"/>
        <pt x="643" y="610" on="1"/>
        <pt x="621" y="611" on="0"/>
        <pt x="621" y="618" on="1"/>
        <pt x="621" y="623" on="0"/>
        <pt x="647" y="634" on="0"/>
        <pt x="663" y="634" on="1"/>
        <pt x="702" y="634" on="1"/>
        <pt x="708" y="667" on="0"/>
        <pt x="736" y="692" on="0"/>
        <pt x="778" y="692" on="0"/>
        <pt x="778" y="673" on="0"/>
        <pt x="759" y="635" on="1"/>
        <pt x="818" y="634" on="1"/>
      </contour>
      <contour>
        <pt x="253" y="569" on="1"/>
        <pt x="180" y="514" on="0"/>
        <pt x="110" y="351" on="0"/>
        <pt x="110" y="262" on="1"/>
        <pt x="110" y="152" on="0"/>
        <pt x="234" y="6" on="0"/>
        <pt x="355" y="6" on="1"/>
        <pt x="429" y="6" on="0"/>
        <pt x="597" y="89" on="0"/>
        <pt x="639" y="148" on="1"/>
        <pt x="652" y="328" on="0"/>
        <pt x="674" y="485" on="1"/>
        <pt x="650" y="530" on="0"/>
        <pt x="571" y="587" on="0"/>
        <pt x="521" y="594" on="1"/>
        <pt x="506" y="576" on="0"/>
        <pt x="491" y="576" on="0"/>
        <pt x="491" y="580" on="1"/>
        <pt x="491" y="588" on="0"/>
        <pt x="500" y="596" on="1"/>
        <pt x="486" y="597" on="0"/>
        <pt x="459" y="597" on="1"/>
        <pt x="356" y="597" on="0"/>
      </contour>
      <contour>
        <pt x="514" y="617" on="1"/>
        <pt x="523" y="638" on="0"/>
        <pt x="523" y="651" on="1"/>
        <pt x="523" y="675" on="0"/>
        <pt x="437" y="675" on="0"/>
        <pt x="323" y="633" on="0"/>
        <pt x="285" y="603" on="1"/>
        <pt x="344" y="621" on="0"/>
        <pt x="479" y="621" on="0"/>
      </contour>
    </TTGlyph>
    <TTGlyph name="Oacute" xMin="62" yMin="-18" xMax="749" yMax="850">
      <contour>
        <pt x="195" y="549" on="1"/>
        <pt x="129" y="516" on="0"/>
        <pt x="126" y="516" on="1"/>
        <pt x="117" y="516" on="0"/>
        <pt x="117" y="535" on="0"/>
        <pt x="198" y="575" on="0"/>
        <pt x="233" y="588" on="1"/>
        <pt x="285" y="639" on="0"/>
        <pt x="417" y="705" on="0"/>
        <pt x="554" y="705" on="0"/>
        <pt x="554" y="667" on="1"/>
        <pt x="554" y="645" on="0"/>
        <pt x="531" y="614" on="1"/>
        <pt x="749" y="582" on="0"/>
        <pt x="749" y="371" on="1"/>
        <pt x="749" y="283" on="0"/>
        <pt x="679" y="133" on="0"/>
        <pt x="565" y="36" on="0"/>
        <pt x="423" y="-18" on="0"/>
        <pt x="348" y="-18" on="1"/>
        <pt x="208" y="-18" on="0"/>
        <pt x="62" y="132" on="0"/>
        <pt x="62" y="248" on="1"/>
        <pt x="62" y="329" on="0"/>
        <pt x="129" y="488" on="0"/>
      </contour>
      <contour>
        <pt x="514" y="617" on="1"/>
        <pt x="523" y="638" on="0"/>
        <pt x="523" y="651" on="1"/>
        <pt x="523" y="675" on="0"/>
        <pt x="437" y="675" on="0"/>
        <pt x="323" y="633" on="0"/>
        <pt x="285" y="603" on="1"/>
        <pt x="344" y="621" on="0"/>
        <pt x="479" y="621" on="0"/>
      </contour>
      <contour>
        <pt x="253" y="569" on="1"/>
        <pt x="180" y="514" on="0"/>
        <pt x="110" y="351" on="0"/>
        <pt x="110" y="262" on="1"/>
        <pt x="110" y="152" on="0"/>
        <pt x="234" y="6" on="0"/>
        <pt x="355" y="6" on="1"/>
        <pt x="415" y="6" on="0"/>
        <pt x="536" y="56" on="0"/>
        <pt x="638" y="145" on="0"/>
        <pt x="703" y="286" on="0"/>
        <pt x="703" y="456" on="0"/>
        <pt x="601" y="584" on="0"/>
        <pt x="521" y="594" on="1"/>
        <pt x="506" y="576" on="0"/>
        <pt x="491" y="576" on="0"/>
        <pt x="491" y="580" on="1"/>
        <pt x="491" y="588" on="0"/>
        <pt x="500" y="596" on="1"/>
        <pt x="486" y="597" on="0"/>
        <pt x="459" y="597" on="1"/>
        <pt x="356" y="597" on="0"/>
      </contour>
      <contour>
        <pt x="576" y="833" on="0"/>
        <pt x="576" y="813" on="0"/>
        <pt x="558" y="802" on="0"/>
        <pt x="405" y="726" on="0"/>
        <pt x="398" y="726" on="0"/>
        <pt x="398" y="729" on="1"/>
        <pt x="398" y="738" on="0"/>
        <pt x="489" y="810" on="0"/>
        <pt x="545" y="847" on="1"/>
        <pt x="550" y="850" on="0"/>
        <pt x="564" y="850" on="0"/>
      </contour>
    </TTGlyph>
    <TTGlyph name="Ocircumflex" xMin="62" yMin="-18" xMax="749" yMax="850">
      <contour>
        <pt x="195" y="549" on="1"/>
        <pt x="129" y="516" on="0"/>
        <pt x="126" y="516" on="1"/>
        <pt x="117" y="516" on="0"/>
        <pt x="117" y="535" on="0"/>
        <pt x="198" y="575" on="0"/>
        <pt x="233" y="588" on="1"/>
        <pt x="285" y="639" on="0"/>
        <pt x="417" y="705" on="0"/>
        <pt x="554" y="705" on="0"/>
        <pt x="554" y="667" on="1"/>
        <pt x="554" y="645" on="0"/>
        <pt x="531" y="614" on="1"/>
        <pt x="749" y="582" on="0"/>
        <pt x="749" y="371" on="1"/>
        <pt x="749" y="283" on="0"/>
        <pt x="679" y="133" on="0"/>
        <pt x="565" y="36" on="0"/>
        <pt x="423" y="-18" on="0"/>
        <pt x="348" y="-18" on="1"/>
        <pt x="208" y="-18" on="0"/>
        <pt x="62" y="132" on="0"/>
        <pt x="62" y="248" on="1"/>
        <pt x="62" y="329" on="0"/>
        <pt x="129" y="488" on="0"/>
      </contour>
      <contour>
        <pt x="514" y="617" on="1"/>
        <pt x="523" y="638" on="0"/>
        <pt x="523" y="651" on="1"/>
        <pt x="523" y="675" on="0"/>
        <pt x="437" y="675" on="0"/>
        <pt x="323" y="633" on="0"/>
        <pt x="285" y="603" on="1"/>
        <pt x="344" y="621" on="0"/>
        <pt x="479" y="621" on="0"/>
      </contour>
      <contour>
        <pt x="253" y="569" on="1"/>
        <pt x="180" y="514" on="0"/>
        <pt x="110" y="351" on="0"/>
        <pt x="110" y="262" on="1"/>
        <pt x="110" y="152" on="0"/>
        <pt x="234" y="6" on="0"/>
        <pt x="355" y="6" on="1"/>
        <pt x="415" y="6" on="0"/>
        <pt x="536" y="56" on="0"/>
        <pt x="638" y="145" on="0"/>
        <pt x="703" y="286" on="0"/>
        <pt x="703" y="456" on="0"/>
        <pt x="601" y="584" on="0"/>
        <pt x="521" y="594" on="1"/>
        <pt x="506" y="576" on="0"/>
        <pt x="491" y="576" on="0"/>
        <pt x="491" y="580" on="1"/>
        <pt x="491" y="588" on="0"/>
        <pt x="500" y="596" on="1"/>
        <pt x="486" y="597" on="0"/>
        <pt x="459" y="597" on="1"/>
        <pt x="356" y="597" on="0"/>
      </contour>
      <contour>
        <pt x="507" y="848" on="0"/>
        <pt x="565" y="758" on="0"/>
        <pt x="575" y="740" on="0"/>
        <pt x="575" y="727" on="0"/>
        <pt x="566" y="727" on="0"/>
        <pt x="499" y="800" on="0"/>
        <pt x="489" y="815" on="1"/>
        <pt x="472" y="800" on="0"/>
        <pt x="378" y="727" on="0"/>
        <pt x="373" y="727" on="0"/>
        <pt x="373" y="734" on="0"/>
        <pt x="387" y="751" on="0"/>
        <pt x="493" y="848" on="0"/>
        <pt x="502" y="850" on="1"/>
      </contour>
    </TTGlyph>
    <TTGlyph name="Odieresis" xMin="62" yMin="-18" xMax="749" yMax="833">
      <contour>
        <pt x="195" y="549" on="1"/>
        <pt x="129" y="516" on="0"/>
        <pt x="126" y="516" on="1"/>
        <pt x="117" y="516" on="0"/>
        <pt x="117" y="535" on="0"/>
        <pt x="198" y="575" on="0"/>
        <pt x="233" y="588" on="1"/>
        <pt x="285" y="639" on="0"/>
        <pt x="417" y="705" on="0"/>
        <pt x="554" y="705" on="0"/>
        <pt x="554" y="667" on="1"/>
        <pt x="554" y="645" on="0"/>
        <pt x="531" y="614" on="1"/>
        <pt x="749" y="582" on="0"/>
        <pt x="749" y="371" on="1"/>
        <pt x="749" y="283" on="0"/>
        <pt x="679" y="133" on="0"/>
        <pt x="565" y="36" on="0"/>
        <pt x="423" y="-18" on="0"/>
        <pt x="348" y="-18" on="1"/>
        <pt x="208" y="-18" on="0"/>
        <pt x="62" y="132" on="0"/>
        <pt x="62" y="248" on="1"/>
        <pt x="62" y="329" on="0"/>
        <pt x="129" y="488" on="0"/>
      </contour>
      <contour>
        <pt x="514" y="617" on="1"/>
        <pt x="523" y="638" on="0"/>
        <pt x="523" y="651" on="1"/>
        <pt x="523" y="675" on="0"/>
        <pt x="437" y="675" on="0"/>
        <pt x="323" y="633" on="0"/>
        <pt x="285" y="603" on="1"/>
        <pt x="344" y="621" on="0"/>
        <pt x="479" y="621" on="0"/>
      </contour>
      <contour>
        <pt x="253" y="569" on="1"/>
        <pt x="180" y="514" on="0"/>
        <pt x="110" y="351" on="0"/>
        <pt x="110" y="262" on="1"/>
        <pt x="110" y="152" on="0"/>
        <pt x="234" y="6" on="0"/>
        <pt x="355" y="6" on="1"/>
        <pt x="415" y="6" on="0"/>
        <pt x="536" y="56" on="0"/>
        <pt x="638" y="145" on="0"/>
        <pt x="703" y="286" on="0"/>
        <pt x="703" y="456" on="0"/>
        <pt x="601" y="584" on="0"/>
        <pt x="521" y="594" on="1"/>
        <pt x="506" y="576" on="0"/>
        <pt x="491" y="576" on="0"/>
        <pt x="491" y="580" on="1"/>
        <pt x="491" y="588" on="0"/>
        <pt x="500" y="596" on="1"/>
        <pt x="486" y="597" on="0"/>
        <pt x="459" y="597" on="1"/>
        <pt x="356" y="597" on="0"/>
      </contour>
      <contour>
        <pt x="575" y="830" on="1"/>
        <pt x="575" y="820" on="0"/>
        <pt x="563" y="776" on="0"/>
        <pt x="563" y="775" on="1"/>
        <pt x="563" y="761" on="0"/>
        <pt x="536" y="754" on="1"/>
        <pt x="518" y="754" on="0"/>
        <pt x="518" y="799" on="0"/>
        <pt x="552" y="833" on="0"/>
        <pt x="569" y="833" on="1"/>
        <pt x="574" y="833" on="0"/>
      </contour>
      <contour>
        <pt x="447" y="830" on="1"/>
        <pt x="447" y="820" on="0"/>
        <pt x="435" y="776" on="0"/>
        <pt x="435" y="775" on="1"/>
        <pt x="435" y="761" on="0"/>
        <pt x="408" y="754" on="1"/>
        <pt x="391" y="754" on="0"/>
        <pt x="391" y="799" on="0"/>
        <pt x="425" y="833" on="0"/>
        <pt x="442" y="833" on="1"/>
        <pt x="446" y="833" on="0"/>
      </contour>
    </TTGlyph>
    <TTGlyph name="Ograve" xMin="62" yMin="-18" xMax="749" yMax="850">
      <contour>
        <pt x="195" y="549" on="1"/>
        <pt x="129" y="516" on="0"/>
        <pt x="126" y="516" on="1"/>
        <pt x="117" y="516" on="0"/>
        <pt x="117" y="535" on="0"/>
        <pt x="198" y="575" on="0"/>
        <pt x="233" y="588" on="1"/>
        <pt x="285" y="639" on="0"/>
        <pt x="417" y="705" on="0"/>
        <pt x="554" y="705" on="0"/>
        <pt x="554" y="667" on="1"/>
        <pt x="554" y="645" on="0"/>
        <pt x="531" y="614" on="1"/>
        <pt x="749" y="582" on="0"/>
        <pt x="749" y="371" on="1"/>
        <pt x="749" y="283" on="0"/>
        <pt x="679" y="133" on="0"/>
        <pt x="565" y="36" on="0"/>
        <pt x="423" y="-18" on="0"/>
        <pt x="348" y="-18" on="1"/>
        <pt x="208" y="-18" on="0"/>
        <pt x="62" y="132" on="0"/>
        <pt x="62" y="248" on="1"/>
        <pt x="62" y="329" on="0"/>
        <pt x="129" y="488" on="0"/>
      </contour>
      <contour>
        <pt x="514" y="617" on="1"/>
        <pt x="523" y="638" on="0"/>
        <pt x="523" y="651" on="1"/>
        <pt x="523" y="675" on="0"/>
        <pt x="437" y="675" on="0"/>
        <pt x="323" y="633" on="0"/>
        <pt x="285" y="603" on="1"/>
        <pt x="344" y="621" on="0"/>
        <pt x="479" y="621" on="0"/>
      </contour>
      <contour>
        <pt x="253" y="569" on="1"/>
        <pt x="180" y="514" on="0"/>
        <pt x="110" y="351" on="0"/>
        <pt x="110" y="262" on="1"/>
        <pt x="110" y="152" on="0"/>
        <pt x="234" y="6" on="0"/>
        <pt x="355" y="6" on="1"/>
        <pt x="415" y="6" on="0"/>
        <pt x="536" y="56" on="0"/>
        <pt x="638" y="145" on="0"/>
        <pt x="703" y="286" on="0"/>
        <pt x="703" y="456" on="0"/>
        <pt x="601" y="584" on="0"/>
        <pt x="521" y="594" on="1"/>
        <pt x="506" y="576" on="0"/>
        <pt x="491" y="576" on="0"/>
        <pt x="491" y="580" on="1"/>
        <pt x="491" y="588" on="0"/>
        <pt x="500" y="596" on="1"/>
        <pt x="486" y="597" on="0"/>
        <pt x="459" y="597" on="1"/>
        <pt x="356" y="597" on="0"/>
      </contour>
      <contour>
        <pt x="532" y="726" on="0"/>
        <pt x="526" y="726" on="0"/>
        <pt x="373" y="802" on="0"/>
        <pt x="355" y="812" on="0"/>
        <pt x="355" y="833" on="0"/>
        <pt x="367" y="850" on="0"/>
        <pt x="380" y="850" on="0"/>
        <pt x="386" y="847" on="1"/>
        <pt x="441" y="810" on="0"/>
        <pt x="532" y="738" on="0"/>
        <pt x="532" y="729" on="1"/>
      </contour>
    </TTGlyph>
    <TTGlyph name="Omega" xMin="23" yMin="-1" xMax="636" yMax="605">
      <contour>
        <pt x="216" y="-1" on="1"/>
        <pt x="57" y="0" on="1"/>
        <pt x="23" y="0" on="0"/>
        <pt x="23" y="18" on="0"/>
        <pt x="34" y="34" on="0"/>
        <pt x="68" y="37" on="0"/>
        <pt x="189" y="37" on="0"/>
        <pt x="204" y="38" on="1"/>
        <pt x="140" y="105" on="0"/>
        <pt x="140" y="225" on="1"/>
        <pt x="140" y="320" on="0"/>
        <pt x="228" y="495" on="0"/>
        <pt x="382" y="605" on="0"/>
        <pt x="550" y="605" on="0"/>
        <pt x="626" y="509" on="0"/>
        <pt x="626" y="429" on="1"/>
        <pt x="626" y="312" on="0"/>
        <pt x="508" y="95" on="0"/>
        <pt x="421" y="36" on="1"/>
        <pt x="619" y="38" on="1"/>
        <pt x="636" y="38" on="0"/>
        <pt x="636" y="29" on="1"/>
        <pt x="636" y="23" on="0"/>
        <pt x="621" y="1" on="0"/>
        <pt x="596" y="0" on="0"/>
        <pt x="406" y="0" on="1"/>
        <pt x="367" y="0" on="0"/>
        <pt x="367" y="8" on="1"/>
        <pt x="370" y="31" on="0"/>
        <pt x="386" y="39" on="1"/>
        <pt x="464" y="76" on="0"/>
        <pt x="581" y="324" on="0"/>
        <pt x="581" y="431" on="1"/>
        <pt x="581" y="581" on="0"/>
        <pt x="470" y="581" on="1"/>
        <pt x="423" y="581" on="0"/>
        <pt x="329" y="527" on="0"/>
        <pt x="255" y="439" on="0"/>
        <pt x="228" y="382" on="1"/>
        <pt x="183" y="289" on="0"/>
        <pt x="183" y="203" on="1"/>
        <pt x="183" y="109" on="0"/>
        <pt x="229" y="46" on="1"/>
        <pt x="244" y="33" on="0"/>
        <pt x="244" y="28" on="1"/>
        <pt x="244" y="12" on="0"/>
        <pt x="232" y="-1" on="0"/>
      </contour>
    </TTGlyph>
    <TTGlyph name="Oslash" xMin="62" yMin="-119" xMax="749" yMax="707">
      <contour>
        <pt x="195" y="549" on="1"/>
        <pt x="129" y="516" on="0"/>
        <pt x="126" y="516" on="1"/>
        <pt x="117" y="516" on="0"/>
        <pt x="117" y="535" on="0"/>
        <pt x="198" y="575" on="0"/>
        <pt x="233" y="588" on="1"/>
        <pt x="285" y="639" on="0"/>
        <pt x="417" y="705" on="0"/>
        <pt x="554" y="705" on="0"/>
        <pt x="554" y="667" on="1"/>
        <pt x="554" y="645" on="0"/>
        <pt x="531" y="614" on="1"/>
        <pt x="570" y="607" on="0"/>
        <pt x="576" y="605" on="1"/>
        <pt x="666" y="707" on="0"/>
        <pt x="677" y="707" on="1"/>
        <pt x="683" y="707" on="0"/>
        <pt x="691" y="696" on="0"/>
        <pt x="691" y="681" on="0"/>
        <pt x="667" y="650" on="0"/>
        <pt x="618" y="598" on="0"/>
        <pt x="613" y="592" on="1"/>
        <pt x="749" y="535" on="0"/>
        <pt x="749" y="371" on="1"/>
        <pt x="749" y="283" on="0"/>
        <pt x="679" y="133" on="0"/>
        <pt x="565" y="36" on="0"/>
        <pt x="423" y="-18" on="0"/>
        <pt x="258" y="-18" on="0"/>
        <pt x="194" y="15" on="1"/>
        <pt x="160" y="-45" on="0"/>
        <pt x="160" y="-75" on="1"/>
        <pt x="160" y="-86" on="0"/>
        <pt x="167" y="-95" on="1"/>
        <pt x="174" y="-104" on="1"/>
        <pt x="174" y="-109" on="0"/>
        <pt x="156" y="-119" on="0"/>
        <pt x="151" y="-119" on="1"/>
        <pt x="127" y="-119" on="0"/>
        <pt x="127" y="-87" on="1"/>
        <pt x="127" y="-42" on="0"/>
        <pt x="165" y="31" on="1"/>
        <pt x="62" y="103" on="0"/>
        <pt x="62" y="248" on="1"/>
        <pt x="62" y="329" on="0"/>
        <pt x="129" y="488" on="0"/>
      </contour>
      <contour>
        <pt x="594" y="569" on="1"/>
        <pt x="488" y="443" on="0"/>
        <pt x="271" y="146" on="0"/>
        <pt x="211" y="45" on="1"/>
        <pt x="269" y="6" on="0"/>
        <pt x="355" y="6" on="1"/>
        <pt x="415" y="6" on="0"/>
        <pt x="536" y="56" on="0"/>
        <pt x="638" y="145" on="0"/>
        <pt x="703" y="286" on="0"/>
        <pt x="703" y="433" on="0"/>
        <pt x="644" y="540" on="0"/>
      </contour>
      <contour>
        <pt x="253" y="569" on="1"/>
        <pt x="180" y="514" on="0"/>
        <pt x="110" y="351" on="0"/>
        <pt x="110" y="262" on="1"/>
        <pt x="110" y="136" on="0"/>
        <pt x="184" y="66" on="1"/>
        <pt x="249" y="179" on="0"/>
        <pt x="474" y="487" on="0"/>
        <pt x="559" y="585" on="1"/>
        <pt x="541" y="591" on="0"/>
        <pt x="521" y="594" on="1"/>
        <pt x="506" y="576" on="0"/>
        <pt x="491" y="576" on="0"/>
        <pt x="491" y="580" on="1"/>
        <pt x="491" y="588" on="0"/>
        <pt x="500" y="596" on="1"/>
        <pt x="486" y="597" on="0"/>
        <pt x="459" y="597" on="1"/>
        <pt x="356" y="597" on="0"/>
      </contour>
      <contour>
        <pt x="514" y="617" on="1"/>
        <pt x="523" y="638" on="0"/>
        <pt x="523" y="651" on="1"/>
        <pt x="523" y="675" on="0"/>
        <pt x="437" y="675" on="0"/>
        <pt x="323" y="633" on="0"/>
        <pt x="285" y="603" on="1"/>
        <pt x="344" y="621" on="0"/>
        <pt x="479" y="621" on="0"/>
      </contour>
    </TTGlyph>
    <TTGlyph name="Otilde" xMin="62" yMin="-18" xMax="749" yMax="790">
      <contour>
        <pt x="195" y="549" on="1"/>
        <pt x="129" y="516" on="0"/>
        <pt x="126" y="516" on="1"/>
        <pt x="117" y="516" on="0"/>
        <pt x="117" y="535" on="0"/>
        <pt x="198" y="575" on="0"/>
        <pt x="233" y="588" on="1"/>
        <pt x="285" y="639" on="0"/>
        <pt x="417" y="705" on="0"/>
        <pt x="554" y="705" on="0"/>
        <pt x="554" y="667" on="1"/>
        <pt x="554" y="645" on="0"/>
        <pt x="531" y="614" on="1"/>
        <pt x="749" y="582" on="0"/>
        <pt x="749" y="371" on="1"/>
        <pt x="749" y="283" on="0"/>
        <pt x="679" y="133" on="0"/>
        <pt x="565" y="36" on="0"/>
        <pt x="423" y="-18" on="0"/>
        <pt x="348" y="-18" on="1"/>
        <pt x="208" y="-18" on="0"/>
        <pt x="62" y="132" on="0"/>
        <pt x="62" y="248" on="1"/>
        <pt x="62" y="329" on="0"/>
        <pt x="129" y="488" on="0"/>
      </contour>
      <contour>
        <pt x="514" y="617" on="1"/>
        <pt x="523" y="638" on="0"/>
        <pt x="523" y="651" on="1"/>
        <pt x="523" y="675" on="0"/>
        <pt x="437" y="675" on="0"/>
        <pt x="323" y="633" on="0"/>
        <pt x="285" y="603" on="1"/>
        <pt x="344" y="621" on="0"/>
        <pt x="479" y="621" on="0"/>
      </contour>
      <contour>
        <pt x="253" y="569" on="1"/>
        <pt x="180" y="514" on="0"/>
        <pt x="110" y="351" on="0"/>
        <pt x="110" y="262" on="1"/>
        <pt x="110" y="152" on="0"/>
        <pt x="234" y="6" on="0"/>
        <pt x="355" y="6" on="1"/>
        <pt x="415" y="6" on="0"/>
        <pt x="536" y="56" on="0"/>
        <pt x="638" y="145" on="0"/>
        <pt x="703" y="286" on="0"/>
        <pt x="703" y="456" on="0"/>
        <pt x="601" y="584" on="0"/>
        <pt x="521" y="594" on="1"/>
        <pt x="506" y="576" on="0"/>
        <pt x="491" y="576" on="0"/>
        <pt x="491" y="580" on="1"/>
        <pt x="491" y="588" on="0"/>
        <pt x="500" y="596" on="1"/>
        <pt x="486" y="597" on="0"/>
        <pt x="459" y="597" on="1"/>
        <pt x="356" y="597" on="0"/>
      </contour>
      <contour>
        <pt x="597" y="786" on="1"/>
        <pt x="597" y="767" on="0"/>
        <pt x="541" y="736" on="0"/>
        <pt x="512" y="736" on="0"/>
        <pt x="448" y="763" on="0"/>
        <pt x="414" y="763" on="0"/>
        <pt x="381" y="737" on="0"/>
        <pt x="375" y="737" on="0"/>
        <pt x="375" y="746" on="0"/>
        <pt x="408" y="775" on="0"/>
        <pt x="434" y="790" on="0"/>
        <pt x="471" y="790" on="0"/>
        <pt x="533" y="769" on="0"/>
        <pt x="573" y="769" on="0"/>
        <pt x="591" y="790" on="1"/>
        <pt x="597" y="790" on="0"/>
      </contour>
    </TTGlyph>
    <TTGlyph name="P" xMin="77" yMin="-2" xMax="498" yMax="692">
      <contour>
        <pt x="148" y="630" on="1"/>
        <pt x="109" y="628" on="1"/>
        <pt x="87" y="629" on="0"/>
        <pt x="87" y="636" on="1"/>
        <pt x="87" y="653" on="0"/>
        <pt x="160" y="653" on="1"/>
        <pt x="163" y="670" on="0"/>
        <pt x="198" y="692" on="0"/>
        <pt x="239" y="692" on="0"/>
        <pt x="239" y="680" on="1"/>
        <pt x="236" y="673" on="0"/>
        <pt x="226" y="658" on="0"/>
        <pt x="223" y="649" on="1"/>
        <pt x="498" y="624" on="0"/>
        <pt x="498" y="493" on="1"/>
        <pt x="498" y="430" on="0"/>
        <pt x="395" y="318" on="0"/>
        <pt x="280" y="278" on="0"/>
        <pt x="145" y="278" on="0"/>
        <pt x="135" y="283" on="1"/>
        <pt x="121" y="204" on="0"/>
        <pt x="121" y="31" on="0"/>
        <pt x="127" y="17" on="1"/>
        <pt x="127" y="13" on="0"/>
        <pt x="121" y="9" on="0"/>
        <pt x="121" y="8" on="1"/>
        <pt x="117" y="-2" on="0"/>
        <pt x="77" y="-2" on="0"/>
        <pt x="77" y="14" on="1"/>
        <pt x="77" y="83" on="0"/>
        <pt x="126" y="465" on="0"/>
        <pt x="149" y="574" on="1"/>
        <pt x="149" y="576" on="1"/>
        <pt x="146" y="589" on="1"/>
        <pt x="146" y="606" on="0"/>
        <pt x="154" y="630" on="1"/>
      </contour>
      <contour>
        <pt x="452" y="509" on="1"/>
        <pt x="443" y="537" on="0"/>
        <pt x="386" y="582" on="0"/>
        <pt x="348" y="595" on="1"/>
        <pt x="274" y="620" on="0"/>
        <pt x="216" y="626" on="1"/>
        <pt x="215" y="626" on="1"/>
        <pt x="198" y="592" on="0"/>
        <pt x="146" y="360" on="0"/>
        <pt x="141" y="309" on="1"/>
        <pt x="147" y="303" on="0"/>
        <pt x="242" y="303" on="0"/>
        <pt x="256" y="305" on="1"/>
        <pt x="324" y="312" on="0"/>
        <pt x="454" y="413" on="0"/>
        <pt x="454" y="483" on="1"/>
        <pt x="454" y="500" on="0"/>
      </contour>
    </TTGlyph>
    <TTGlyph name="Q" xMin="62" yMin="-242" xMax="768" yMax="705">
      <contour>
        <pt x="195" y="549" on="1"/>
        <pt x="129" y="516" on="0"/>
        <pt x="126" y="516" on="1"/>
        <pt x="117" y="516" on="0"/>
        <pt x="117" y="535" on="0"/>
        <pt x="198" y="575" on="0"/>
        <pt x="233" y="588" on="1"/>
        <pt x="285" y="639" on="0"/>
        <pt x="417" y="705" on="0"/>
        <pt x="554" y="705" on="0"/>
        <pt x="554" y="667" on="1"/>
        <pt x="554" y="645" on="0"/>
        <pt x="531" y="614" on="1"/>
        <pt x="749" y="582" on="0"/>
        <pt x="749" y="371" on="1"/>
        <pt x="749" y="229" on="0"/>
        <pt x="584" y="32" on="0"/>
        <pt x="460" y="-2" on="1"/>
        <pt x="539" y="-128" on="0"/>
        <pt x="580" y="-164" on="1"/>
        <pt x="635" y="-214" on="0"/>
        <pt x="680" y="-214" on="1"/>
        <pt x="710" y="-214" on="0"/>
        <pt x="746" y="-166" on="0"/>
        <pt x="760" y="-117" on="0"/>
        <pt x="763" y="-117" on="1"/>
        <pt x="768" y="-117" on="0"/>
        <pt x="768" y="-133" on="1"/>
        <pt x="768" y="-187" on="0"/>
        <pt x="698" y="-242" on="0"/>
        <pt x="630" y="-242" on="0"/>
        <pt x="581" y="-220" on="0"/>
        <pt x="545" y="-191" on="0"/>
        <pt x="502" y="-136" on="0"/>
        <pt x="478" y="-98" on="0"/>
        <pt x="435" y="-27" on="0"/>
        <pt x="424" y="-11" on="1"/>
        <pt x="380" y="-18" on="0"/>
        <pt x="348" y="-18" on="1"/>
        <pt x="208" y="-18" on="0"/>
        <pt x="62" y="132" on="0"/>
        <pt x="62" y="248" on="1"/>
        <pt x="62" y="329" on="0"/>
        <pt x="129" y="488" on="0"/>
      </contour>
      <contour>
        <pt x="253" y="569" on="1"/>
        <pt x="180" y="514" on="0"/>
        <pt x="110" y="351" on="0"/>
        <pt x="110" y="262" on="1"/>
        <pt x="110" y="152" on="0"/>
        <pt x="234" y="6" on="0"/>
        <pt x="355" y="6" on="1"/>
        <pt x="386" y="6" on="0"/>
        <pt x="410" y="11" on="1"/>
        <pt x="330" y="124" on="0"/>
        <pt x="273" y="124" on="1"/>
        <pt x="258" y="124" on="0"/>
        <pt x="228" y="89" on="0"/>
        <pt x="219" y="89" on="0"/>
        <pt x="219" y="91" on="1"/>
        <pt x="219" y="111" on="0"/>
        <pt x="273" y="152" on="0"/>
        <pt x="324" y="152" on="0"/>
        <pt x="383" y="106" on="0"/>
        <pt x="419" y="60" on="0"/>
        <pt x="446" y="20" on="1"/>
        <pt x="553" y="53" on="0"/>
        <pt x="703" y="237" on="0"/>
        <pt x="703" y="368" on="1"/>
        <pt x="703" y="456" on="0"/>
        <pt x="601" y="584" on="0"/>
        <pt x="521" y="594" on="1"/>
        <pt x="506" y="576" on="0"/>
        <pt x="491" y="576" on="0"/>
        <pt x="491" y="580" on="1"/>
        <pt x="491" y="588" on="0"/>
        <pt x="500" y="596" on="1"/>
        <pt x="486" y="597" on="0"/>
        <pt x="459" y="597" on="1"/>
        <pt x="356" y="597" on="0"/>
      </contour>
      <contour>
        <pt x="514" y="617" on="1"/>
        <pt x="523" y="638" on="0"/>
        <pt x="523" y="651" on="1"/>
        <pt x="523" y="675" on="0"/>
        <pt x="437" y="675" on="0"/>
        <pt x="323" y="633" on="0"/>
        <pt x="285" y="603" on="1"/>
        <pt x="344" y="621" on="0"/>
        <pt x="479" y="621" on="0"/>
      </contour>
    </TTGlyph>
    <TTGlyph name="R" xMin="76" yMin="-26" xMax="564" yMax="692">
      <contour>
        <pt x="538" y="110" on="1"/>
        <pt x="535" y="155" on="1"/>
        <pt x="535" y="171" on="0"/>
        <pt x="544" y="171" on="1"/>
        <pt x="564" y="171" on="0"/>
        <pt x="564" y="43" on="0"/>
        <pt x="505" y="-26" on="0"/>
        <pt x="444" y="-26" on="0"/>
        <pt x="369" y="18" on="0"/>
        <pt x="322" y="62" on="1"/>
        <pt x="246" y="131" on="0"/>
        <pt x="158" y="224" on="1"/>
        <pt x="130" y="249" on="1"/>
        <pt x="121" y="170" on="0"/>
        <pt x="121" y="31" on="0"/>
        <pt x="127" y="17" on="1"/>
        <pt x="127" y="13" on="0"/>
        <pt x="121" y="9" on="0"/>
        <pt x="121" y="8" on="1"/>
        <pt x="117" y="-2" on="0"/>
        <pt x="77" y="-2" on="0"/>
        <pt x="77" y="14" on="1"/>
        <pt x="77" y="91" on="0"/>
        <pt x="101" y="278" on="1"/>
        <pt x="76" y="305" on="0"/>
        <pt x="76" y="317" on="0"/>
        <pt x="82" y="317" on="1"/>
        <pt x="88" y="311" on="0"/>
        <pt x="105" y="311" on="1"/>
        <pt x="119" y="429" on="0"/>
        <pt x="151" y="572" on="1"/>
        <pt x="151" y="574" on="1"/>
        <pt x="148" y="587" on="1"/>
        <pt x="148" y="604" on="0"/>
        <pt x="156" y="628" on="1"/>
        <pt x="150" y="628" on="1"/>
        <pt x="111" y="626" on="1"/>
        <pt x="89" y="627" on="0"/>
        <pt x="89" y="634" on="1"/>
        <pt x="89" y="651" on="0"/>
        <pt x="162" y="651" on="1"/>
        <pt x="170" y="692" on="0"/>
        <pt x="223" y="692" on="1"/>
        <pt x="239" y="692" on="0"/>
        <pt x="239" y="680" on="1"/>
        <pt x="226" y="650" on="0"/>
        <pt x="225" y="647" on="1"/>
        <pt x="501" y="622" on="0"/>
        <pt x="501" y="489" on="1"/>
        <pt x="501" y="433" on="0"/>
        <pt x="408" y="328" on="0"/>
        <pt x="282" y="279" on="0"/>
        <pt x="191" y="279" on="1"/>
        <pt x="180" y="279" on="1"/>
        <pt x="163" y="279" on="0"/>
        <pt x="163" y="269" on="0"/>
        <pt x="185" y="247" on="0"/>
        <pt x="277" y="154" on="0"/>
        <pt x="327" y="108" on="0"/>
        <pt x="366" y="74" on="1"/>
        <pt x="441" y="10" on="0"/>
        <pt x="490" y="6" on="1"/>
        <pt x="538" y="6" on="0"/>
      </contour>
      <contour>
        <pt x="454" y="507" on="1"/>
        <pt x="445" y="535" on="0"/>
        <pt x="388" y="580" on="0"/>
        <pt x="350" y="593" on="1"/>
        <pt x="276" y="618" on="0"/>
        <pt x="218" y="624" on="1"/>
        <pt x="217" y="624" on="1"/>
        <pt x="200" y="590" on="0"/>
        <pt x="146" y="359" on="0"/>
        <pt x="141" y="309" on="1"/>
        <pt x="147" y="303" on="0"/>
        <pt x="242" y="303" on="0"/>
        <pt x="256" y="305" on="1"/>
        <pt x="324" y="312" on="0"/>
        <pt x="456" y="412" on="0"/>
        <pt x="456" y="481" on="1"/>
        <pt x="456" y="498" on="0"/>
      </contour>
    </TTGlyph>
    <TTGlyph name="S" xMin="39" yMin="-17" xMax="489" yMax="662">
      <contour>
        <pt x="131" y="473" on="1"/>
        <pt x="137" y="418" on="0"/>
        <pt x="209" y="352" on="0"/>
        <pt x="302" y="317" on="0"/>
        <pt x="394" y="284" on="0"/>
        <pt x="457" y="235" on="0"/>
        <pt x="457" y="199" on="1"/>
        <pt x="457" y="119" on="0"/>
        <pt x="269" y="-17" on="0"/>
        <pt x="39" y="-17" on="0"/>
        <pt x="39" y="54" on="1"/>
        <pt x="39" y="61" on="1"/>
        <pt x="39" y="96" on="0"/>
        <pt x="66" y="96" on="1"/>
        <pt x="71" y="96" on="0"/>
        <pt x="75" y="85" on="0"/>
        <pt x="78" y="75" on="1"/>
        <pt x="87" y="36" on="0"/>
        <pt x="123" y="24" on="1"/>
        <pt x="147" y="15" on="0"/>
        <pt x="188" y="15" on="1"/>
        <pt x="262" y="15" on="0"/>
        <pt x="403" y="103" on="0"/>
        <pt x="403" y="168" on="1"/>
        <pt x="403" y="230" on="0"/>
        <pt x="293" y="271" on="1"/>
        <pt x="247" y="288" on="0"/>
        <pt x="154" y="327" on="0"/>
        <pt x="90" y="396" on="0"/>
        <pt x="90" y="445" on="1"/>
        <pt x="90" y="530" on="0"/>
        <pt x="273" y="662" on="0"/>
        <pt x="389" y="662" on="1"/>
        <pt x="489" y="662" on="0"/>
        <pt x="489" y="563" on="1"/>
        <pt x="489" y="551" on="0"/>
        <pt x="473" y="515" on="0"/>
        <pt x="461" y="515" on="1"/>
        <pt x="454" y="515" on="0"/>
        <pt x="454" y="528" on="1"/>
        <pt x="454" y="548" on="1"/>
        <pt x="454" y="625" on="0"/>
        <pt x="358" y="625" on="1"/>
        <pt x="317" y="625" on="0"/>
        <pt x="216" y="593" on="0"/>
        <pt x="131" y="519" on="0"/>
      </contour>
    </TTGlyph>
    <TTGlyph name="Scaron" xMin="37" yMin="-20" xMax="508" yMax="830">
      <contour>
        <pt x="130" y="474" on="1"/>
        <pt x="136" y="419" on="0"/>
        <pt x="209" y="352" on="0"/>
        <pt x="303" y="317" on="0"/>
        <pt x="350" y="300" on="1"/>
        <pt x="459" y="262" on="0"/>
        <pt x="459" y="198" on="1"/>
        <pt x="459" y="117" on="0"/>
        <pt x="269" y="-20" on="0"/>
        <pt x="37" y="-20" on="0"/>
        <pt x="37" y="51" on="1"/>
        <pt x="37" y="58" on="1"/>
        <pt x="37" y="94" on="0"/>
        <pt x="64" y="94" on="1"/>
        <pt x="69" y="94" on="0"/>
        <pt x="72" y="83" on="0"/>
        <pt x="77" y="62" on="0"/>
        <pt x="82" y="54" on="1"/>
        <pt x="96" y="29" on="0"/>
        <pt x="145" y="12" on="0"/>
        <pt x="187" y="12" on="1"/>
        <pt x="263" y="12" on="0"/>
        <pt x="405" y="102" on="0"/>
        <pt x="405" y="167" on="1"/>
        <pt x="405" y="229" on="0"/>
        <pt x="293" y="270" on="1"/>
        <pt x="246" y="288" on="0"/>
        <pt x="153" y="327" on="0"/>
        <pt x="88" y="397" on="0"/>
        <pt x="88" y="446" on="1"/>
        <pt x="88" y="532" on="0"/>
        <pt x="273" y="665" on="0"/>
        <pt x="390" y="665" on="1"/>
        <pt x="491" y="665" on="0"/>
        <pt x="491" y="565" on="1"/>
        <pt x="491" y="553" on="0"/>
        <pt x="475" y="517" on="0"/>
        <pt x="463" y="517" on="1"/>
        <pt x="456" y="517" on="0"/>
        <pt x="456" y="530" on="1"/>
        <pt x="456" y="551" on="1"/>
        <pt x="456" y="628" on="0"/>
        <pt x="359" y="628" on="1"/>
        <pt x="318" y="628" on="0"/>
        <pt x="216" y="595" on="0"/>
        <pt x="130" y="520" on="0"/>
      </contour>
      <contour>
        <pt x="305" y="829" on="0"/>
        <pt x="316" y="829" on="0"/>
        <pt x="382" y="757" on="0"/>
        <pt x="392" y="742" on="1"/>
        <pt x="407" y="756" on="0"/>
        <pt x="503" y="830" on="0"/>
        <pt x="508" y="830" on="0"/>
        <pt x="508" y="823" on="0"/>
        <pt x="494" y="806" on="0"/>
        <pt x="388" y="707" on="0"/>
        <pt x="379" y="705" on="1"/>
        <pt x="374" y="707" on="0"/>
        <pt x="345" y="752" on="1"/>
        <pt x="305" y="815" on="0"/>
      </contour>
    </TTGlyph>
    <TTGlyph name="T" xMin="28" yMin="-8" xMax="597" yMax="658">
      <contour>
        <pt x="262" y="47" on="1"/>
        <pt x="269" y="21" on="1"/>
        <pt x="269" y="8" on="0"/>
        <pt x="250" y="-8" on="0"/>
        <pt x="238" y="-8" on="1"/>
        <pt x="214" y="-8" on="0"/>
        <pt x="214" y="14" on="1"/>
        <pt x="218" y="59" on="0"/>
        <pt x="232" y="233" on="0"/>
        <pt x="236" y="284" on="1"/>
        <pt x="248" y="419" on="0"/>
        <pt x="272" y="541" on="1"/>
        <pt x="272" y="571" on="1"/>
        <pt x="272" y="592" on="0"/>
        <pt x="282" y="618" on="1"/>
        <pt x="38" y="618" on="1"/>
        <pt x="28" y="618" on="0"/>
        <pt x="28" y="632" on="0"/>
        <pt x="45" y="649" on="0"/>
        <pt x="55" y="649" on="1"/>
        <pt x="310" y="649" on="1"/>
        <pt x="324" y="658" on="0"/>
        <pt x="361" y="658" on="0"/>
        <pt x="362" y="650" on="1"/>
        <pt x="547" y="650" on="0"/>
        <pt x="591" y="652" on="1"/>
        <pt x="597" y="652" on="0"/>
        <pt x="597" y="639" on="0"/>
        <pt x="577" y="621" on="0"/>
        <pt x="559" y="618" on="1"/>
        <pt x="349" y="618" on="1"/>
        <pt x="311" y="512" on="0"/>
        <pt x="262" y="138" on="0"/>
      </contour>
    </TTGlyph>
    <TTGlyph name="Thorn" xMin="-64" yMin="-253" xMax="390" yMax="717">
      <contour>
        <pt x="1" y="-165" on="1"/>
        <pt x="8" y="-201" on="1"/>
        <pt x="8" y="-215" on="0"/>
        <pt x="-14" y="-253" on="0"/>
        <pt x="-36" y="-253" on="1"/>
        <pt x="-64" y="-253" on="0"/>
        <pt x="-64" y="-218" on="1"/>
        <pt x="-64" y="-169" on="0"/>
        <pt x="44" y="132" on="1"/>
        <pt x="39" y="144" on="0"/>
        <pt x="39" y="155" on="1"/>
        <pt x="39" y="186" on="0"/>
        <pt x="69" y="205" on="1"/>
        <pt x="162" y="490" on="0"/>
        <pt x="175" y="540" on="1"/>
        <pt x="175" y="541" on="0"/>
        <pt x="145" y="546" on="0"/>
        <pt x="145" y="552" on="1"/>
        <pt x="145" y="563" on="0"/>
        <pt x="187" y="579" on="0"/>
        <pt x="187" y="580" on="1"/>
        <pt x="228" y="691" on="0"/>
        <pt x="235" y="698" on="1"/>
        <pt x="243" y="706" on="1"/>
        <pt x="254" y="717" on="0"/>
        <pt x="266" y="717" on="1"/>
        <pt x="284" y="717" on="0"/>
        <pt x="284" y="697" on="1"/>
        <pt x="284" y="688" on="0"/>
        <pt x="278" y="674" on="1"/>
        <pt x="240" y="583" on="1"/>
        <pt x="301" y="544" on="0"/>
        <pt x="390" y="371" on="0"/>
        <pt x="390" y="177" on="0"/>
        <pt x="280" y="61" on="0"/>
        <pt x="117" y="61" on="0"/>
        <pt x="77" y="94" on="1"/>
        <pt x="51" y="43" on="0"/>
        <pt x="1" y="-140" on="0"/>
      </contour>
      <contour>
        <pt x="329" y="329" on="1"/>
        <pt x="309" y="460" on="0"/>
        <pt x="227" y="531" on="1"/>
        <pt x="195" y="459" on="0"/>
        <pt x="94" y="124" on="1"/>
        <pt x="130" y="87" on="0"/>
        <pt x="261" y="87" on="0"/>
        <pt x="333" y="197" on="0"/>
        <pt x="333" y="275" on="1"/>
        <pt x="333" y="305" on="0"/>
      </contour>
    </TTGlyph>
    <TTGlyph name="U" xMin="56" yMin="-8" xMax="605" yMax="666">
      <contour>
        <pt x="119" y="547" on="1"/>
        <pt x="113" y="548" on="0"/>
        <pt x="113" y="575" on="0"/>
        <pt x="147" y="642" on="0"/>
        <pt x="157" y="651" on="1"/>
        <pt x="176" y="666" on="0"/>
        <pt x="193" y="666" on="1"/>
        <pt x="225" y="666" on="0"/>
        <pt x="225" y="649" on="1"/>
        <pt x="225" y="644" on="0"/>
        <pt x="221" y="640" on="1"/>
        <pt x="185" y="607" on="0"/>
        <pt x="125" y="399" on="0"/>
        <pt x="105" y="225" on="0"/>
        <pt x="105" y="180" on="1"/>
        <pt x="105" y="39" on="0"/>
        <pt x="175" y="39" on="1"/>
        <pt x="248" y="39" on="0"/>
        <pt x="378" y="214" on="1"/>
        <pt x="439" y="297" on="0"/>
        <pt x="515" y="481" on="0"/>
        <pt x="515" y="547" on="1"/>
        <pt x="515" y="569" on="1"/>
        <pt x="515" y="606" on="0"/>
        <pt x="552" y="657" on="0"/>
        <pt x="590" y="657" on="1"/>
        <pt x="605" y="657" on="0"/>
        <pt x="605" y="647" on="1"/>
        <pt x="605" y="645" on="1"/>
        <pt x="560" y="541" on="0"/>
        <pt x="503" y="168" on="0"/>
        <pt x="503" y="72" on="1"/>
        <pt x="511" y="61" on="0"/>
        <pt x="511" y="43" on="1"/>
        <pt x="511" y="-8" on="0"/>
        <pt x="478" y="-8" on="1"/>
        <pt x="454" y="-8" on="0"/>
        <pt x="454" y="14" on="1"/>
        <pt x="473" y="228" on="0"/>
        <pt x="487" y="345" on="1"/>
        <pt x="438" y="250" on="0"/>
        <pt x="333" y="107" on="0"/>
        <pt x="288" y="70" on="1"/>
        <pt x="129" y="-63" on="0"/>
        <pt x="79" y="52" on="1"/>
        <pt x="56" y="105" on="0"/>
        <pt x="56" y="193" on="1"/>
        <pt x="56" y="367" on="0"/>
      </contour>
    </TTGlyph>
    <TTGlyph name="Uacute" xMin="56" yMin="-8" xMax="605" yMax="850">
      <contour>
        <pt x="119" y="547" on="1"/>
        <pt x="113" y="548" on="0"/>
        <pt x="113" y="575" on="0"/>
        <pt x="147" y="642" on="0"/>
        <pt x="157" y="651" on="1"/>
        <pt x="176" y="666" on="0"/>
        <pt x="193" y="666" on="1"/>
        <pt x="225" y="666" on="0"/>
        <pt x="225" y="649" on="1"/>
        <pt x="225" y="644" on="0"/>
        <pt x="221" y="640" on="1"/>
        <pt x="185" y="607" on="0"/>
        <pt x="125" y="399" on="0"/>
        <pt x="105" y="225" on="0"/>
        <pt x="105" y="180" on="1"/>
        <pt x="105" y="39" on="0"/>
        <pt x="175" y="39" on="1"/>
        <pt x="248" y="39" on="0"/>
        <pt x="378" y="214" on="1"/>
        <pt x="439" y="297" on="0"/>
        <pt x="515" y="481" on="0"/>
        <pt x="515" y="547" on="1"/>
        <pt x="515" y="569" on="1"/>
        <pt x="515" y="606" on="0"/>
        <pt x="552" y="657" on="0"/>
        <pt x="590" y="657" on="1"/>
        <pt x="605" y="657" on="0"/>
        <pt x="605" y="647" on="1"/>
        <pt x="605" y="645" on="1"/>
        <pt x="560" y="541" on="0"/>
        <pt x="503" y="168" on="0"/>
        <pt x="503" y="72" on="1"/>
        <pt x="511" y="61" on="0"/>
        <pt x="511" y="43" on="1"/>
        <pt x="511" y="-8" on="0"/>
        <pt x="478" y="-8" on="1"/>
        <pt x="454" y="-8" on="0"/>
        <pt x="454" y="14" on="1"/>
        <pt x="473" y="228" on="0"/>
        <pt x="487" y="345" on="1"/>
        <pt x="438" y="250" on="0"/>
        <pt x="333" y="107" on="0"/>
        <pt x="288" y="70" on="1"/>
        <pt x="129" y="-63" on="0"/>
        <pt x="79" y="52" on="1"/>
        <pt x="56" y="105" on="0"/>
        <pt x="56" y="193" on="1"/>
        <pt x="56" y="367" on="0"/>
      </contour>
      <contour>
        <pt x="507" y="833" on="0"/>
        <pt x="507" y="813" on="0"/>
        <pt x="489" y="802" on="0"/>
        <pt x="336" y="726" on="0"/>
        <pt x="329" y="726" on="0"/>
        <pt x="329" y="729" on="1"/>
        <pt x="329" y="738" on="0"/>
        <pt x="374" y="774" on="1"/>
        <pt x="471" y="850" on="0"/>
        <pt x="486" y="850" on="1"/>
        <pt x="495" y="850" on="0"/>
      </contour>
    </TTGlyph>
    <TTGlyph name="Ucircumflex" xMin="56" yMin="-8" xMax="605" yMax="823">
      <contour>
        <pt x="119" y="547" on="1"/>
        <pt x="113" y="548" on="0"/>
        <pt x="113" y="575" on="0"/>
        <pt x="147" y="642" on="0"/>
        <pt x="157" y="651" on="1"/>
        <pt x="176" y="666" on="0"/>
        <pt x="193" y="666" on="1"/>
        <pt x="225" y="666" on="0"/>
        <pt x="225" y="649" on="1"/>
        <pt x="225" y="644" on="0"/>
        <pt x="221" y="640" on="1"/>
        <pt x="185" y="607" on="0"/>
        <pt x="125" y="399" on="0"/>
        <pt x="105" y="225" on="0"/>
        <pt x="105" y="180" on="1"/>
        <pt x="105" y="39" on="0"/>
        <pt x="175" y="39" on="1"/>
        <pt x="248" y="39" on="0"/>
        <pt x="378" y="214" on="1"/>
        <pt x="439" y="297" on="0"/>
        <pt x="515" y="481" on="0"/>
        <pt x="515" y="547" on="1"/>
        <pt x="515" y="569" on="1"/>
        <pt x="515" y="606" on="0"/>
        <pt x="552" y="657" on="0"/>
        <pt x="590" y="657" on="1"/>
        <pt x="605" y="657" on="0"/>
        <pt x="605" y="647" on="1"/>
        <pt x="605" y="645" on="1"/>
        <pt x="560" y="541" on="0"/>
        <pt x="503" y="168" on="0"/>
        <pt x="503" y="72" on="1"/>
        <pt x="511" y="61" on="0"/>
        <pt x="511" y="43" on="1"/>
        <pt x="511" y="-8" on="0"/>
        <pt x="478" y="-8" on="1"/>
        <pt x="454" y="-8" on="0"/>
        <pt x="454" y="14" on="1"/>
        <pt x="473" y="228" on="0"/>
        <pt x="487" y="345" on="1"/>
        <pt x="438" y="250" on="0"/>
        <pt x="333" y="107" on="0"/>
        <pt x="288" y="70" on="1"/>
        <pt x="129" y="-63" on="0"/>
        <pt x="79" y="52" on="1"/>
        <pt x="56" y="105" on="0"/>
        <pt x="56" y="193" on="1"/>
        <pt x="56" y="367" on="0"/>
      </contour>
      <contour>
        <pt x="432" y="821" on="0"/>
        <pt x="490" y="730" on="0"/>
        <pt x="500" y="711" on="0"/>
        <pt x="500" y="698" on="0"/>
        <pt x="491" y="698" on="0"/>
        <pt x="424" y="771" on="0"/>
        <pt x="414" y="786" on="1"/>
        <pt x="397" y="771" on="0"/>
        <pt x="303" y="698" on="0"/>
        <pt x="298" y="698" on="0"/>
        <pt x="298" y="705" on="0"/>
        <pt x="312" y="722" on="0"/>
        <pt x="418" y="821" on="0"/>
        <pt x="427" y="823" on="1"/>
      </contour>
    </TTGlyph>
    <TTGlyph name="Udieresis" xMin="56" yMin="-8" xMax="605" yMax="833">
      <contour>
        <pt x="119" y="547" on="1"/>
        <pt x="113" y="548" on="0"/>
        <pt x="113" y="575" on="0"/>
        <pt x="147" y="642" on="0"/>
        <pt x="157" y="651" on="1"/>
        <pt x="176" y="666" on="0"/>
        <pt x="193" y="666" on="1"/>
        <pt x="225" y="666" on="0"/>
        <pt x="225" y="649" on="1"/>
        <pt x="225" y="644" on="0"/>
        <pt x="221" y="640" on="1"/>
        <pt x="185" y="607" on="0"/>
        <pt x="125" y="399" on="0"/>
        <pt x="105" y="225" on="0"/>
        <pt x="105" y="180" on="1"/>
        <pt x="105" y="39" on="0"/>
        <pt x="175" y="39" on="1"/>
        <pt x="248" y="39" on="0"/>
        <pt x="378" y="214" on="1"/>
        <pt x="439" y="297" on="0"/>
        <pt x="515" y="481" on="0"/>
        <pt x="515" y="547" on="1"/>
        <pt x="515" y="569" on="1"/>
        <pt x="515" y="606" on="0"/>
        <pt x="552" y="657" on="0"/>
        <pt x="590" y="657" on="1"/>
        <pt x="605" y="657" on="0"/>
        <pt x="605" y="647" on="1"/>
        <pt x="605" y="645" on="1"/>
        <pt x="560" y="541" on="0"/>
        <pt x="503" y="168" on="0"/>
        <pt x="503" y="72" on="1"/>
        <pt x="511" y="61" on="0"/>
        <pt x="511" y="43" on="1"/>
        <pt x="511" y="-8" on="0"/>
        <pt x="478" y="-8" on="1"/>
        <pt x="454" y="-8" on="0"/>
        <pt x="454" y="14" on="1"/>
        <pt x="473" y="228" on="0"/>
        <pt x="487" y="345" on="1"/>
        <pt x="438" y="250" on="0"/>
        <pt x="333" y="107" on="0"/>
        <pt x="288" y="70" on="1"/>
        <pt x="129" y="-63" on="0"/>
        <pt x="79" y="52" on="1"/>
        <pt x="56" y="105" on="0"/>
        <pt x="56" y="193" on="1"/>
        <pt x="56" y="367" on="0"/>
      </contour>
      <contour>
        <pt x="493" y="830" on="1"/>
        <pt x="493" y="820" on="0"/>
        <pt x="481" y="776" on="0"/>
        <pt x="481" y="775" on="1"/>
        <pt x="481" y="761" on="0"/>
        <pt x="454" y="754" on="1"/>
        <pt x="436" y="754" on="0"/>
        <pt x="436" y="799" on="0"/>
        <pt x="470" y="833" on="0"/>
        <pt x="487" y="833" on="1"/>
        <pt x="492" y="833" on="0"/>
      </contour>
      <contour>
        <pt x="365" y="830" on="1"/>
        <pt x="365" y="820" on="0"/>
        <pt x="353" y="776" on="0"/>
        <pt x="353" y="775" on="1"/>
        <pt x="353" y="761" on="0"/>
        <pt x="326" y="754" on="1"/>
        <pt x="309" y="754" on="0"/>
        <pt x="309" y="799" on="0"/>
        <pt x="343" y="833" on="0"/>
        <pt x="360" y="833" on="1"/>
        <pt x="364" y="833" on="0"/>
      </contour>
    </TTGlyph>
    <TTGlyph name="Ugrave" xMin="56" yMin="-8" xMax="605" yMax="850">
      <contour>
        <pt x="119" y="547" on="1"/>
        <pt x="113" y="548" on="0"/>
        <pt x="113" y="575" on="0"/>
        <pt x="147" y="642" on="0"/>
        <pt x="157" y="651" on="1"/>
        <pt x="176" y="666" on="0"/>
        <pt x="193" y="666" on="1"/>
        <pt x="225" y="666" on="0"/>
        <pt x="225" y="649" on="1"/>
        <pt x="225" y="644" on="0"/>
        <pt x="221" y="640" on="1"/>
        <pt x="185" y="607" on="0"/>
        <pt x="125" y="399" on="0"/>
        <pt x="105" y="225" on="0"/>
        <pt x="105" y="180" on="1"/>
        <pt x="105" y="39" on="0"/>
        <pt x="175" y="39" on="1"/>
        <pt x="248" y="39" on="0"/>
        <pt x="378" y="214" on="1"/>
        <pt x="439" y="297" on="0"/>
        <pt x="515" y="481" on="0"/>
        <pt x="515" y="547" on="1"/>
        <pt x="515" y="569" on="1"/>
        <pt x="515" y="606" on="0"/>
        <pt x="552" y="657" on="0"/>
        <pt x="590" y="657" on="1"/>
        <pt x="605" y="657" on="0"/>
        <pt x="605" y="647" on="1"/>
        <pt x="605" y="645" on="1"/>
        <pt x="560" y="541" on="0"/>
        <pt x="503" y="168" on="0"/>
        <pt x="503" y="72" on="1"/>
        <pt x="511" y="61" on="0"/>
        <pt x="511" y="43" on="1"/>
        <pt x="511" y="-8" on="0"/>
        <pt x="478" y="-8" on="1"/>
        <pt x="454" y="-8" on="0"/>
        <pt x="454" y="14" on="1"/>
        <pt x="473" y="228" on="0"/>
        <pt x="487" y="345" on="1"/>
        <pt x="438" y="250" on="0"/>
        <pt x="333" y="107" on="0"/>
        <pt x="288" y="70" on="1"/>
        <pt x="129" y="-63" on="0"/>
        <pt x="79" y="52" on="1"/>
        <pt x="56" y="105" on="0"/>
        <pt x="56" y="193" on="1"/>
        <pt x="56" y="367" on="0"/>
      </contour>
      <contour>
        <pt x="446" y="726" on="0"/>
        <pt x="440" y="726" on="0"/>
        <pt x="287" y="802" on="0"/>
        <pt x="269" y="812" on="0"/>
        <pt x="269" y="833" on="0"/>
        <pt x="281" y="850" on="0"/>
        <pt x="294" y="850" on="0"/>
        <pt x="300" y="847" on="1"/>
        <pt x="355" y="810" on="0"/>
        <pt x="446" y="738" on="0"/>
        <pt x="446" y="729" on="1"/>
      </contour>
    </TTGlyph>
    <TTGlyph name="V" xMin="68" yMin="-3" xMax="577" yMax="699">
      <contour>
        <pt x="533" y="642" on="1"/>
        <pt x="528" y="684" on="1"/>
        <pt x="528" y="699" on="0"/>
        <pt x="556" y="699" on="1"/>
        <pt x="577" y="699" on="0"/>
        <pt x="577" y="664" on="1"/>
        <pt x="577" y="610" on="0"/>
        <pt x="472" y="313" on="0"/>
        <pt x="425" y="225" on="1"/>
        <pt x="352" y="103" on="0"/>
        <pt x="229" y="-3" on="0"/>
        <pt x="143" y="-3" on="0"/>
        <pt x="116" y="39" on="1"/>
        <pt x="68" y="116" on="0"/>
        <pt x="68" y="423" on="0"/>
        <pt x="96" y="542" on="1"/>
        <pt x="89" y="543" on="0"/>
        <pt x="89" y="557" on="1"/>
        <pt x="89" y="609" on="0"/>
        <pt x="141" y="669" on="0"/>
        <pt x="190" y="669" on="0"/>
        <pt x="190" y="653" on="1"/>
        <pt x="190" y="648" on="0"/>
        <pt x="187" y="644" on="1"/>
        <pt x="160" y="611" on="0"/>
        <pt x="119" y="360" on="0"/>
        <pt x="119" y="170" on="0"/>
        <pt x="157" y="39" on="0"/>
        <pt x="205" y="39" on="1"/>
        <pt x="285" y="39" on="0"/>
        <pt x="401" y="243" on="1"/>
        <pt x="452" y="335" on="0"/>
        <pt x="533" y="582" on="0"/>
      </contour>
    </TTGlyph>
    <TTGlyph name="W" xMin="56" yMin="-1" xMax="874" yMax="669">
      <contour>
        <pt x="826" y="613" on="1"/>
        <pt x="824" y="651" on="1"/>
        <pt x="824" y="669" on="0"/>
        <pt x="844" y="669" on="1"/>
        <pt x="874" y="669" on="0"/>
        <pt x="874" y="547" on="0"/>
        <pt x="796" y="315" on="0"/>
        <pt x="755" y="232" on="1"/>
        <pt x="700" y="117" on="0"/>
        <pt x="576" y="0" on="0"/>
        <pt x="531" y="0" on="1"/>
        <pt x="474" y="0" on="0"/>
        <pt x="421" y="138" on="0"/>
        <pt x="421" y="249" on="1"/>
        <pt x="421" y="285" on="0"/>
        <pt x="424" y="321" on="1"/>
        <pt x="391" y="232" on="0"/>
        <pt x="308" y="97" on="0"/>
        <pt x="270" y="64" on="1"/>
        <pt x="197" y="-1" on="0"/>
        <pt x="102" y="-1" on="0"/>
        <pt x="56" y="105" on="0"/>
        <pt x="56" y="193" on="1"/>
        <pt x="56" y="367" on="0"/>
        <pt x="119" y="547" on="1"/>
        <pt x="113" y="548" on="0"/>
        <pt x="113" y="575" on="0"/>
        <pt x="147" y="642" on="0"/>
        <pt x="157" y="651" on="1"/>
        <pt x="176" y="666" on="0"/>
        <pt x="193" y="666" on="1"/>
        <pt x="225" y="666" on="0"/>
        <pt x="225" y="649" on="1"/>
        <pt x="225" y="644" on="0"/>
        <pt x="221" y="640" on="1"/>
        <pt x="185" y="607" on="0"/>
        <pt x="125" y="399" on="0"/>
        <pt x="105" y="225" on="0"/>
        <pt x="105" y="180" on="1"/>
        <pt x="105" y="39" on="0"/>
        <pt x="175" y="39" on="1"/>
        <pt x="213" y="39" on="0"/>
        <pt x="285" y="121" on="1"/>
        <pt x="321" y="162" on="0"/>
        <pt x="402" y="314" on="0"/>
        <pt x="434" y="409" on="1"/>
        <pt x="445" y="491" on="0"/>
        <pt x="462" y="546" on="1"/>
        <pt x="453" y="549" on="0"/>
        <pt x="453" y="560" on="1"/>
        <pt x="453" y="591" on="0"/>
        <pt x="498" y="628" on="0"/>
        <pt x="530" y="628" on="0"/>
        <pt x="547" y="617" on="0"/>
        <pt x="547" y="606" on="0"/>
        <pt x="543" y="602" on="1"/>
        <pt x="512" y="571" on="0"/>
        <pt x="469" y="369" on="0"/>
        <pt x="469" y="165" on="0"/>
        <pt x="510" y="39" on="0"/>
        <pt x="552" y="39" on="1"/>
        <pt x="624" y="39" on="0"/>
        <pt x="721" y="237" on="1"/>
        <pt x="767" y="331" on="0"/>
        <pt x="826" y="544" on="0"/>
      </contour>
    </TTGlyph>
    <TTGlyph name="X" xMin="0" yMin="-16" xMax="646" yMax="664">
      <contour>
        <pt x="212" y="654" on="0"/>
        <pt x="244" y="642" on="0"/>
        <pt x="244" y="632" on="0"/>
        <pt x="214" y="625" on="0"/>
        <pt x="214" y="600" on="1"/>
        <pt x="214" y="529" on="0"/>
        <pt x="300" y="340" on="1"/>
        <pt x="330" y="364" on="0"/>
        <pt x="407" y="436" on="0"/>
        <pt x="475" y="499" on="0"/>
        <pt x="510" y="539" on="0"/>
        <pt x="532" y="564" on="1"/>
        <pt x="572" y="611" on="0"/>
        <pt x="572" y="642" on="1"/>
        <pt x="572" y="654" on="1"/>
        <pt x="572" y="664" on="0"/>
        <pt x="578" y="664" on="1"/>
        <pt x="596" y="664" on="0"/>
        <pt x="596" y="629" on="1"/>
        <pt x="596" y="595" on="0"/>
        <pt x="558" y="548" on="1"/>
        <pt x="519" y="498" on="0"/>
        <pt x="438" y="422" on="0"/>
        <pt x="418" y="404" on="1"/>
        <pt x="363" y="354" on="1"/>
        <pt x="328" y="323" on="0"/>
        <pt x="314" y="311" on="1"/>
        <pt x="366" y="196" on="0"/>
        <pt x="474" y="28" on="0"/>
        <pt x="512" y="28" on="1"/>
        <pt x="536" y="28" on="0"/>
        <pt x="584" y="86" on="0"/>
        <pt x="613" y="154" on="0"/>
        <pt x="636" y="212" on="0"/>
        <pt x="639" y="212" on="1"/>
        <pt x="646" y="212" on="0"/>
        <pt x="646" y="190" on="0"/>
        <pt x="645" y="187" on="1"/>
        <pt x="620" y="84" on="0"/>
        <pt x="522" y="-7" on="0"/>
        <pt x="477" y="-7" on="1"/>
        <pt x="409" y="-7" on="0"/>
        <pt x="289" y="256" on="1"/>
        <pt x="278" y="278" on="1"/>
        <pt x="212" y="217" on="0"/>
        <pt x="43" y="33" on="0"/>
        <pt x="22" y="-16" on="0"/>
        <pt x="0" y="-16" on="0"/>
        <pt x="0" y="-3" on="1"/>
        <pt x="0" y="2" on="0"/>
        <pt x="3" y="8" on="1"/>
        <pt x="45" y="108" on="0"/>
        <pt x="265" y="308" on="1"/>
        <pt x="232" y="385" on="0"/>
        <pt x="158" y="589" on="1"/>
        <pt x="151" y="607" on="0"/>
        <pt x="151" y="625" on="1"/>
        <pt x="151" y="654" on="0"/>
        <pt x="200" y="654" on="1"/>
      </contour>
    </TTGlyph>
    <TTGlyph name="Y" xMin="30" yMin="0" xMax="508" yMax="667">
      <contour>
        <pt x="95" y="69" on="1"/>
        <pt x="145" y="177" on="0"/>
        <pt x="145" y="261" on="1"/>
        <pt x="145" y="272" on="0"/>
        <pt x="144" y="276" on="1"/>
        <pt x="95" y="404" on="0"/>
        <pt x="37" y="584" on="1"/>
        <pt x="30" y="604" on="0"/>
        <pt x="30" y="623" on="1"/>
        <pt x="30" y="654" on="0"/>
        <pt x="75" y="654" on="1"/>
        <pt x="87" y="654" on="0"/>
        <pt x="117" y="646" on="0"/>
        <pt x="117" y="634" on="0"/>
        <pt x="108" y="628" on="0"/>
        <pt x="106" y="626" on="1"/>
        <pt x="93" y="623" on="0"/>
        <pt x="93" y="598" on="1"/>
        <pt x="93" y="530" on="0"/>
        <pt x="185" y="309" on="1"/>
        <pt x="286" y="395" on="0"/>
        <pt x="437" y="579" on="0"/>
        <pt x="458" y="667" on="0"/>
        <pt x="485" y="667" on="1"/>
        <pt x="508" y="667" on="0"/>
        <pt x="508" y="621" on="0"/>
        <pt x="403" y="493" on="1"/>
        <pt x="341" y="418" on="0"/>
        <pt x="197" y="284" on="1"/>
        <pt x="187" y="256" on="0"/>
        <pt x="166" y="146" on="0"/>
        <pt x="162" y="83" on="0"/>
        <pt x="156" y="50" on="0"/>
        <pt x="148" y="32" on="1"/>
        <pt x="133" y="0" on="0"/>
        <pt x="84" y="0" on="1"/>
        <pt x="67" y="0" on="0"/>
        <pt x="67" y="18" on="0"/>
      </contour>
    </TTGlyph>
    <TTGlyph name="Yacute" xMin="30" yMin="0" xMax="508" yMax="820">
      <contour>
        <pt x="95" y="69" on="1"/>
        <pt x="145" y="177" on="0"/>
        <pt x="145" y="261" on="1"/>
        <pt x="145" y="272" on="0"/>
        <pt x="144" y="276" on="1"/>
        <pt x="95" y="404" on="0"/>
        <pt x="37" y="584" on="1"/>
        <pt x="30" y="604" on="0"/>
        <pt x="30" y="623" on="1"/>
        <pt x="30" y="654" on="0"/>
        <pt x="75" y="654" on="1"/>
        <pt x="87" y="654" on="0"/>
        <pt x="117" y="646" on="0"/>
        <pt x="117" y="640" on="1"/>
        <pt x="117" y="632" on="0"/>
        <pt x="93" y="617" on="0"/>
        <pt x="93" y="598" on="1"/>
        <pt x="93" y="530" on="0"/>
        <pt x="185" y="309" on="1"/>
        <pt x="286" y="395" on="0"/>
        <pt x="437" y="579" on="0"/>
        <pt x="458" y="667" on="0"/>
        <pt x="485" y="667" on="1"/>
        <pt x="508" y="667" on="0"/>
        <pt x="508" y="621" on="0"/>
        <pt x="403" y="493" on="1"/>
        <pt x="341" y="418" on="0"/>
        <pt x="197" y="284" on="1"/>
        <pt x="187" y="256" on="0"/>
        <pt x="166" y="146" on="0"/>
        <pt x="162" y="83" on="0"/>
        <pt x="156" y="50" on="0"/>
        <pt x="148" y="32" on="1"/>
        <pt x="133" y="0" on="0"/>
        <pt x="84" y="0" on="1"/>
        <pt x="67" y="0" on="0"/>
        <pt x="67" y="18" on="0"/>
      </contour>
      <contour>
        <pt x="402" y="804" on="0"/>
        <pt x="402" y="784" on="0"/>
        <pt x="384" y="773" on="0"/>
        <pt x="231" y="697" on="0"/>
        <pt x="224" y="697" on="0"/>
        <pt x="224" y="700" on="1"/>
        <pt x="224" y="709" on="0"/>
        <pt x="314" y="780" on="0"/>
        <pt x="375" y="820" on="0"/>
        <pt x="390" y="820" on="0"/>
      </contour>
    </TTGlyph>
    <TTGlyph name="Ydieresis" xMin="30" yMin="0" xMax="508" yMax="833">
      <contour>
        <pt x="95" y="69" on="1"/>
        <pt x="145" y="177" on="0"/>
        <pt x="145" y="261" on="1"/>
        <pt x="145" y="272" on="0"/>
        <pt x="144" y="276" on="1"/>
        <pt x="95" y="404" on="0"/>
        <pt x="37" y="584" on="1"/>
        <pt x="30" y="604" on="0"/>
        <pt x="30" y="623" on="1"/>
        <pt x="30" y="654" on="0"/>
        <pt x="75" y="654" on="1"/>
        <pt x="87" y="654" on="0"/>
        <pt x="117" y="646" on="0"/>
        <pt x="117" y="634" on="0"/>
        <pt x="108" y="628" on="0"/>
        <pt x="106" y="626" on="1"/>
        <pt x="93" y="623" on="0"/>
        <pt x="93" y="598" on="1"/>
        <pt x="93" y="530" on="0"/>
        <pt x="185" y="309" on="1"/>
        <pt x="286" y="395" on="0"/>
        <pt x="437" y="579" on="0"/>
        <pt x="458" y="667" on="0"/>
        <pt x="485" y="667" on="1"/>
        <pt x="508" y="667" on="0"/>
        <pt x="508" y="621" on="0"/>
        <pt x="403" y="493" on="1"/>
        <pt x="341" y="418" on="0"/>
        <pt x="197" y="284" on="1"/>
        <pt x="187" y="256" on="0"/>
        <pt x="166" y="146" on="0"/>
        <pt x="162" y="83" on="0"/>
        <pt x="156" y="50" on="0"/>
        <pt x="148" y="32" on="1"/>
        <pt x="133" y="0" on="0"/>
        <pt x="84" y="0" on="1"/>
        <pt x="67" y="0" on="0"/>
        <pt x="67" y="18" on="0"/>
      </contour>
      <contour>
        <pt x="384" y="830" on="1"/>
        <pt x="384" y="820" on="0"/>
        <pt x="372" y="776" on="0"/>
        <pt x="372" y="775" on="1"/>
        <pt x="372" y="761" on="0"/>
        <pt x="345" y="754" on="1"/>
        <pt x="327" y="754" on="0"/>
        <pt x="327" y="799" on="0"/>
        <pt x="361" y="833" on="0"/>
        <pt x="378" y="833" on="1"/>
        <pt x="382" y="833" on="0"/>
      </contour>
      <contour>
        <pt x="256" y="830" on="1"/>
        <pt x="256" y="820" on="0"/>
        <pt x="244" y="776" on="0"/>
        <pt x="244" y="775" on="1"/>
        <pt x="244" y="761" on="0"/>
        <pt x="217" y="754" on="1"/>
        <pt x="200" y="754" on="0"/>
        <pt x="200" y="799" on="0"/>
        <pt x="234" y="833" on="0"/>
        <pt x="251" y="833" on="1"/>
        <pt x="254" y="833" on="0"/>
      </contour>
    </TTGlyph>
    <TTGlyph name="Z" xMin="24" yMin="-39" xMax="565" yMax="652">
      <contour>
        <pt x="486" y="-39" on="1"/>
        <pt x="481" y="-39" on="0"/>
        <pt x="481" y="-32" on="1"/>
        <pt x="481" y="-29" on="1"/>
        <pt x="499" y="-8" on="0"/>
        <pt x="499" y="9" on="1"/>
        <pt x="499" y="44" on="0"/>
        <pt x="426" y="44" on="1"/>
        <pt x="356" y="44" on="0"/>
        <pt x="245" y="29" on="0"/>
        <pt x="136" y="13" on="0"/>
        <pt x="96" y="8" on="0"/>
        <pt x="78" y="4" on="1"/>
        <pt x="39" y="-5" on="0"/>
        <pt x="34" y="-5" on="0"/>
        <pt x="32" y="-2" on="1"/>
        <pt x="24" y="7" on="0"/>
        <pt x="24" y="45" on="0"/>
        <pt x="27" y="60" on="1"/>
        <pt x="35" y="98" on="0"/>
        <pt x="275" y="348" on="0"/>
        <pt x="505" y="583" on="0"/>
        <pt x="505" y="605" on="1"/>
        <pt x="505" y="613" on="0"/>
        <pt x="405" y="621" on="0"/>
        <pt x="302" y="621" on="0"/>
        <pt x="175" y="607" on="0"/>
        <pt x="159" y="593" on="1"/>
        <pt x="168" y="587" on="0"/>
        <pt x="167" y="566" on="0"/>
        <pt x="154" y="566" on="0"/>
        <pt x="120" y="600" on="0"/>
        <pt x="120" y="612" on="1"/>
        <pt x="120" y="642" on="0"/>
        <pt x="226" y="648" on="1"/>
        <pt x="300" y="652" on="0"/>
        <pt x="497" y="652" on="0"/>
        <pt x="538" y="648" on="1"/>
        <pt x="550" y="645" on="0"/>
        <pt x="565" y="620" on="0"/>
        <pt x="565" y="595" on="0"/>
        <pt x="560" y="587" on="1"/>
        <pt x="517" y="522" on="0"/>
        <pt x="290" y="302" on="1"/>
        <pt x="207" y="221" on="0"/>
        <pt x="63" y="61" on="0"/>
        <pt x="53" y="29" on="1"/>
        <pt x="54" y="29" on="0"/>
        <pt x="148" y="49" on="0"/>
        <pt x="194" y="58" on="1"/>
        <pt x="325" y="82" on="0"/>
        <pt x="470" y="82" on="0"/>
        <pt x="533" y="66" on="0"/>
        <pt x="533" y="17" on="0"/>
        <pt x="497" y="-39" on="0"/>
      </contour>
    </TTGlyph>
    <TTGlyph name="Zcaron" xMin="23" yMin="-39" xMax="569" yMax="819">
      <contour>
        <pt x="486" y="-39" on="1"/>
        <pt x="481" y="-39" on="0"/>
        <pt x="481" y="-32" on="1"/>
        <pt x="481" y="-29" on="1"/>
        <pt x="499" y="-8" on="0"/>
        <pt x="499" y="9" on="1"/>
        <pt x="499" y="44" on="0"/>
        <pt x="426" y="44" on="1"/>
        <pt x="356" y="44" on="0"/>
        <pt x="245" y="29" on="0"/>
        <pt x="136" y="13" on="0"/>
        <pt x="96" y="8" on="0"/>
        <pt x="78" y="4" on="1"/>
        <pt x="39" y="-5" on="0"/>
        <pt x="35" y="-5" on="1"/>
        <pt x="23" y="3" on="0"/>
        <pt x="23" y="47" on="0"/>
        <pt x="27" y="60" on="1"/>
        <pt x="31" y="90" on="0"/>
        <pt x="184" y="261" on="0"/>
        <pt x="362" y="433" on="0"/>
        <pt x="509" y="593" on="0"/>
        <pt x="509" y="614" on="1"/>
        <pt x="509" y="622" on="0"/>
        <pt x="409" y="630" on="0"/>
        <pt x="306" y="630" on="0"/>
        <pt x="179" y="616" on="0"/>
        <pt x="163" y="602" on="1"/>
        <pt x="172" y="596" on="0"/>
        <pt x="171" y="575" on="0"/>
        <pt x="158" y="575" on="0"/>
        <pt x="124" y="609" on="0"/>
        <pt x="124" y="621" on="1"/>
        <pt x="124" y="651" on="0"/>
        <pt x="230" y="657" on="1"/>
        <pt x="305" y="661" on="0"/>
        <pt x="501" y="661" on="0"/>
        <pt x="542" y="657" on="1"/>
        <pt x="554" y="654" on="0"/>
        <pt x="569" y="629" on="0"/>
        <pt x="569" y="601" on="0"/>
        <pt x="536" y="551" on="0"/>
        <pt x="498" y="510" on="1"/>
        <pt x="449" y="456" on="0"/>
        <pt x="147" y="154" on="0"/>
        <pt x="60" y="52" on="0"/>
        <pt x="53" y="29" on="1"/>
        <pt x="54" y="29" on="0"/>
        <pt x="148" y="49" on="0"/>
        <pt x="194" y="58" on="1"/>
        <pt x="325" y="82" on="0"/>
        <pt x="470" y="82" on="0"/>
        <pt x="533" y="66" on="0"/>
        <pt x="533" y="17" on="0"/>
        <pt x="497" y="-39" on="0"/>
      </contour>
      <contour>
        <pt x="297" y="818" on="0"/>
        <pt x="308" y="818" on="0"/>
        <pt x="374" y="746" on="0"/>
        <pt x="384" y="731" on="1"/>
        <pt x="399" y="745" on="0"/>
        <pt x="495" y="819" on="0"/>
        <pt x="500" y="819" on="0"/>
        <pt x="500" y="812" on="0"/>
        <pt x="486" y="795" on="0"/>
        <pt x="380" y="696" on="0"/>
        <pt x="371" y="694" on="1"/>
        <pt x="366" y="696" on="0"/>
        <pt x="337" y="742" on="1"/>
        <pt x="297" y="804" on="0"/>
      </contour>
    </TTGlyph>
    <TTGlyph name="a" xMin="6" yMin="-3" xMax="342" yMax="381">
      <contour>
        <pt x="332" y="80" on="1"/>
        <pt x="320" y="68" on="0"/>
        <pt x="305" y="56" on="0"/>
        <pt x="286" y="39" on="0"/>
        <pt x="272" y="29" on="0"/>
        <pt x="252" y="15" on="0"/>
        <pt x="244" y="12" on="1"/>
        <pt x="224" y="2" on="0"/>
        <pt x="214" y="2" on="1"/>
        <pt x="193" y="2" on="0"/>
        <pt x="189" y="27" on="1"/>
        <pt x="189" y="69" on="0"/>
        <pt x="222" y="182" on="1"/>
        <pt x="88" y="-3" on="0"/>
        <pt x="30" y="-3" on="1"/>
        <pt x="6" y="-3" on="0"/>
        <pt x="6" y="79" on="0"/>
        <pt x="61" y="236" on="0"/>
        <pt x="141" y="363" on="0"/>
        <pt x="171" y="363" on="1"/>
        <pt x="174" y="363" on="1"/>
        <pt x="185" y="371" on="1"/>
        <pt x="194" y="381" on="0"/>
        <pt x="228" y="381" on="0"/>
        <pt x="282" y="365" on="0"/>
        <pt x="289" y="365" on="0"/>
        <pt x="302" y="381" on="0"/>
        <pt x="311" y="381" on="1"/>
        <pt x="336" y="381" on="0"/>
        <pt x="336" y="359" on="1"/>
        <pt x="336" y="344" on="0"/>
        <pt x="316" y="299" on="0"/>
        <pt x="314" y="294" on="0"/>
        <pt x="297" y="286" on="0"/>
        <pt x="296" y="283" on="1"/>
        <pt x="274" y="221" on="0"/>
        <pt x="240" y="80" on="0"/>
        <pt x="240" y="39" on="0"/>
        <pt x="268" y="39" on="0"/>
        <pt x="309" y="73" on="0"/>
        <pt x="339" y="107" on="0"/>
        <pt x="342" y="107" on="0"/>
        <pt x="342" y="88" on="0"/>
      </contour>
      <contour>
        <pt x="266" y="346" on="1"/>
        <pt x="221" y="350" on="1"/>
        <pt x="207" y="350" on="0"/>
        <pt x="191" y="346" on="1"/>
        <pt x="166" y="339" on="0"/>
        <pt x="52" y="116" on="0"/>
        <pt x="52" y="61" on="1"/>
        <pt x="52" y="44" on="0"/>
        <pt x="62" y="44" on="1"/>
        <pt x="83" y="44" on="0"/>
        <pt x="190" y="166" on="0"/>
        <pt x="232" y="232" on="0"/>
        <pt x="274" y="325" on="0"/>
        <pt x="274" y="346" on="0"/>
        <pt x="269" y="346" on="1"/>
      </contour>
    </TTGlyph>
    <TTGlyph name="aacute" xMin="6" yMin="-3" xMax="366" yMax="564">
      <contour>
        <pt x="332" y="80" on="1"/>
        <pt x="320" y="68" on="0"/>
        <pt x="305" y="56" on="0"/>
        <pt x="286" y="39" on="0"/>
        <pt x="272" y="29" on="0"/>
        <pt x="252" y="15" on="0"/>
        <pt x="244" y="12" on="1"/>
        <pt x="224" y="2" on="0"/>
        <pt x="214" y="2" on="1"/>
        <pt x="193" y="2" on="0"/>
        <pt x="189" y="27" on="1"/>
        <pt x="189" y="69" on="0"/>
        <pt x="222" y="182" on="1"/>
        <pt x="88" y="-3" on="0"/>
        <pt x="30" y="-3" on="1"/>
        <pt x="6" y="-3" on="0"/>
        <pt x="6" y="79" on="0"/>
        <pt x="61" y="236" on="0"/>
        <pt x="141" y="363" on="0"/>
        <pt x="171" y="363" on="1"/>
        <pt x="174" y="363" on="1"/>
        <pt x="185" y="371" on="1"/>
        <pt x="194" y="381" on="0"/>
        <pt x="228" y="381" on="0"/>
        <pt x="282" y="365" on="0"/>
        <pt x="289" y="365" on="0"/>
        <pt x="302" y="381" on="0"/>
        <pt x="311" y="381" on="1"/>
        <pt x="336" y="381" on="0"/>
        <pt x="336" y="359" on="1"/>
        <pt x="336" y="344" on="0"/>
        <pt x="316" y="299" on="0"/>
        <pt x="314" y="294" on="0"/>
        <pt x="297" y="286" on="0"/>
        <pt x="296" y="283" on="1"/>
        <pt x="274" y="221" on="0"/>
        <pt x="240" y="80" on="0"/>
        <pt x="240" y="39" on="0"/>
        <pt x="268" y="39" on="0"/>
        <pt x="309" y="73" on="0"/>
        <pt x="339" y="107" on="0"/>
        <pt x="342" y="107" on="0"/>
        <pt x="342" y="88" on="0"/>
      </contour>
      <contour>
        <pt x="266" y="346" on="1"/>
        <pt x="221" y="350" on="1"/>
        <pt x="207" y="350" on="0"/>
        <pt x="191" y="346" on="1"/>
        <pt x="166" y="339" on="0"/>
        <pt x="52" y="116" on="0"/>
        <pt x="52" y="61" on="1"/>
        <pt x="52" y="44" on="0"/>
        <pt x="62" y="44" on="1"/>
        <pt x="83" y="44" on="0"/>
        <pt x="190" y="166" on="0"/>
        <pt x="232" y="232" on="0"/>
        <pt x="274" y="325" on="0"/>
        <pt x="274" y="346" on="0"/>
        <pt x="269" y="346" on="1"/>
      </contour>
      <contour>
        <pt x="366" y="547" on="0"/>
        <pt x="366" y="527" on="0"/>
        <pt x="348" y="516" on="0"/>
        <pt x="195" y="440" on="0"/>
        <pt x="188" y="440" on="0"/>
        <pt x="188" y="443" on="1"/>
        <pt x="188" y="452" on="0"/>
        <pt x="279" y="524" on="0"/>
        <pt x="335" y="561" on="1"/>
        <pt x="340" y="564" on="0"/>
        <pt x="354" y="564" on="0"/>
      </contour>
    </TTGlyph>
    <TTGlyph name="acircumflex" xMin="6" yMin="-3" xMax="391" yMax="759">
      <contour>
        <pt x="332" y="80" on="1"/>
        <pt x="320" y="68" on="0"/>
        <pt x="305" y="56" on="0"/>
        <pt x="286" y="39" on="0"/>
        <pt x="272" y="29" on="0"/>
        <pt x="252" y="15" on="0"/>
        <pt x="244" y="12" on="1"/>
        <pt x="224" y="2" on="0"/>
        <pt x="214" y="2" on="1"/>
        <pt x="193" y="2" on="0"/>
        <pt x="189" y="27" on="1"/>
        <pt x="189" y="69" on="0"/>
        <pt x="222" y="182" on="1"/>
        <pt x="88" y="-3" on="0"/>
        <pt x="30" y="-3" on="1"/>
        <pt x="6" y="-3" on="0"/>
        <pt x="6" y="79" on="0"/>
        <pt x="61" y="236" on="0"/>
        <pt x="141" y="363" on="0"/>
        <pt x="171" y="363" on="1"/>
        <pt x="174" y="363" on="1"/>
        <pt x="185" y="371" on="1"/>
        <pt x="194" y="381" on="0"/>
        <pt x="228" y="381" on="0"/>
        <pt x="282" y="365" on="0"/>
        <pt x="289" y="365" on="0"/>
        <pt x="302" y="381" on="0"/>
        <pt x="311" y="381" on="1"/>
        <pt x="336" y="381" on="0"/>
        <pt x="336" y="359" on="1"/>
        <pt x="336" y="344" on="0"/>
        <pt x="316" y="299" on="0"/>
        <pt x="314" y="294" on="0"/>
        <pt x="297" y="286" on="0"/>
        <pt x="296" y="283" on="1"/>
        <pt x="274" y="221" on="0"/>
        <pt x="240" y="80" on="0"/>
        <pt x="240" y="39" on="0"/>
        <pt x="268" y="39" on="0"/>
        <pt x="309" y="73" on="0"/>
        <pt x="339" y="107" on="0"/>
        <pt x="342" y="107" on="0"/>
        <pt x="342" y="88" on="0"/>
      </contour>
      <contour>
        <pt x="266" y="346" on="1"/>
        <pt x="221" y="350" on="1"/>
        <pt x="207" y="350" on="0"/>
        <pt x="191" y="346" on="1"/>
        <pt x="166" y="339" on="0"/>
        <pt x="52" y="116" on="0"/>
        <pt x="52" y="61" on="1"/>
        <pt x="52" y="44" on="0"/>
        <pt x="62" y="44" on="1"/>
        <pt x="83" y="44" on="0"/>
        <pt x="190" y="166" on="0"/>
        <pt x="232" y="232" on="0"/>
        <pt x="274" y="325" on="0"/>
        <pt x="274" y="346" on="0"/>
        <pt x="269" y="346" on="1"/>
      </contour>
      <contour>
        <pt x="323" y="757" on="0"/>
        <pt x="381" y="666" on="0"/>
        <pt x="391" y="647" on="0"/>
        <pt x="391" y="634" on="0"/>
        <pt x="382" y="634" on="0"/>
        <pt x="315" y="707" on="0"/>
        <pt x="305" y="722" on="1"/>
        <pt x="288" y="707" on="0"/>
        <pt x="194" y="634" on="0"/>
        <pt x="189" y="634" on="0"/>
        <pt x="189" y="641" on="0"/>
        <pt x="203" y="658" on="0"/>
        <pt x="309" y="757" on="0"/>
        <pt x="318" y="759" on="1"/>
      </contour>
    </TTGlyph>
    <TTGlyph name="acute" xMin="104" yMin="532" xMax="282" yMax="656">
      <contour>
        <pt x="282" y="639" on="0"/>
        <pt x="282" y="619" on="0"/>
        <pt x="264" y="608" on="0"/>
        <pt x="111" y="532" on="0"/>
        <pt x="104" y="532" on="0"/>
        <pt x="104" y="535" on="1"/>
        <pt x="104" y="544" on="0"/>
        <pt x="150" y="580" on="1"/>
        <pt x="246" y="656" on="0"/>
        <pt x="261" y="656" on="1"/>
        <pt x="270" y="656" on="0"/>
      </contour>
    </TTGlyph>
    <TTGlyph name="adieresis" xMin="6" yMin="-3" xMax="362" yMax="550">
      <contour>
        <pt x="332" y="80" on="1"/>
        <pt x="320" y="68" on="0"/>
        <pt x="305" y="56" on="0"/>
        <pt x="286" y="39" on="0"/>
        <pt x="272" y="29" on="0"/>
        <pt x="252" y="15" on="0"/>
        <pt x="244" y="12" on="1"/>
        <pt x="224" y="2" on="0"/>
        <pt x="214" y="2" on="1"/>
        <pt x="193" y="2" on="0"/>
        <pt x="189" y="27" on="1"/>
        <pt x="189" y="69" on="0"/>
        <pt x="222" y="182" on="1"/>
        <pt x="88" y="-3" on="0"/>
        <pt x="30" y="-3" on="1"/>
        <pt x="6" y="-3" on="0"/>
        <pt x="6" y="79" on="0"/>
        <pt x="61" y="236" on="0"/>
        <pt x="141" y="363" on="0"/>
        <pt x="171" y="363" on="1"/>
        <pt x="174" y="363" on="1"/>
        <pt x="185" y="371" on="1"/>
        <pt x="194" y="381" on="0"/>
        <pt x="228" y="381" on="0"/>
        <pt x="282" y="365" on="0"/>
        <pt x="289" y="365" on="0"/>
        <pt x="302" y="381" on="0"/>
        <pt x="311" y="381" on="1"/>
        <pt x="336" y="381" on="0"/>
        <pt x="336" y="359" on="1"/>
        <pt x="336" y="344" on="0"/>
        <pt x="316" y="299" on="0"/>
        <pt x="314" y="294" on="0"/>
        <pt x="297" y="286" on="0"/>
        <pt x="296" y="283" on="1"/>
        <pt x="274" y="221" on="0"/>
        <pt x="240" y="80" on="0"/>
        <pt x="240" y="39" on="0"/>
        <pt x="268" y="39" on="0"/>
        <pt x="309" y="73" on="0"/>
        <pt x="339" y="107" on="0"/>
        <pt x="342" y="107" on="0"/>
        <pt x="342" y="88" on="0"/>
      </contour>
      <contour>
        <pt x="266" y="346" on="1"/>
        <pt x="221" y="350" on="1"/>
        <pt x="207" y="350" on="0"/>
        <pt x="191" y="346" on="1"/>
        <pt x="166" y="339" on="0"/>
        <pt x="52" y="116" on="0"/>
        <pt x="52" y="61" on="1"/>
        <pt x="52" y="44" on="0"/>
        <pt x="62" y="44" on="1"/>
        <pt x="83" y="44" on="0"/>
        <pt x="190" y="166" on="0"/>
        <pt x="232" y="232" on="0"/>
        <pt x="274" y="325" on="0"/>
        <pt x="274" y="346" on="0"/>
        <pt x="269" y="346" on="1"/>
      </contour>
      <contour>
        <pt x="362" y="547" on="1"/>
        <pt x="362" y="536" on="0"/>
        <pt x="350" y="494" on="0"/>
        <pt x="350" y="492" on="1"/>
        <pt x="350" y="478" on="0"/>
        <pt x="323" y="471" on="1"/>
        <pt x="305" y="471" on="0"/>
        <pt x="305" y="516" on="0"/>
        <pt x="339" y="550" on="0"/>
        <pt x="356" y="550" on="1"/>
        <pt x="360" y="550" on="0"/>
      </contour>
      <contour>
        <pt x="234" y="547" on="1"/>
        <pt x="234" y="536" on="0"/>
        <pt x="222" y="494" on="0"/>
        <pt x="222" y="492" on="1"/>
        <pt x="222" y="478" on="0"/>
        <pt x="195" y="471" on="1"/>
        <pt x="178" y="471" on="0"/>
        <pt x="178" y="516" on="0"/>
        <pt x="212" y="550" on="0"/>
        <pt x="229" y="550" on="1"/>
        <pt x="232" y="550" on="0"/>
      </contour>
    </TTGlyph>
    <TTGlyph name="ae" xMin="6" yMin="-10" xMax="442" yMax="381">
      <contour>
        <pt x="309" y="190" on="1"/>
        <pt x="273" y="191" on="1"/>
        <pt x="240" y="107" on="0"/>
        <pt x="240" y="19" on="0"/>
        <pt x="270" y="19" on="1"/>
        <pt x="305" y="19" on="0"/>
        <pt x="368" y="98" on="1"/>
        <pt x="389" y="125" on="0"/>
        <pt x="393" y="125" on="1"/>
        <pt x="400" y="125" on="0"/>
        <pt x="400" y="117" on="1"/>
        <pt x="400" y="89" on="0"/>
        <pt x="290" y="-10" on="0"/>
        <pt x="234" y="-10" on="0"/>
        <pt x="193" y="21" on="0"/>
        <pt x="193" y="95" on="0"/>
        <pt x="221" y="181" on="1"/>
        <pt x="91" y="-3" on="0"/>
        <pt x="30" y="-3" on="1"/>
        <pt x="6" y="-3" on="0"/>
        <pt x="6" y="79" on="0"/>
        <pt x="61" y="236" on="0"/>
        <pt x="141" y="363" on="0"/>
        <pt x="171" y="363" on="1"/>
        <pt x="174" y="363" on="1"/>
        <pt x="185" y="371" on="1"/>
        <pt x="194" y="381" on="0"/>
        <pt x="228" y="381" on="0"/>
        <pt x="282" y="365" on="0"/>
        <pt x="289" y="365" on="0"/>
        <pt x="302" y="381" on="0"/>
        <pt x="311" y="381" on="1"/>
        <pt x="333" y="381" on="0"/>
        <pt x="335" y="364" on="1"/>
        <pt x="361" y="372" on="0"/>
        <pt x="389" y="372" on="1"/>
        <pt x="423" y="372" on="0"/>
        <pt x="436" y="311" on="1"/>
        <pt x="442" y="280" on="0"/>
        <pt x="442" y="239" on="0"/>
        <pt x="412" y="208" on="0"/>
        <pt x="388" y="202" on="1"/>
        <pt x="346" y="190" on="0"/>
      </contour>
      <contour>
        <pt x="266" y="346" on="1"/>
        <pt x="221" y="350" on="1"/>
        <pt x="207" y="350" on="0"/>
        <pt x="191" y="346" on="1"/>
        <pt x="166" y="339" on="0"/>
        <pt x="52" y="116" on="0"/>
        <pt x="52" y="61" on="1"/>
        <pt x="52" y="44" on="0"/>
        <pt x="62" y="44" on="1"/>
        <pt x="83" y="44" on="0"/>
        <pt x="190" y="166" on="0"/>
        <pt x="232" y="232" on="0"/>
        <pt x="274" y="325" on="0"/>
        <pt x="274" y="346" on="0"/>
        <pt x="269" y="346" on="1"/>
      </contour>
      <contour>
        <pt x="282" y="219" on="1"/>
        <pt x="322" y="217" on="1"/>
        <pt x="363" y="217" on="0"/>
        <pt x="399" y="235" on="0"/>
        <pt x="400" y="288" on="0"/>
        <pt x="395" y="306" on="1"/>
        <pt x="386" y="338" on="0"/>
        <pt x="370" y="338" on="1"/>
        <pt x="350" y="338" on="0"/>
        <pt x="295" y="252" on="0"/>
      </contour>
    </TTGlyph>
    <TTGlyph name="agrave" xMin="6" yMin="-3" xMax="345" yMax="588">
      <contour>
        <pt x="332" y="80" on="1"/>
        <pt x="320" y="68" on="0"/>
        <pt x="305" y="56" on="0"/>
        <pt x="286" y="39" on="0"/>
        <pt x="272" y="29" on="0"/>
        <pt x="252" y="15" on="0"/>
        <pt x="244" y="12" on="1"/>
        <pt x="224" y="2" on="0"/>
        <pt x="214" y="2" on="1"/>
        <pt x="193" y="2" on="0"/>
        <pt x="189" y="27" on="1"/>
        <pt x="189" y="69" on="0"/>
        <pt x="222" y="182" on="1"/>
        <pt x="88" y="-3" on="0"/>
        <pt x="30" y="-3" on="1"/>
        <pt x="6" y="-3" on="0"/>
        <pt x="6" y="79" on="0"/>
        <pt x="61" y="236" on="0"/>
        <pt x="141" y="363" on="0"/>
        <pt x="171" y="363" on="1"/>
        <pt x="174" y="363" on="1"/>
        <pt x="185" y="371" on="1"/>
        <pt x="194" y="381" on="0"/>
        <pt x="228" y="381" on="0"/>
        <pt x="282" y="365" on="0"/>
        <pt x="289" y="365" on="0"/>
        <pt x="302" y="381" on="0"/>
        <pt x="311" y="381" on="1"/>
        <pt x="336" y="381" on="0"/>
        <pt x="336" y="359" on="1"/>
        <pt x="336" y="344" on="0"/>
        <pt x="316" y="299" on="0"/>
        <pt x="314" y="294" on="0"/>
        <pt x="297" y="286" on="0"/>
        <pt x="296" y="283" on="1"/>
        <pt x="274" y="221" on="0"/>
        <pt x="240" y="80" on="0"/>
        <pt x="240" y="39" on="0"/>
        <pt x="268" y="39" on="0"/>
        <pt x="309" y="73" on="0"/>
        <pt x="339" y="107" on="0"/>
        <pt x="342" y="107" on="0"/>
        <pt x="342" y="88" on="0"/>
      </contour>
      <contour>
        <pt x="266" y="346" on="1"/>
        <pt x="221" y="350" on="1"/>
        <pt x="207" y="350" on="0"/>
        <pt x="191" y="346" on="1"/>
        <pt x="166" y="339" on="0"/>
        <pt x="52" y="116" on="0"/>
        <pt x="52" y="61" on="1"/>
        <pt x="52" y="44" on="0"/>
        <pt x="62" y="44" on="1"/>
        <pt x="83" y="44" on="0"/>
        <pt x="190" y="166" on="0"/>
        <pt x="232" y="232" on="0"/>
        <pt x="274" y="325" on="0"/>
        <pt x="274" y="346" on="0"/>
        <pt x="269" y="346" on="1"/>
      </contour>
      <contour>
        <pt x="345" y="464" on="0"/>
        <pt x="339" y="464" on="0"/>
        <pt x="186" y="540" on="0"/>
        <pt x="168" y="550" on="0"/>
        <pt x="168" y="571" on="0"/>
        <pt x="180" y="588" on="0"/>
        <pt x="193" y="588" on="0"/>
        <pt x="199" y="585" on="1"/>
        <pt x="254" y="548" on="0"/>
        <pt x="345" y="476" on="0"/>
        <pt x="345" y="467" on="1"/>
      </contour>
    </TTGlyph>
    <TTGlyph name="ampersand" xMin="42" yMin="-31" xMax="817" yMax="633">
      <contour>
        <pt x="394" y="220" on="1"/>
        <pt x="400" y="186" on="1"/>
        <pt x="400" y="179" on="0"/>
        <pt x="385" y="179" on="0"/>
        <pt x="366" y="200" on="0"/>
        <pt x="366" y="215" on="1"/>
        <pt x="366" y="263" on="0"/>
        <pt x="457" y="310" on="0"/>
        <pt x="560" y="310" on="0"/>
        <pt x="728" y="263" on="0"/>
        <pt x="771" y="263" on="1"/>
        <pt x="782" y="263" on="0"/>
        <pt x="807" y="271" on="0"/>
        <pt x="810" y="271" on="1"/>
        <pt x="817" y="271" on="0"/>
        <pt x="817" y="266" on="1"/>
        <pt x="817" y="252" on="0"/>
        <pt x="778" y="237" on="0"/>
        <pt x="719" y="237" on="0"/>
        <pt x="661" y="245" on="0"/>
        <pt x="628" y="255" on="0"/>
        <pt x="583" y="269" on="0"/>
        <pt x="576" y="271" on="1"/>
        <pt x="597" y="261" on="0"/>
        <pt x="627" y="216" on="0"/>
        <pt x="627" y="189" on="1"/>
        <pt x="627" y="133" on="0"/>
        <pt x="503" y="29" on="0"/>
        <pt x="323" y="-31" on="0"/>
        <pt x="142" y="-31" on="0"/>
        <pt x="42" y="40" on="0"/>
        <pt x="42" y="152" on="0"/>
        <pt x="148" y="265" on="0"/>
        <pt x="243" y="297" on="1"/>
        <pt x="114" y="308" on="0"/>
        <pt x="114" y="387" on="1"/>
        <pt x="114" y="446" on="0"/>
        <pt x="200" y="544" on="0"/>
        <pt x="266" y="573" on="1"/>
        <pt x="403" y="633" on="0"/>
        <pt x="543" y="633" on="1"/>
        <pt x="621" y="633" on="0"/>
        <pt x="718" y="586" on="0"/>
        <pt x="718" y="497" on="0"/>
        <pt x="637" y="422" on="0"/>
        <pt x="540" y="388" on="0"/>
        <pt x="503" y="388" on="1"/>
        <pt x="494" y="388" on="0"/>
        <pt x="494" y="394" on="1"/>
        <pt x="494" y="403" on="0"/>
        <pt x="507" y="403" on="1"/>
        <pt x="553" y="403" on="0"/>
        <pt x="655" y="486" on="0"/>
        <pt x="655" y="529" on="1"/>
        <pt x="655" y="613" on="0"/>
        <pt x="526" y="613" on="1"/>
        <pt x="416" y="613" on="0"/>
        <pt x="296" y="558" on="1"/>
        <pt x="238" y="531" on="0"/>
        <pt x="162" y="441" on="0"/>
        <pt x="162" y="387" on="1"/>
        <pt x="162" y="356" on="0"/>
        <pt x="231" y="327" on="0"/>
        <pt x="301" y="327" on="0"/>
        <pt x="366" y="341" on="0"/>
        <pt x="372" y="341" on="1"/>
        <pt x="390" y="341" on="0"/>
        <pt x="390" y="319" on="0"/>
        <pt x="357" y="301" on="0"/>
        <pt x="325" y="298" on="1"/>
        <pt x="221" y="270" on="0"/>
        <pt x="106" y="160" on="0"/>
        <pt x="106" y="56" on="0"/>
        <pt x="191" y="-6" on="0"/>
        <pt x="270" y="-6" on="1"/>
        <pt x="413" y="-6" on="0"/>
        <pt x="581" y="121" on="0"/>
        <pt x="581" y="194" on="1"/>
        <pt x="581" y="230" on="0"/>
        <pt x="533" y="276" on="0"/>
        <pt x="448" y="276" on="0"/>
        <pt x="394" y="248" on="0"/>
      </contour>
    </TTGlyph>
    <TTGlyph name="apple" xMin="48" yMin="112" xMax="515" yMax="678">
      <contour>
        <pt x="193" y="546" on="0"/>
        <pt x="266" y="521" on="0"/>
        <pt x="295" y="521" on="0"/>
        <pt x="325" y="529" on="0"/>
        <pt x="344" y="536" on="1"/>
        <pt x="378" y="547" on="0"/>
        <pt x="396" y="547" on="1"/>
        <pt x="463" y="547" on="0"/>
        <pt x="500" y="488" on="1"/>
        <pt x="438" y="454" on="0"/>
        <pt x="438" y="377" on="1"/>
        <pt x="438" y="337" on="0"/>
        <pt x="480" y="275" on="0"/>
        <pt x="515" y="261" on="1"/>
        <pt x="496" y="204" on="0"/>
        <pt x="415" y="112" on="0"/>
        <pt x="356" y="112" on="0"/>
        <pt x="308" y="137" on="0"/>
        <pt x="268" y="137" on="0"/>
        <pt x="222" y="112" on="0"/>
        <pt x="194" y="112" on="1"/>
        <pt x="146" y="112" on="0"/>
        <pt x="48" y="278" on="0"/>
        <pt x="48" y="366" on="1"/>
        <pt x="48" y="417" on="0"/>
        <pt x="80" y="493" on="0"/>
        <pt x="104" y="511" on="1"/>
        <pt x="151" y="546" on="0"/>
        <pt x="187" y="546" on="1"/>
      </contour>
      <contour>
        <pt x="292" y="538" on="1"/>
        <pt x="290" y="544" on="0"/>
        <pt x="290" y="552" on="1"/>
        <pt x="290" y="594" on="0"/>
        <pt x="356" y="678" on="0"/>
        <pt x="391" y="678" on="1"/>
        <pt x="399" y="678" on="0"/>
        <pt x="399" y="660" on="1"/>
        <pt x="399" y="621" on="0"/>
        <pt x="343" y="538" on="0"/>
      </contour>
    </TTGlyph>
    <TTGlyph name="approxequal" xMin="23" yMin="128" xMax="382" yMax="304">
      <contour>
        <pt x="28" y="155" on="1"/>
        <pt x="42" y="177" on="0"/>
        <pt x="79" y="200" on="0"/>
        <pt x="136" y="200" on="0"/>
        <pt x="205" y="190" on="0"/>
        <pt x="238" y="184" on="1"/>
        <pt x="287" y="174" on="0"/>
        <pt x="312" y="174" on="0"/>
        <pt x="345" y="204" on="0"/>
        <pt x="348" y="204" on="0"/>
        <pt x="348" y="197" on="0"/>
        <pt x="346" y="193" on="1"/>
        <pt x="323" y="143" on="0"/>
        <pt x="267" y="143" on="1"/>
        <pt x="238" y="143" on="0"/>
        <pt x="105" y="167" on="0"/>
        <pt x="70" y="167" on="0"/>
        <pt x="42" y="148" on="0"/>
        <pt x="25" y="128" on="0"/>
        <pt x="27" y="128" on="1"/>
        <pt x="23" y="128" on="0"/>
        <pt x="23" y="148" on="0"/>
      </contour>
      <contour>
        <pt x="62" y="255" on="1"/>
        <pt x="76" y="277" on="0"/>
        <pt x="113" y="300" on="0"/>
        <pt x="170" y="300" on="0"/>
        <pt x="239" y="290" on="0"/>
        <pt x="272" y="284" on="1"/>
        <pt x="321" y="274" on="0"/>
        <pt x="346" y="274" on="0"/>
        <pt x="379" y="304" on="0"/>
        <pt x="382" y="304" on="0"/>
        <pt x="382" y="297" on="0"/>
        <pt x="380" y="293" on="1"/>
        <pt x="357" y="243" on="0"/>
        <pt x="301" y="243" on="1"/>
        <pt x="272" y="243" on="0"/>
        <pt x="139" y="267" on="0"/>
        <pt x="104" y="267" on="0"/>
        <pt x="76" y="248" on="0"/>
        <pt x="59" y="228" on="0"/>
        <pt x="61" y="228" on="1"/>
        <pt x="57" y="228" on="0"/>
        <pt x="57" y="248" on="0"/>
      </contour>
    </TTGlyph>
    <TTGlyph name="aring" xMin="6" yMin="-3" xMax="358" yMax="576">
      <contour>
        <pt x="332" y="80" on="1"/>
        <pt x="320" y="68" on="0"/>
        <pt x="305" y="56" on="0"/>
        <pt x="286" y="39" on="0"/>
        <pt x="272" y="29" on="0"/>
        <pt x="252" y="15" on="0"/>
        <pt x="244" y="12" on="1"/>
        <pt x="224" y="2" on="0"/>
        <pt x="214" y="2" on="1"/>
        <pt x="193" y="2" on="0"/>
        <pt x="189" y="27" on="1"/>
        <pt x="189" y="69" on="0"/>
        <pt x="222" y="182" on="1"/>
        <pt x="88" y="-3" on="0"/>
        <pt x="30" y="-3" on="1"/>
        <pt x="6" y="-3" on="0"/>
        <pt x="6" y="79" on="0"/>
        <pt x="61" y="236" on="0"/>
        <pt x="141" y="363" on="0"/>
        <pt x="171" y="363" on="1"/>
        <pt x="174" y="363" on="1"/>
        <pt x="185" y="371" on="1"/>
        <pt x="194" y="381" on="0"/>
        <pt x="228" y="381" on="0"/>
        <pt x="282" y="365" on="0"/>
        <pt x="289" y="365" on="0"/>
        <pt x="302" y="381" on="0"/>
        <pt x="311" y="381" on="1"/>
        <pt x="336" y="381" on="0"/>
        <pt x="336" y="359" on="1"/>
        <pt x="336" y="344" on="0"/>
        <pt x="316" y="299" on="0"/>
        <pt x="314" y="294" on="0"/>
        <pt x="297" y="286" on="0"/>
        <pt x="296" y="283" on="1"/>
        <pt x="274" y="221" on="0"/>
        <pt x="240" y="80" on="0"/>
        <pt x="240" y="39" on="0"/>
        <pt x="268" y="39" on="0"/>
        <pt x="309" y="73" on="0"/>
        <pt x="339" y="107" on="0"/>
        <pt x="342" y="107" on="0"/>
        <pt x="342" y="88" on="0"/>
      </contour>
      <contour>
        <pt x="266" y="346" on="1"/>
        <pt x="221" y="350" on="1"/>
        <pt x="207" y="350" on="0"/>
        <pt x="191" y="346" on="1"/>
        <pt x="166" y="339" on="0"/>
        <pt x="52" y="116" on="0"/>
        <pt x="52" y="61" on="1"/>
        <pt x="52" y="44" on="0"/>
        <pt x="62" y="44" on="1"/>
        <pt x="83" y="44" on="0"/>
        <pt x="190" y="166" on="0"/>
        <pt x="232" y="232" on="0"/>
        <pt x="274" y="325" on="0"/>
        <pt x="274" y="346" on="0"/>
        <pt x="269" y="346" on="1"/>
      </contour>
      <contour>
        <pt x="358" y="527" on="1"/>
        <pt x="358" y="491" on="0"/>
        <pt x="302" y="433" on="0"/>
        <pt x="266" y="433" on="1"/>
        <pt x="248" y="433" on="0"/>
        <pt x="225" y="453" on="0"/>
        <pt x="225" y="471" on="1"/>
        <pt x="225" y="509" on="0"/>
        <pt x="284" y="576" on="0"/>
        <pt x="315" y="576" on="1"/>
        <pt x="334" y="576" on="0"/>
        <pt x="358" y="547" on="0"/>
      </contour>
      <contour>
        <pt x="302" y="452" on="0"/>
        <pt x="338" y="498" on="0"/>
        <pt x="338" y="561" on="0"/>
        <pt x="312" y="561" on="1"/>
        <pt x="293" y="561" on="0"/>
        <pt x="248" y="511" on="0"/>
        <pt x="248" y="452" on="0"/>
        <pt x="277" y="452" on="1"/>
      </contour>
    </TTGlyph>
    <TTGlyph name="asciicircum" xMin="50" yMin="453" xMax="281" yMax="559">
      <contour>
        <pt x="273" y="455" on="1"/>
        <pt x="211" y="489" on="0"/>
        <pt x="162" y="527" on="1"/>
        <pt x="147" y="515" on="0"/>
        <pt x="55" y="453" on="0"/>
        <pt x="50" y="453" on="0"/>
        <pt x="50" y="458" on="0"/>
        <pt x="59" y="472" on="0"/>
        <pt x="157" y="557" on="0"/>
        <pt x="167" y="559" on="1"/>
        <pt x="174" y="557" on="0"/>
        <pt x="263" y="480" on="0"/>
        <pt x="281" y="462" on="0"/>
        <pt x="281" y="454" on="0"/>
        <pt x="274" y="454" on="0"/>
      </contour>
    </TTGlyph>
    <TTGlyph name="asciitilde" xMin="29" yMin="437" xMax="251" yMax="491">
      <contour>
        <pt x="251" y="487" on="1"/>
        <pt x="251" y="468" on="0"/>
        <pt x="195" y="437" on="0"/>
        <pt x="166" y="437" on="0"/>
        <pt x="102" y="464" on="0"/>
        <pt x="68" y="464" on="0"/>
        <pt x="35" y="438" on="0"/>
        <pt x="29" y="438" on="0"/>
        <pt x="29" y="447" on="0"/>
        <pt x="62" y="476" on="0"/>
        <pt x="88" y="491" on="0"/>
        <pt x="125" y="491" on="0"/>
        <pt x="187" y="470" on="0"/>
        <pt x="227" y="470" on="0"/>
        <pt x="245" y="491" on="1"/>
        <pt x="251" y="491" on="0"/>
      </contour>
    </TTGlyph>
    <TTGlyph name="asterisk" xMin="21" yMin="508" xMax="182" yMax="689">
      <contour>
        <pt x="167" y="656" on="1"/>
        <pt x="173" y="656" on="0"/>
        <pt x="182" y="647" on="0"/>
        <pt x="182" y="642" on="1"/>
        <pt x="182" y="622" on="0"/>
        <pt x="122" y="599" on="1"/>
        <pt x="181" y="581" on="0"/>
        <pt x="181" y="559" on="1"/>
        <pt x="181" y="544" on="0"/>
        <pt x="146" y="544" on="0"/>
        <pt x="115" y="577" on="1"/>
        <pt x="123" y="542" on="0"/>
        <pt x="123" y="533" on="1"/>
        <pt x="123" y="508" on="0"/>
        <pt x="104" y="508" on="1"/>
        <pt x="83" y="508" on="0"/>
        <pt x="83" y="536" on="1"/>
        <pt x="83" y="551" on="0"/>
        <pt x="90" y="577" on="1"/>
        <pt x="58" y="545" on="0"/>
        <pt x="21" y="545" on="0"/>
        <pt x="21" y="561" on="1"/>
        <pt x="21" y="584" on="0"/>
        <pt x="81" y="598" on="1"/>
        <pt x="21" y="621" on="0"/>
        <pt x="21" y="640" on="1"/>
        <pt x="21" y="654" on="0"/>
        <pt x="61" y="654" on="0"/>
        <pt x="90" y="618" on="1"/>
        <pt x="84" y="640" on="0"/>
        <pt x="84" y="688" on="0"/>
        <pt x="103" y="689" on="1"/>
        <pt x="121" y="686" on="0"/>
        <pt x="121" y="660" on="1"/>
        <pt x="121" y="647" on="0"/>
        <pt x="114" y="619" on="1"/>
        <pt x="151" y="656" on="0"/>
      </contour>
    </TTGlyph>
    <TTGlyph name="at" xMin="9" yMin="-2" xMax="741" yMax="679">
      <contour>
        <pt x="250" y="623" on="1"/>
        <pt x="157" y="619" on="1"/>
        <pt x="132" y="619" on="0"/>
        <pt x="132" y="627" on="1"/>
        <pt x="132" y="651" on="0"/>
        <pt x="304" y="651" on="1"/>
        <pt x="330" y="651" on="1"/>
        <pt x="426" y="679" on="0"/>
        <pt x="580" y="679" on="0"/>
        <pt x="669" y="653" on="0"/>
        <pt x="730" y="583" on="0"/>
        <pt x="730" y="491" on="0"/>
        <pt x="712" y="444" on="1"/>
        <pt x="741" y="392" on="0"/>
        <pt x="741" y="337" on="1"/>
        <pt x="741" y="250" on="0"/>
        <pt x="606" y="91" on="0"/>
        <pt x="401" y="-2" on="0"/>
        <pt x="299" y="-2" on="1"/>
        <pt x="171" y="-2" on="0"/>
        <pt x="9" y="158" on="0"/>
        <pt x="9" y="391" on="0"/>
        <pt x="148" y="568" on="0"/>
      </contour>
      <contour>
        <pt x="689" y="395" on="1"/>
        <pt x="658" y="314" on="0"/>
        <pt x="467" y="113" on="0"/>
        <pt x="412" y="113" on="1"/>
        <pt x="381" y="113" on="0"/>
        <pt x="374" y="152" on="1"/>
        <pt x="374" y="194" on="0"/>
        <pt x="407" y="307" on="1"/>
        <pt x="273" y="122" on="0"/>
        <pt x="215" y="122" on="1"/>
        <pt x="191" y="122" on="0"/>
        <pt x="191" y="204" on="0"/>
        <pt x="246" y="361" on="0"/>
        <pt x="326" y="488" on="0"/>
        <pt x="356" y="488" on="1"/>
        <pt x="359" y="488" on="1"/>
        <pt x="370" y="496" on="1"/>
        <pt x="379" y="506" on="0"/>
        <pt x="414" y="506" on="0"/>
        <pt x="466" y="490" on="0"/>
        <pt x="474" y="490" on="0"/>
        <pt x="487" y="506" on="0"/>
        <pt x="496" y="506" on="1"/>
        <pt x="521" y="506" on="0"/>
        <pt x="521" y="485" on="1"/>
        <pt x="521" y="471" on="0"/>
        <pt x="499" y="421" on="1"/>
        <pt x="498" y="418" on="0"/>
        <pt x="482" y="410" on="0"/>
        <pt x="481" y="408" on="1"/>
        <pt x="457" y="341" on="0"/>
        <pt x="424" y="200" on="0"/>
        <pt x="424" y="182" on="1"/>
        <pt x="424" y="151" on="0"/>
        <pt x="442" y="151" on="1"/>
        <pt x="477" y="151" on="0"/>
        <pt x="645" y="369" on="0"/>
        <pt x="670" y="437" on="1"/>
        <pt x="623" y="524" on="0"/>
        <pt x="436" y="611" on="0"/>
        <pt x="323" y="616" on="1"/>
        <pt x="210" y="579" on="0"/>
        <pt x="49" y="371" on="0"/>
        <pt x="49" y="162" on="0"/>
        <pt x="165" y="26" on="0"/>
        <pt x="362" y="26" on="0"/>
        <pt x="558" y="109" on="0"/>
        <pt x="698" y="258" on="0"/>
        <pt x="698" y="339" on="1"/>
        <pt x="698" y="366" on="0"/>
      </contour>
      <contour>
        <pt x="451" y="471" on="1"/>
        <pt x="444" y="471" on="0"/>
        <pt x="415" y="476" on="0"/>
        <pt x="392" y="475" on="0"/>
        <pt x="376" y="471" on="1"/>
        <pt x="351" y="465" on="0"/>
        <pt x="237" y="241" on="0"/>
        <pt x="237" y="186" on="1"/>
        <pt x="237" y="169" on="0"/>
        <pt x="247" y="169" on="1"/>
        <pt x="268" y="169" on="0"/>
        <pt x="375" y="291" on="0"/>
        <pt x="417" y="357" on="0"/>
        <pt x="459" y="450" on="0"/>
        <pt x="459" y="471" on="0"/>
        <pt x="454" y="471" on="1"/>
      </contour>
      <contour>
        <pt x="684" y="483" on="1"/>
        <pt x="690" y="508" on="0"/>
        <pt x="690" y="532" on="1"/>
        <pt x="690" y="656" on="0"/>
        <pt x="532" y="656" on="1"/>
        <pt x="468" y="656" on="0"/>
        <pt x="396" y="638" on="1"/>
        <pt x="491" y="628" on="0"/>
        <pt x="646" y="549" on="0"/>
      </contour>
    </TTGlyph>
    <TTGlyph name="atilde" xMin="6" yMin="-3" xMax="540" yMax="575">
      <contour>
        <pt x="332" y="80" on="1"/>
        <pt x="320" y="68" on="0"/>
        <pt x="305" y="56" on="0"/>
        <pt x="286" y="39" on="0"/>
        <pt x="272" y="29" on="0"/>
        <pt x="252" y="15" on="0"/>
        <pt x="244" y="12" on="1"/>
        <pt x="224" y="2" on="0"/>
        <pt x="214" y="2" on="1"/>
        <pt x="193" y="2" on="0"/>
        <pt x="189" y="27" on="1"/>
        <pt x="189" y="69" on="0"/>
        <pt x="222" y="182" on="1"/>
        <pt x="88" y="-3" on="0"/>
        <pt x="30" y="-3" on="1"/>
        <pt x="6" y="-3" on="0"/>
        <pt x="6" y="79" on="0"/>
        <pt x="61" y="236" on="0"/>
        <pt x="141" y="363" on="0"/>
        <pt x="171" y="363" on="1"/>
        <pt x="174" y="363" on="1"/>
        <pt x="185" y="371" on="1"/>
        <pt x="194" y="381" on="0"/>
        <pt x="228" y="381" on="0"/>
        <pt x="282" y="365" on="0"/>
        <pt x="289" y="365" on="0"/>
        <pt x="302" y="381" on="0"/>
        <pt x="311" y="381" on="1"/>
        <pt x="336" y="381" on="0"/>
        <pt x="336" y="359" on="1"/>
        <pt x="336" y="344" on="0"/>
        <pt x="316" y="299" on="0"/>
        <pt x="314" y="294" on="0"/>
        <pt x="297" y="286" on="0"/>
        <pt x="296" y="283" on="1"/>
        <pt x="274" y="221" on="0"/>
        <pt x="240" y="80" on="0"/>
        <pt x="240" y="39" on="0"/>
        <pt x="268" y="39" on="0"/>
        <pt x="309" y="73" on="0"/>
        <pt x="339" y="107" on="0"/>
        <pt x="342" y="107" on="0"/>
        <pt x="342" y="88" on="0"/>
      </contour>
      <contour>
        <pt x="266" y="346" on="1"/>
        <pt x="221" y="350" on="1"/>
        <pt x="207" y="350" on="0"/>
        <pt x="191" y="346" on="1"/>
        <pt x="166" y="339" on="0"/>
        <pt x="52" y="116" on="0"/>
        <pt x="52" y="61" on="1"/>
        <pt x="52" y="44" on="0"/>
        <pt x="62" y="44" on="1"/>
        <pt x="83" y="44" on="0"/>
        <pt x="190" y="166" on="0"/>
        <pt x="232" y="232" on="0"/>
        <pt x="274" y="325" on="0"/>
        <pt x="274" y="346" on="0"/>
        <pt x="269" y="346" on="1"/>
      </contour>
      <contour>
        <pt x="540" y="571" on="1"/>
        <pt x="540" y="552" on="0"/>
        <pt x="484" y="521" on="0"/>
        <pt x="455" y="521" on="0"/>
        <pt x="391" y="548" on="0"/>
        <pt x="357" y="548" on="0"/>
        <pt x="324" y="522" on="0"/>
        <pt x="318" y="522" on="0"/>
        <pt x="318" y="531" on="0"/>
        <pt x="351" y="560" on="0"/>
        <pt x="377" y="575" on="0"/>
        <pt x="414" y="575" on="0"/>
        <pt x="476" y="554" on="0"/>
        <pt x="516" y="554" on="0"/>
        <pt x="534" y="575" on="1"/>
        <pt x="540" y="575" on="0"/>
      </contour>
    </TTGlyph>
    <TTGlyph name="b" xMin="-2" yMin="-8" xMax="324" yMax="655">
      <contour>
        <pt x="310" y="341" on="1"/>
        <pt x="309" y="321" on="0"/>
        <pt x="291" y="251" on="1"/>
        <pt x="313" y="262" on="0"/>
        <pt x="324" y="262" on="0"/>
        <pt x="324" y="260" on="1"/>
        <pt x="324" y="255" on="0"/>
        <pt x="299" y="235" on="0"/>
        <pt x="286" y="230" on="1"/>
        <pt x="247" y="101" on="0"/>
        <pt x="210" y="60" on="1"/>
        <pt x="196" y="45" on="0"/>
        <pt x="110" y="-8" on="0"/>
        <pt x="100" y="-8" on="1"/>
        <pt x="59" y="-8" on="0"/>
        <pt x="39" y="11" on="1"/>
        <pt x="35" y="2" on="1"/>
        <pt x="34" y="-1" on="0"/>
        <pt x="20" y="-1" on="0"/>
        <pt x="-2" y="23" on="0"/>
        <pt x="-2" y="54" on="0"/>
        <pt x="22" y="115" on="1"/>
        <pt x="25" y="123" on="0"/>
        <pt x="38" y="131" on="0"/>
        <pt x="39" y="134" on="1"/>
        <pt x="147" y="415" on="0"/>
        <pt x="210" y="631" on="1"/>
        <pt x="240" y="655" on="0"/>
        <pt x="253" y="655" on="1"/>
        <pt x="263" y="655" on="0"/>
        <pt x="263" y="640" on="1"/>
        <pt x="252" y="599" on="0"/>
        <pt x="134" y="279" on="0"/>
        <pt x="96" y="187" on="1"/>
        <pt x="134" y="244" on="0"/>
        <pt x="259" y="385" on="0"/>
        <pt x="290" y="385" on="1"/>
        <pt x="310" y="385" on="0"/>
        <pt x="310" y="348" on="1"/>
      </contour>
      <contour>
        <pt x="236" y="206" on="1"/>
        <pt x="118" y="144" on="0"/>
        <pt x="84" y="107" on="1"/>
        <pt x="78" y="95" on="0"/>
        <pt x="61" y="57" on="0"/>
        <pt x="58" y="51" on="1"/>
        <pt x="82" y="24" on="0"/>
        <pt x="107" y="24" on="1"/>
        <pt x="148" y="24" on="0"/>
        <pt x="219" y="146" on="0"/>
      </contour>
      <contour>
        <pt x="244" y="228" on="1"/>
        <pt x="260" y="270" on="0"/>
        <pt x="262" y="315" on="1"/>
        <pt x="262" y="336" on="0"/>
        <pt x="252" y="336" on="1"/>
        <pt x="219" y="336" on="0"/>
        <pt x="91" y="132" on="1"/>
        <pt x="151" y="181" on="0"/>
      </contour>
    </TTGlyph>
    <TTGlyph name="backslash" xMin="45" yMin="-93" xMax="602" yMax="698">
      <contour>
        <pt x="586" y="-93" on="1"/>
        <pt x="574" y="-93" on="0"/>
        <pt x="576" y="-85" on="1"/>
        <pt x="583" y="-26" on="0"/>
        <pt x="362" y="270" on="1"/>
        <pt x="187" y="505" on="0"/>
        <pt x="52" y="660" on="1"/>
        <pt x="45" y="667" on="0"/>
        <pt x="45" y="678" on="1"/>
        <pt x="45" y="698" on="0"/>
        <pt x="67" y="698" on="1"/>
        <pt x="82" y="698" on="0"/>
        <pt x="319" y="401" on="0"/>
        <pt x="568" y="43" on="0"/>
        <pt x="592" y="-26" on="1"/>
        <pt x="602" y="-54" on="0"/>
        <pt x="602" y="-93" on="0"/>
      </contour>
    </TTGlyph>
    <TTGlyph name="bar" xMin="100" yMin="-88" xMax="158" yMax="626">
      <contour>
        <pt x="123" y="-75" on="1"/>
        <pt x="116" y="-88" on="0"/>
        <pt x="100" y="-88" on="0"/>
        <pt x="100" y="-73" on="1"/>
        <pt x="100" y="-70" on="0"/>
        <pt x="109" y="-34" on="0"/>
        <pt x="109" y="111" on="1"/>
        <pt x="109" y="444" on="1"/>
        <pt x="109" y="541" on="0"/>
        <pt x="101" y="611" on="0"/>
        <pt x="101" y="616" on="1"/>
        <pt x="101" y="626" on="0"/>
        <pt x="118" y="626" on="1"/>
        <pt x="158" y="626" on="0"/>
        <pt x="158" y="540" on="1"/>
        <pt x="158" y="431" on="0"/>
        <pt x="137" y="-35" on="0"/>
      </contour>
    </TTGlyph>
    <TTGlyph name="braceleft" xMin="36" yMin="-122" xMax="429" yMax="640">
      <contour>
        <pt x="115" y="265" on="1"/>
        <pt x="174" y="243" on="0"/>
        <pt x="174" y="181" on="1"/>
        <pt x="174" y="142" on="0"/>
        <pt x="123" y="-8" on="0"/>
        <pt x="123" y="-74" on="0"/>
        <pt x="154" y="-102" on="0"/>
        <pt x="173" y="-102" on="1"/>
        <pt x="223" y="-104" on="0"/>
        <pt x="223" y="-114" on="0"/>
        <pt x="209" y="-122" on="0"/>
        <pt x="200" y="-122" on="1"/>
        <pt x="147" y="-122" on="0"/>
        <pt x="84" y="-92" on="0"/>
        <pt x="84" y="-5" on="0"/>
        <pt x="137" y="148" on="0"/>
        <pt x="137" y="218" on="0"/>
        <pt x="105" y="252" on="0"/>
        <pt x="68" y="258" on="0"/>
        <pt x="36" y="263" on="0"/>
        <pt x="36" y="267" on="1"/>
        <pt x="36" y="275" on="0"/>
        <pt x="54" y="280" on="1"/>
        <pt x="124" y="287" on="0"/>
        <pt x="185" y="329" on="0"/>
        <pt x="204" y="393" on="1"/>
        <pt x="209" y="410" on="0"/>
        <pt x="223" y="472" on="0"/>
        <pt x="233" y="511" on="0"/>
        <pt x="252" y="563" on="0"/>
        <pt x="280" y="595" on="0"/>
        <pt x="300" y="610" on="1"/>
        <pt x="340" y="640" on="0"/>
        <pt x="423" y="640" on="1"/>
        <pt x="424" y="640" on="1"/>
        <pt x="429" y="640" on="0"/>
        <pt x="429" y="620" on="0"/>
        <pt x="419" y="619" on="1"/>
        <pt x="344" y="619" on="0"/>
        <pt x="285" y="551" on="0"/>
        <pt x="266" y="474" on="1"/>
        <pt x="220" y="288" on="0"/>
      </contour>
    </TTGlyph>
    <TTGlyph name="braceright" xMin="27" yMin="-121" xMax="420" yMax="641">
      <contour>
        <pt x="341" y="254" on="1"/>
        <pt x="282" y="276" on="0"/>
        <pt x="282" y="338" on="1"/>
        <pt x="282" y="377" on="0"/>
        <pt x="333" y="527" on="0"/>
        <pt x="333" y="593" on="0"/>
        <pt x="301" y="620" on="0"/>
        <pt x="264" y="622" on="0"/>
        <pt x="232" y="624" on="0"/>
        <pt x="232" y="633" on="0"/>
        <pt x="246" y="641" on="0"/>
        <pt x="256" y="641" on="1"/>
        <pt x="309" y="641" on="0"/>
        <pt x="371" y="611" on="0"/>
        <pt x="371" y="524" on="0"/>
        <pt x="318" y="370" on="0"/>
        <pt x="318" y="301" on="0"/>
        <pt x="350" y="267" on="0"/>
        <pt x="388" y="261" on="0"/>
        <pt x="420" y="256" on="0"/>
        <pt x="420" y="252" on="1"/>
        <pt x="420" y="244" on="0"/>
        <pt x="402" y="239" on="1"/>
        <pt x="331" y="232" on="0"/>
        <pt x="270" y="190" on="0"/>
        <pt x="252" y="126" on="1"/>
        <pt x="247" y="109" on="0"/>
        <pt x="233" y="47" on="0"/>
        <pt x="223" y="8" on="0"/>
        <pt x="204" y="-44" on="0"/>
        <pt x="176" y="-76" on="0"/>
        <pt x="156" y="-92" on="1"/>
        <pt x="116" y="-121" on="0"/>
        <pt x="33" y="-121" on="1"/>
        <pt x="32" y="-121" on="1"/>
        <pt x="27" y="-121" on="0"/>
        <pt x="27" y="-103" on="0"/>
        <pt x="37" y="-100" on="1"/>
        <pt x="112" y="-100" on="0"/>
        <pt x="171" y="-32" on="0"/>
        <pt x="190" y="45" on="1"/>
        <pt x="236" y="231" on="0"/>
      </contour>
    </TTGlyph>
    <TTGlyph name="bracketleft" xMin="20" yMin="-13" xMax="555" yMax="684">
      <contour>
        <pt x="167" y="11" on="1"/>
        <pt x="259" y="14" on="1"/>
        <pt x="264" y="14" on="0"/>
        <pt x="264" y="2" on="0"/>
        <pt x="251" y="-13" on="0"/>
        <pt x="244" y="-13" on="1"/>
        <pt x="99" y="-13" on="1"/>
        <pt x="20" y="-13" on="0"/>
        <pt x="20" y="18" on="1"/>
        <pt x="20" y="96" on="0"/>
        <pt x="277" y="563" on="0"/>
        <pt x="353" y="651" on="1"/>
        <pt x="382" y="684" on="0"/>
        <pt x="418" y="684" on="1"/>
        <pt x="545" y="684" on="1"/>
        <pt x="555" y="684" on="0"/>
        <pt x="555" y="671" on="0"/>
        <pt x="548" y="658" on="0"/>
        <pt x="539" y="656" on="0"/>
        <pt x="520" y="656" on="1"/>
        <pt x="438" y="656" on="1"/>
        <pt x="407" y="656" on="0"/>
        <pt x="321" y="541" on="0"/>
        <pt x="235" y="392" on="1"/>
        <pt x="75" y="115" on="0"/>
        <pt x="75" y="42" on="1"/>
        <pt x="75" y="11" on="0"/>
      </contour>
    </TTGlyph>
    <TTGlyph name="bracketright" xMin="23" yMin="-17" xMax="558" yMax="680">
      <contour>
        <pt x="411" y="656" on="1"/>
        <pt x="319" y="653" on="1"/>
        <pt x="314" y="653" on="0"/>
        <pt x="314" y="664" on="0"/>
        <pt x="327" y="680" on="0"/>
        <pt x="334" y="680" on="1"/>
        <pt x="479" y="680" on="1"/>
        <pt x="558" y="680" on="0"/>
        <pt x="558" y="649" on="1"/>
        <pt x="558" y="571" on="0"/>
        <pt x="301" y="104" on="0"/>
        <pt x="225" y="16" on="1"/>
        <pt x="196" y="-17" on="0"/>
        <pt x="160" y="-17" on="1"/>
        <pt x="33" y="-17" on="1"/>
        <pt x="23" y="-17" on="0"/>
        <pt x="23" y="-4" on="0"/>
        <pt x="30" y="9" on="0"/>
        <pt x="39" y="11" on="0"/>
        <pt x="58" y="11" on="1"/>
        <pt x="140" y="11" on="1"/>
        <pt x="171" y="11" on="0"/>
        <pt x="257" y="126" on="0"/>
        <pt x="343" y="275" on="1"/>
        <pt x="503" y="552" on="0"/>
        <pt x="503" y="625" on="1"/>
        <pt x="503" y="656" on="0"/>
      </contour>
    </TTGlyph>
    <TTGlyph name="breve" xMin="46" yMin="366" xMax="232" yMax="461">
      <contour>
        <pt x="229" y="461" on="1"/>
        <pt x="232" y="461" on="0"/>
        <pt x="232" y="455" on="0"/>
        <pt x="230" y="451" on="1"/>
        <pt x="213" y="415" on="0"/>
        <pt x="157" y="366" on="0"/>
        <pt x="94" y="366" on="0"/>
        <pt x="46" y="405" on="0"/>
        <pt x="46" y="435" on="1"/>
        <pt x="46" y="445" on="0"/>
        <pt x="56" y="445" on="0"/>
        <pt x="67" y="427" on="0"/>
        <pt x="79" y="406" on="0"/>
        <pt x="110" y="388" on="0"/>
        <pt x="131" y="388" on="1"/>
        <pt x="181" y="388" on="0"/>
        <pt x="218" y="452" on="1"/>
        <pt x="222" y="461" on="0"/>
      </contour>
    </TTGlyph>
    <TTGlyph name="brokenbar" xMin="100" yMin="-91" xMax="158" yMax="626">
      <contour>
        <pt x="153" y="322" on="1"/>
        <pt x="109" y="324" on="1"/>
        <pt x="109" y="444" on="1"/>
        <pt x="109" y="541" on="0"/>
        <pt x="101" y="611" on="0"/>
        <pt x="101" y="616" on="1"/>
        <pt x="101" y="626" on="0"/>
        <pt x="118" y="626" on="1"/>
        <pt x="158" y="626" on="0"/>
        <pt x="158" y="443" on="0"/>
      </contour>
      <contour>
        <pt x="110" y="62" on="1"/>
        <pt x="109" y="277" on="1"/>
        <pt x="151" y="278" on="1"/>
        <pt x="138" y="-13" on="0"/>
        <pt x="125" y="-64" on="1"/>
        <pt x="118" y="-91" on="0"/>
        <pt x="100" y="-91" on="0"/>
        <pt x="100" y="-67" on="0"/>
        <pt x="110" y="15" on="0"/>
      </contour>
    </TTGlyph>
</ttFont>
